# Created by Open3D 
# object name: mesh_sharpened
# number of vertices: 577
# number of triangles: 1090
v 0.0234943 0.0689673 0.0124117
vn 0.607828 0.794029 -0.007981
v 0.0234151 0.0671671 0.017413
vn 0 0 0
v 0.0234005 0.0650966 0.0177832
vn -0.103986 -0.126204 0.986539
v 0.0443416 0.0307101 -0.0171572
vn 0.972998 -0.0156005 -0.230286
v 0.0443269 0.0353309 -0.0135125
vn 0.971613 0.181362 -0.151908
v 0.0446711 0.0317254 -0.00684599
vn 0.998706 -0.0499337 0.00967112
v 0.0423196 0.0363451 -0.0185252
vn 0.029442 0.0585303 0.997851
v 0.0405608 0.0455216 -0.0106916
vn 0.863606 0.308525 -0.398745
v 0.0437871 0.0384452 -0.00737038
vn 0.879785 0.43731 -0.18638
v 0.0434055 0.0339227 0.0150016
vn 0.812099 0.414613 0.410599
v 0.037807 0.0358719 0.0113128
vn 0.887315 0.270737 0.373328
v 0.040076 0.0385253 0.0161097
vn 0.60458 0.188189 0.773995
v 0.0441082 -0.00171047 -0.0183906
vn 0.602234 0.00774807 -0.798282
v 0.0424966 0.0138968 -0.0184248
vn -0.592674 0.0951008 -0.799808
v 0.0454725 0.00793202 -0.0141947
vn 0.919458 0.0902891 -0.38268
v 0.0421423 -0.011898 0.000333749
vn 0.966078 -0.230239 -0.116979
v 0.0456888 -0.00513234 0.00383233
vn 0.985313 -0.130339 -0.110317
v 0.0465133 -0.0125788 0.00997997
vn 0.993581 -0.0466086 -0.103076
v 0.0414014 0.0457708 0.0010654
vn 0.915665 0.39328 -0.0829949
v 0.0441243 0.0364303 -2.03322e-05
vn 0.928533 0.369221 0.03877
v 0.0447111 0.0307706 -0.00269879
vn -0.316548 0.185181 -0.930325
v 0.0434547 0.0361993 -0.00652749
vn -0.913539 -0.147833 -0.378936
v 0.0451295 0.0336094 -0.000934037
vn 0.995212 0.0958206 -0.0192589
v 0.0430138 0.0117923 0.00151118
vn -0.865353 0.377551 -0.329574
v 0.0460309 0.0108513 0.00106471
vn 0.998295 0.0417271 -0.0408274
v 0.0457824 0.0117071 -0.00206827
vn 0.985987 0.144173 -0.0839231
v 0.0370069 -0.0331283 -0.0069318
vn 0.882529 -0.452631 0.127542
v 0.0441064 -0.0310501 -0.0160044
vn 0.95443 -0.290022 -0.0703571
v 0.0454614 -0.0212307 -0.00969902
vn 0.933977 -0.333321 0.128778
v 0.0449363 -0.0304648 0.00795782
vn 0.875914 0.064632 -0.478119
v 0.0463783 -0.0318574 0.0121234
vn 0.986125 -0.136928 0.0938546
v 0.0452663 -0.034256 0.00749306
vn 0.881742 -0.135965 -0.451714
v 0.044781 0.0332205 0.0106019
vn 0.857731 0.472246 0.203176
v 0.0401967 -0.0409931 -0.0180755
vn -0.0141097 0.0323423 -0.999377
v 0.0432415 -0.0356323 -0.0173252
vn 0.933689 -0.317357 0.16586
v 0.0377821 -0.0487904 -0.0144179
vn 0.932369 -0.324178 -0.159991
v 0.0468717 -0.0217346 -0.0141547
vn 0.933829 -0.0180601 -0.357265
v 0.0452571 -0.0252947 -0.0155315
vn 0.60555 -0.0632341 -0.793291
v 0.0462428 -0.012535 -0.0150156
vn 0.703275 0.039214 -0.709836
v 0.041154 -0.0216979 -0.0170332
vn -0.414096 0.056618 -0.908471
v 0.0430636 -0.0133822 -0.0186223
vn -0.0138855 -0.0515613 -0.998573
v 0.0389892 -0.041327 -0.00811686
vn 0.98445 -0.0817119 0.155501
v 0.0437466 0.0176951 -0.0166521
vn 0.970757 0.0134737 -0.239687
v 0.0440738 0.0231779 -0.00736438
vn 0.996442 -0.0606201 -0.0585507
v 0.0462883 -0.00230875 -0.0143923
vn 0.959646 0.0545478 -0.275868
v 0.0396639 -0.0484258 -0.00101808
vn 0.996369 -0.060169 -0.0602289
v 0.0465579 -0.0109367 -0.0103831
vn 0.996348 0.0218094 -0.0825591
v 0.0463083 -0.00113137 -0.00840653
vn 0.997811 -0.00660979 0.0658049
v 0.0401412 0.0468522 0.00934844
vn 0.93244 0.298907 0.203004
v 0.0374901 0.0540282 0.00966215
vn 0.811432 0.582698 0.0451787
v 0.0376579 0.0533614 0.00118957
vn 0.780968 0.619312 -0.0808836
v 0.0372127 0.0533075 -0.00714562
vn 0.740883 0.658915 -0.130093
v 0.0469839 -0.00147451 0.0116558
vn 0.993014 -0.0417731 0.110356
v 0.045334 -0.00202373 0.0155614
vn 0.914262 -0.0329348 0.403784
v 0.0386995 0.0460291 0.0149028
vn 0.860602 0.244147 0.446942
v 0.0355304 0.0534121 0.0146142
vn 0.724383 0.400099 0.561417
v 0.0466948 -0.0214072 0.0104099
vn 0.986317 -0.0801959 -0.144043
v 0.0452977 -0.0121203 0.0150848
vn 0.934726 -0.034681 0.353674
v 0.047138 0.0179899 0.0105798
vn 0.998283 0.0561173 -0.0167846
v 0.0471458 0.0146691 -0.000359668
vn 0.980972 0.050484 -0.18747
v 0.0466605 0.0273906 0.0100824
vn 0.993113 0.115918 0.0169991
v 0.0454361 0.0269296 0.0148164
vn 0.898241 0.130909 0.419555
v 0.0454428 0.0183072 0.0156094
vn 0.78181 0.0153469 0.623328
v 0.0449334 0.00829284 0.0158089
vn 0.809776 0.0242468 0.586238
v 0.0472597 0.00840641 0.0103033
vn 0.995724 -0.0131376 0.0914445
v 0.0405817 0.0177862 0.00274244
vn -0.982088 0.181578 -0.0503263
v 0.045745 0.0325869 0.00179116
vn 0.992809 0.0559598 -0.10582
v 0.0423794 0.0221208 -0.00664355
vn -0.870408 0.445153 -0.210306
v 0.0422479 0.0269735 -0.00640467
vn -0.982668 0.158703 -0.0957949
v 0.0430181 0.0317446 -0.0176654
vn -0.986233 -0.011071 0.164989
v 0.0404914 0.0202012 -0.017271
vn -0.990708 0.126843 0.0490715
v 0.0455354 -0.0208949 0.0152368
vn 0.850979 -0.0405385 0.523632
v 0.0423773 -0.0112087 0.0174285
vn 0.222783 -0.0518346 0.973489
v 0.0418417 -0.0211266 0.0170525
vn -0.136468 -0.0356342 0.990003
v 0.0451297 -0.0146496 -0.00603477
vn 0.987982 0.12372 -0.0926527
v 0.0443379 -0.0103442 -0.00315917
vn 0.954068 -0.0809971 0.288432
v 0.0425151 -0.00485981 0.00224921
vn 0.995202 -0.0204746 -0.0956792
v 0.0451605 -0.0310852 0.015522
vn 0.892151 -0.0906499 0.442549
v 0.0389083 -0.0344702 0.00360676
vn 0.827882 -0.509405 -0.234771
v 0.04256 -0.0386232 0.00377829
vn 0.920772 -0.312886 -0.232985
v 0.0420944 -0.0309832 0.0168388
vn -0.11915 -0.0758796 0.989973
v 0.0443213 -0.0218044 0.00247988
vn 0.978494 -0.190603 -0.0788724
v 0.0395537 -0.0483009 0.00403013
vn 0.880105 -0.473256 -0.0380046
v 0.0405029 -0.0447815 0.0015331
vn 0.967422 0.0589886 0.246201
v 0.0445955 -0.0403124 0.011319
vn 0.950313 -0.30301 -0.0713429
v 0.0453702 -0.0281501 -0.0160189
vn 0 0 0
v 0.0426462 -0.00136052 0.0172603
vn 0.1416 0.00591201 0.989906
v 0.0445177 -0.0370414 0.0154981
vn 0.825734 -0.271624 0.494352
v 0.0373018 0.0110402 0.00498957
vn -0.996125 0.0860558 0.0181379
v 0.0399943 0.0129892 -0.00793742
vn -0.98198 0.1888 -0.00837396
v 0.0425669 0.017484 0.0171101
vn -0.378744 -0.011721 0.925427
v 0.0379567 -0.0109931 0.011359
vn -0.978499 -0.188869 0.0828727
v 0.0403443 -0.0111755 0.00648119
vn -0.797559 0.361068 -0.483249
v 0.0387299 -0.010045 0.00219372
vn -0.986716 0.157885 0.0382632
v 0.0338833 -0.0421563 0.0159948
vn -0.124747 0.0316781 0.991683
v 0.0368421 -0.0482173 0.0151568
vn 0.594681 -0.586908 0.549448
v 0.0408305 -0.0407126 0.0159059
vn 0.174824 -0.200052 0.964062
v 0.0327207 -0.0509197 0.016464
vn 0.310043 -0.34573 0.885632
v 0.0325734 -0.0529023 0.00366977
vn -0.488348 -0.424412 -0.76249
v 0.0361184 -0.050043 0.00100932
vn 0.0813925 -0.417456 0.905045
v 0.0358587 -0.0546557 0.00924667
vn 0.678731 -0.700866 0.219343
v 0.0365229 -0.0552072 0.00109694
vn -0.650765 0.720676 -0.23902
v 0.0371743 -0.0540819 0.000145665
vn -0.158263 0.866473 -0.473474
v 0.0310637 -0.0604778 0.00847104
vn 0.552199 -0.824294 0.124962
v 0.0364822 -0.0576861 -0.00794137
vn 0.835132 -0.472478 -0.281636
v 0.038631 -0.0558905 -0.0050433
vn 0.805166 0.492989 -0.32965
v 0.0326516 -0.0595301 -0.00472109
vn -0.77957 0.603923 -0.165974
v 0.0355906 -0.0554847 -0.00310618
vn 0.626083 -0.593718 0.505489
v 0.029716 -0.0571557 0.00299036
vn -0.232955 0.958398 0.164941
v 0.0311086 0.0551658 -0.0131881
vn -0.716505 -0.637074 -0.284178
v 0.0324585 0.0560491 -0.00790092
vn 0.595157 0.734525 -0.325978
v 0.0373657 0.0515368 -0.0128994
vn 0.755905 0.653993 -0.0300235
v 0.0334761 0.0304519 -0.0210776
vn 0.148588 0.0541864 -0.987414
v 0.0425607 0.032299 -0.0196077
vn 0.272861 0.0685312 -0.959609
v 0.0346993 0.0290107 -0.0204823
vn -0.151444 -0.450853 0.879657
v 0.0362923 0.031808 0.0140432
vn -0.760491 -0.138503 0.634406
v 0.0397205 0.0191013 0.0148768
vn -0.959713 -0.043279 0.277629
v 0.0422558 0.0277822 0.0167488
vn 0.241277 0.0472609 0.969305
v 0.0384549 -0.00516724 0.0151561
vn -0.481841 0.0592211 0.874255
v 0.0424992 0.007279 0.0172554
vn -0.312532 0.0935673 0.945288
v 0.0389959 0.00863051 0.00911789
vn -0.992966 0.0546068 -0.105057
v 0.0382485 -8.0124e-05 0.0101299
vn -0.998032 0.0415405 -0.0469715
v 0.037794 -0.00412907 0.0156086
vn -0.980032 0.041188 0.194526
v 0.0384084 0.00653319 0.0131719
vn -0.984784 0.0879918 0.149857
v 0.0384084 0.0160286 0.00959874
vn -0.971697 -0.0426449 -0.232348
v 0.0388426 -0.003248 0.000549801
vn -0.985017 0.101855 -0.139164
v 0.0376073 -0.0098829 0.0167982
vn -0.689397 -0.0794717 0.720011
v 0.0333004 -0.0419786 0.00169149
vn -0.155338 0.390985 0.907194
v 0.0344411 -0.0341187 -0.00672647
vn -0.995387 -0.0408481 -0.0868166
v 0.0342062 -0.0364611 -0.0070268
vn -0.46468 0.592031 0.658462
v 0.0362157 0.0493164 -0.0152045
vn 0.15176 -0.447561 0.881282
v 0.0358075 0.0404943 0.016655
vn -0.370181 -0.285903 0.88387
v 0.0355538 0.0365821 0.0126321
vn -0.83082 -0.549651 0.0872995
v 0.0373807 0.031748 0.0113756
vn -0.977359 -0.11719 -0.17617
v 0.0411277 0.0342068 0.00259702
vn -0.747185 -0.411325 -0.522041
v 0.0380826 0.019023 0.00489927
vn -0.997498 -0.0149359 -0.0691018
v 0.0370399 0.0166171 0.00413452
vn -0.962699 0.139888 -0.231606
v 0.0412907 0.0407561 -0.00876684
vn -0.835391 -0.406378 -0.370107
v 0.0379291 0.00832611 -0.00747881
vn -0.986624 0.133024 -0.0942219
v 0.0390717 0.0175816 -0.0038338
vn -0.938262 0.163468 -0.304865
v 0.0399946 0.0307623 -0.00132325
vn -0.273797 0.474464 0.836611
v 0.0410447 0.0255069 -0.00616701
vn -0.94638 -0.191536 -0.260151
v 0.0315477 -0.061343 -0.0107724
vn 0.461285 -0.582891 -0.66892
v 0.0288557 0.0622205 -0.000762455
vn 0.741946 0.65956 -0.120403
v 0.0258697 0.0647414 -0.00991236
vn 0.424388 0.612866 -0.666551
v 0.0232173 0.0563918 -0.00144352
vn -0.622028 -0.721593 -0.303948
v 0.0306922 0.0577858 -0.00471459
vn 0.697402 0.694622 -0.176436
v 0.0264703 0.0582263 -0.00817836
vn -0.0648398 -0.98766 -0.142563
v 0.027779 0.0534094 -0.0127685
vn -0.746174 -0.593431 0.301768
v 0.0308172 0.0525152 -0.00924676
vn -0.801572 -0.515009 -0.303724
v 0.0272053 0.0541029 -0.0057864
vn -0.759669 -0.650309 -0.00048552
v 0.0333942 0.0508251 -0.0131917
vn 0.0571236 -0.173582 0.983161
v 0.0385608 0.00822276 0.0137279
vn -0.510959 0.131248 0.849526
v 0.0367322 -0.0011091 -0.0156707
vn -0.983174 0.0473386 -0.176433
v 0.0372849 -0.00417651 -0.0015629
vn -0.992272 0.0998768 -0.0736248
v 0.0264765 -0.0272641 -0.00247679
vn 0.977981 0.00425999 -0.208649
v 0.0292463 -0.0284526 -0.000319639
vn -0.352564 0.430893 0.83068
v 0.0295431 -0.0237699 -0.00330833
vn -0.967324 0.100082 -0.232955
v 0.0327979 -0.0230613 0.00242712
vn -0.968852 0.247324 0.0125167
v 0.0348078 -0.0117445 -0.00806003
vn -0.964352 0.25165 -0.0818333
v 0.0360075 -0.0111076 -0.0146428
vn -0.911215 0.0670666 -0.406436
v 0.0358139 -0.0211165 -0.0134432
vn -0.819751 0.0351475 -0.57164
v 0.0341679 -0.0314479 0.0104788
vn -0.859539 0.269599 0.434176
v 0.0305267 -0.0361272 0.00322279
vn -0.945067 -0.077768 0.31749
v 0.0348288 -0.0333647 -0.0133525
vn -0.641427 0.43264 -0.633557
v 0.0266308 -0.0451569 0.0107655
vn -0.727245 0.300797 0.616957
v 0.0362927 0.021941 -0.0200627
vn 0.0854822 -0.0668845 -0.994092
v 0.0353871 0.0199641 -0.0204668
vn -0.694736 -0.196754 0.691831
v 0.0269194 -0.045516 0.00756357
vn -0.942224 0.310777 0.125027
v 0.0372075 -0.0316481 0.0150322
vn -0.541007 0.0851405 0.836698
v 0.0369247 -0.01583 0.0157397
vn -0.748493 0.00871302 0.663085
v 0.0366576 -0.01592 0.0074305
vn -0.932624 0.189968 0.306796
v 0.0227909 -0.0553484 0.0162916
vn -0.118091 -0.142859 0.982673
v 0.0303956 -0.0475039 0.0157289
vn -0.582127 0.321146 0.746989
v 0.0422131 0.00631436 -0.0198245
vn -0.71506 0.113615 -0.689769
v 0.0383597 0.000346597 -0.0187942
vn -0.951627 -0.29456 -0.0874097
v 0.0332757 -0.0506742 -0.0173822
vn -0.246822 -0.0560798 -0.967437
v 0.0346501 -0.0412825 -0.0169512
vn -0.474799 0.231446 -0.849116
v 0.0419549 -0.00131054 -0.0200166
vn -0.38748 -0.00955517 -0.921829
v 0.0432202 -0.0311908 -0.0179063
vn -0.244651 -0.030903 -0.969119
v 0.042842 -0.00943405 -0.0196187
vn 0.0878586 -0.231117 -0.968951
v 0.0396705 -0.00772348 -0.018934
vn -0.907626 -0.0256013 -0.418999
v 0.0368278 -0.0487085 -0.0194949
vn -0.35914 -0.157318 -0.919929
v 0.0383617 0.00601278 -0.0140042
vn -0.981083 0.126994 -0.146111
v 0.0290979 -0.0434586 -0.0133173
vn -0.711253 0.391623 -0.583738
v 0.0244855 0.0664463 0.000786262
vn 0.742558 0.662931 -0.0955546
v 0.0251188 0.0638855 -0.008069
vn 0.733179 0.616777 -0.286418
v 0.0380992 0.0351599 0.0010837
vn -0.870144 -0.461562 -0.172656
v 0.0321319 0.0464933 0.000794585
vn -0.814821 -0.521708 -0.25276
v 0.0309348 0.0456349 0.00769578
vn -0.835767 -0.540661 -0.0958048
v 0.0289528 0.0509456 -0.000813922
vn -0.827898 -0.506564 -0.240788
v -0.0326842 0.0549036 -0.00663235
vn 0.662735 -0.664825 -0.344659
v -0.0253961 0.0602045 -0.00732728
vn 0.466127 -0.857329 -0.218431
v -0.0318635 0.0540571 0.00175258
vn 0.664166 -0.745624 0.0541181
v -0.0290155 0.0619921 -0.0143174
vn 0.392078 -0.598684 -0.698464
v -0.0265129 0.0641648 0.015093
vn 0.0291393 -0.273499 0.961431
v -0.0249766 0.060513 0.0101294
vn 0.340504 -0.902159 0.26489
v -0.0148554 0.0641247 0.0171491
vn -0.00585688 -0.604926 0.79626
v -0.0102476 0.068869 -0.0181242
vn 0.0779872 -0.487767 -0.869483
v -0.00114731 0.0706698 -0.0165808
vn 0.390089 0.189892 -0.900984
v 0.00568578 0.0659874 -0.0138478
vn 0.224949 -0.0217414 -0.974128
v 0.027839 -0.0592835 0.00911667
vn 0.647085 0.382367 0.659603
v 0.0179651 -0.0550608 0.00732624
vn 0.65068 0.635052 -0.416323
v 0.0221087 -0.0529324 0.0116308
vn -0.934459 0.210527 -0.287166
v -0.00710927 -0.0708235 0.0144971
vn 0.02734 -0.310123 0.950303
v -0.0165779 -0.0638664 0.0150074
vn 0.211138 0.318848 0.92399
v -0.0183333 -0.0693473 0.0149512
vn 0.0231956 -0.299478 0.953821
v -0.0259734 -0.0695533 0.0105384
vn -0.337441 -0.882749 0.326938
v -0.017327 -0.0739088 0.00891752
vn -0.16594 -0.985897 0.0217021
v -0.0177576 -0.072628 0.0116439
vn -0.0172044 -0.581222 0.813563
v -0.0254425 -0.0673963 0.0149305
vn -0.126622 -0.46562 0.87588
v -0.0263716 -0.0614382 0.0165406
vn 0.0826306 -0.0539515 0.995119
v -0.0494039 -0.0300181 -0.01183
vn 0.934365 0.218742 -0.281273
v -0.0444468 -0.030512 0.00173678
vn 0.997008 -0.0431146 0.0641597
v -0.0462728 -0.0437501 -0.0091066
vn 0.987825 0.0837981 -0.131072
v 0.0242913 -0.0598063 -0.0136237
vn -0.165212 -0.0935007 -0.981816
v 0.0131774 -0.0609772 -0.0117552
vn -0.238484 0.237651 -0.94162
v 0.0239094 -0.0516014 -0.012876
vn -0.567622 0.449038 -0.690051
v -0.0249678 0.0734331 0.014898
vn 0.799285 0.598113 0.0583559
v -0.0255524 0.0730608 0.0149715
vn -0.411235 0.433204 0.80201
v -0.0243837 0.0680104 0.0164509
vn -0.153738 0.0793809 0.984918
v 0.0330795 0.0306749 -0.0205593
vn -0.367015 -0.195519 0.909435
v 0.0331419 0.0222917 -0.0210052
vn -0.400462 -0.111808 0.909466
v -0.00524881 -0.061143 0.0104226
vn 0.0624312 0.847937 0.526408
v 0.00367266 -0.0651736 0.0145854
vn -0.100749 0.68081 0.725498
v 0.00311026 -0.0617191 0.0102255
vn -0.0766517 0.892207 0.445075
v 0.0389527 0.0182417 -0.0200806
vn 0.0512574 -0.286216 -0.956793
v -0.00746498 0.0727807 -0.0202233
vn 0.139042 -0.325119 -0.935396
v -0.045848 0.0484833 0.0164813
vn -0.0188051 -0.0428483 0.998905
v -0.0437876 0.0403504 0.0124317
vn 0.661212 -0.639863 0.39163
v -0.0420843 0.0457098 0.0132675
vn 0.590431 -0.136744 0.795419
v 0.00409317 0.0647201 -0.0127686
vn -0.00110378 -0.764306 -0.644853
v -0.0578148 0.0456066 0.0123138
vn -0.834391 0.134651 0.534472
v -0.0574342 0.0472368 0.00886931
vn -0.899302 0.400971 0.174577
v -0.0585565 0.0444924 0.005392
vn -0.960952 0.270493 0.0583429
v 0.00909021 0.0646594 -0.0132517
vn -0.16069 -0.649383 -0.743291
v 0.00609785 0.0644098 -0.0104632
vn -0.144477 -0.977917 -0.151011
v -0.0176058 -0.0651642 -0.0106042
vn 0.0770338 0.156689 -0.984639
v -0.00599662 -0.0719512 -0.0113938
vn -0.0247102 -0.292333 -0.955997
v -0.0161035 -0.0704707 -0.0109772
vn -0.085202 -0.346533 -0.93416
v -0.0344139 0.0672805 -0.0165497
vn -0.265203 0.604137 -0.751456
v -0.0265887 0.0664517 -0.0184452
vn 0.0144055 -0.290724 -0.956698
v -0.00578103 0.0651737 -0.0140848
vn 0.008549 -0.742687 -0.669584
v -0.013751 0.06611 -0.0150282
vn 0.221655 -0.800992 -0.55613
v -0.0162263 0.0705594 -0.0182411
vn -0.0957397 0.0961801 -0.990749
v -0.0430422 0.0397421 0.00273383
vn 0.725234 -0.688502 -0.000878917
v -0.0377295 0.0480138 0.0023269
vn 0.78691 -0.615773 0.0399614
v -0.0388037 0.0488765 0.0106158
vn 0.763243 -0.52772 0.37279
v -0.0342348 -0.054379 0.0171541
vn 0.350618 0.539972 0.765178
v -0.0278802 -0.054476 0.015034
vn 0.454623 0.75028 0.479997
v -0.0359365 -0.0504674 0.0108163
vn 0.518028 0.855364 -0.00014722
v -0.0508687 -0.040685 -0.00564485
vn -0.94665 -0.276121 -0.166166
v -0.0450404 -0.0451005 -0.0134038
vn -0.787702 -0.528242 -0.316996
v -0.00639678 -0.0664997 -0.0110015
vn -0.0420717 0.203012 -0.978272
v -0.0388317 -0.0624644 -0.0121803
vn 0.177238 -0.027976 -0.98377
v -0.028092 -0.0616726 -0.0109958
vn 0.185762 0.168412 -0.968055
v -0.0354006 -0.0655639 -0.01151
vn 0.194238 -0.497371 -0.845514
v 0.0318764 0.0399095 -0.0203396
vn -0.343436 0.105446 -0.933238
v 0.0308166 0.0492248 -0.0195428
vn -0.631262 0.0214612 -0.775273
v 0.0346936 0.037617 -0.0211085
vn 0.15092 0.143375 -0.978094
v -0.0372504 0.058789 0.0154133
vn 0.152824 -0.0877731 0.984348
v -0.0331325 0.0555308 0.0108868
vn 0.528668 -0.676621 0.512537
v -0.0413017 -0.0517405 -0.00972688
vn 0.450768 0.784273 -0.426291
v -0.0398285 -0.0499177 0.00058731
vn 0.455537 0.882913 -0.113802
v -0.0267468 -0.0563889 0.00208291
vn 0.369814 0.910659 -0.184222
v -0.0410756 0.0510861 -0.0146041
vn 0.536289 -0.46045 -0.707375
v -0.0432625 0.0426451 -0.0106792
vn 0.755559 -0.618599 -0.215561
v -0.0439067 0.0390424 -0.0135305
vn 0.766112 -0.380401 -0.518042
v -0.0507611 -0.0291818 0.000403283
vn -0.297639 0.911971 0.282346
v -0.0453898 -0.0281444 0.00156598
vn -0.103808 0.968813 0.225001
v -0.0501556 -0.0285403 -0.00933945
vn -0.0496694 0.996579 0.0660536
v -0.0492064 0.035207 0.00985713
vn 0.488574 -0.866145 0.105297
v -0.0451156 -0.0500498 -0.0130139
vn -0.797202 -0.21674 -0.563465
v -0.0420506 -0.0523657 -0.01469
vn 0.178633 0.0317229 -0.983404
v -0.0270435 -0.0551657 0.0128022
vn 0.39527 0.918185 0.0264094
v -0.016507 -0.0592951 0.0108849
vn 0.299933 0.907885 0.292893
v -0.015309 -0.0596389 -0.000312847
vn 0.279509 0.960066 -0.0121843
v -0.0414956 -0.0448436 0.0118235
vn 0.604331 0.79665 -0.0115319
v -0.0277633 -0.0579272 -0.0075455
vn 0.349656 0.721224 -0.597976
v -0.0314852 -0.0571077 -0.00958967
vn 0.360156 0.383189 -0.850561
v -0.00495031 -0.0749113 0.00746172
vn 0.184715 -0.716905 0.672255
v -0.00565103 -0.0747615 0.0113108
vn -0.108105 -0.975412 0.192055
v -0.00899127 -0.0754708 -0.000473929
vn -0.222096 -0.974868 0.0174926
v -0.0440806 -0.0492196 -0.00862367
vn -0.167151 0.969273 -0.180472
v -0.00931442 0.0719613 -0.0197706
vn 0.068303 0.752837 -0.654653
v -0.00719068 0.0725466 -0.0180903
vn 0.156553 0.917229 -0.366308
v -0.0582843 0.0376227 0.0141167
vn -0.904225 -0.023032 0.426435
v -0.0571256 0.0312855 0.0122325
vn 0.199957 -0.683715 0.70182
v -0.0549106 0.0384904 0.0149585
vn -0.213384 -0.0375498 0.976247
v -0.0177836 0.0634819 -0.00652906
vn 0.437768 -0.891759 -0.114564
v -0.0140436 0.0637372 0.00398146
vn 0.335349 -0.941345 -0.0375536
v -0.0111288 0.0634711 0.0123708
vn 0.175518 -0.977035 0.120813
v -0.00939981 0.0641242 0.0151711
vn 0.0103149 -0.833652 0.552194
v -0.0438293 -0.0551508 -0.0146769
vn 0.662489 0.579736 0.474358
v 0.0123506 0.0678905 0.017051
vn 0.010226 0.0308563 0.999472
v 0.0204879 0.0697089 0.0161053
vn 0.174289 0.717632 0.674261
v 0.0110106 0.0712928 0.0158045
vn 0.128454 0.735303 0.665454
v -0.0383941 -0.0651067 -0.0110718
vn -0.171348 -0.974425 0.145384
v -0.0264235 -0.0696597 -0.00629329
vn -0.31024 -0.910056 -0.274863
v -0.0341283 -0.0679393 0.00247868
vn -0.402042 -0.91239 -0.0768559
v -0.0430184 -0.0628717 -0.00171112
vn -0.538842 -0.838865 -0.0771757
v -0.0403905 -0.0648987 0.0110833
vn -0.417379 -0.870612 0.260442
v -0.00549351 0.0727851 0.0150381
vn -0.00284854 0.68329 0.730142
v -0.00494499 0.0688377 0.0169865
vn -0.00350185 -0.0516296 0.99866
v 0.00292771 0.0718026 0.0161788
vn 0.0498358 0.593889 0.803002
v -0.0461339 0.0639243 -0.00880722
vn -0.680019 0.715678 -0.15931
v -0.0489242 0.0609646 0.000352048
vn -0.64449 0.76275 -0.0533398
v -0.0425831 0.0665329 -0.00948836
vn -0.525455 0.827172 -0.199205
v -0.0489937 0.0456278 -0.0142489
vn -0.484717 -0.0587522 -0.872695
v -0.0473113 0.0405399 -0.0165011
vn 0.0790257 -0.25461 -0.963809
v 0.0467646 -0.0209583 -0.0105575
vn 0.385376 0.365889 0.847119
v 0.0468321 -0.0186168 -0.0110897
vn 0.999699 -0.0232649 0.00780116
v 0.0426848 -0.0443504 0.0119787
vn 0.783673 -0.554307 0.280359
v -0.0594605 0.0419455 0.00651686
vn -0.992749 -0.0861604 0.0838167
v 0.0260027 -0.0551315 0.00364416
vn -0.288112 0.467605 0.835666
v -0.0475733 0.0420662 -0.0116437
vn 0.353598 -0.307837 -0.883292
v 0.0278983 0.0497031 0.018228
vn -0.827337 -0.46366 0.317069
v 0.0306274 0.0465593 0.0183187
vn -0.506896 -0.426189 0.749279
v -0.0491403 0.0347105 -0.00023771
vn 0.522404 -0.849278 -0.0762965
v -0.0446694 0.0413707 -0.00820391
vn 0.594548 -0.770009 -0.231513
v -0.0477289 0.0327714 -0.012351
vn 0.775344 -0.596375 0.207793
v 0.00318153 0.0745776 0.0106552
vn 0.0840551 0.904924 0.41719
v -0.0455308 0.0338184 -0.0139387
vn -0.222167 0.207875 0.952591
v -0.0492664 -0.0442909 0.0167256
vn 0.493847 0.59223 0.636694
v -0.0405743 -0.0467335 0.014899
vn 0.55471 0.812962 0.177173
v -0.055305 -0.0331466 0.0102809
vn -0.95327 -0.161161 -0.255545
v -0.0559275 -0.0413687 0.0142789
vn -0.961739 -0.167161 -0.21706
v -0.0561045 -0.0351122 0.0138303
vn -0.902559 0.159142 0.400075
v -0.0560384 0.0401255 -0.00860396
vn -0.79355 0.110959 -0.598304
v -0.0522604 0.0485786 -0.0125385
vn -0.699378 0.121534 -0.704343
v -0.0509632 0.0479753 -0.0112379
vn -0.730821 0.18008 -0.658386
v 0.00170813 -0.0755594 -0.000959043
vn 0.045783 -0.998055 -0.0423144
v 0.00410834 -0.0753047 -0.00800218
vn 0.334455 -0.767675 -0.54664
v 0.00260056 -0.0760621 -0.00771501
vn -0.00389015 -0.930022 -0.367484
v 0.0265862 0.0549433 0.0180539
vn -0.533011 -0.465625 0.706465
v 0.0270058 0.0501722 0.0116163
vn -0.82271 -0.565169 -0.0610851
v 0.0044096 0.0656538 0.0156026
vn -0.0603778 -0.706045 0.705588
v 0.0117502 0.0609806 0.0101813
vn -0.252915 -0.947361 0.196318
v 0.0153885 0.0633335 0.0153682
vn -0.25391 -0.584186 0.77088
v -0.0069809 -0.0761752 -0.00536887
vn 0.0139206 -0.975789 -0.21827
v -0.0074988 -0.0761317 0.000844148
vn 0.183251 -0.971463 -0.150595
v -0.024835 0.0591229 0.00244734
vn 0.494896 -0.868627 0.0237748
v -0.0445317 -0.0408486 0.010645
vn 0.789372 0.613638 0.0184401
v -0.0462422 -0.0437304 0.00228981
vn 0.919613 0.369474 -0.133418
v 0.0223416 -0.0641037 -0.0119307
vn 0.00292471 -0.686546 -0.727081
v 0.00317349 0.0724652 -0.0131779
vn 0.177203 0.782654 -0.5967
v 0.00355885 0.0747375 -0.0064614
vn 0.136302 0.971956 -0.191633
v 0.0128449 0.0733527 -0.00693461
vn 0.223353 0.928272 -0.297363
v -0.0439699 -0.044628 -0.00779373
vn 0.669554 0.740825 0.053619
v -0.0431596 -0.0620687 -0.00657008
vn -0.891692 -0.412339 -0.186713
v -0.0471718 -0.0346498 0.00886768
vn 0.702276 0.517678 0.48869
v -0.0490916 -0.0366816 0.0134056
vn 0.41186 0.566468 0.713783
v -0.0545516 -0.0355761 0.0139103
vn 0.244842 0.701179 0.669627
v 0.0312668 -0.0354744 -0.0114643
vn -0.824559 0.118105 -0.553312
v 0.0222711 -0.031706 -0.00255453
vn -0.513057 0.858183 0.0171485
v 0.0200417 0.0568954 0.0103979
vn -0.543904 -0.83758 0.0512593
v -0.0466176 0.0327383 -0.0142106
vn 0.312766 -0.172172 -0.934096
v -0.0430526 0.0403065 0.0139216
vn 0.912508 -0.399308 0.0887781
v 0.00355312 -0.0685159 0.0150908
vn 0.102541 -0.399247 0.911091
v 0.0164501 -0.062366 0.0175026
vn -0.256507 0.587351 0.767609
v 0.0302082 0.044374 0.0141297
vn -0.8213 -0.567148 0.0617184
v -0.0336054 -0.0645889 0.0141999
vn -0.240962 -0.509309 0.826161
v -0.0481457 -0.046786 0.0174161
vn -0.0359165 -0.00908309 0.999314
v -0.0337696 -0.0562734 0.0178153
vn -0.0467125 -0.110205 0.992811
v -0.0471271 -0.0596129 0.0149983
vn -0.186648 -0.381674 0.905256
v -0.0574754 0.0454017 0.00235652
vn -0.890933 0.0733795 -0.448168
v -0.0574517 0.0441117 -0.00135647
vn -0.925544 0.358669 -0.12135
v -0.0577982 0.0468856 0.00655672
vn 0.911264 -0.410207 0.0364569
v -0.0534163 0.0405165 -0.0136901
vn 0.674349 -0.244561 0.696738
v -0.0490405 0.0349722 -0.0188379
vn -0.635401 -0.509418 -0.580309
v -0.0492778 0.0338849 -0.0139057
vn -0.514631 -0.698457 -0.497306
v -0.026344 0.0741553 0.000798581
vn -0.282118 0.958756 0.0345873
v -0.0231892 0.0744093 0.0127026
vn -0.282352 0.932242 0.226277
v -0.0158045 0.0758799 0.00124477
vn -0.133216 0.990548 0.0326912
v -0.0264534 -0.0709558 0.00215399
vn -0.299888 -0.950396 -0.0825467
v 0.0173203 -0.0567025 -0.0128377
vn -0.550453 0.588952 -0.591724
v 0.0127595 0.0659826 -0.0141531
vn 0.129294 0.264831 -0.955588
v -0.0149907 -0.0604111 -0.00425128
vn 0.217944 0.688413 -0.6918
v -0.0448565 -0.0608584 -0.000490161
vn -0.941723 -0.324482 -0.0887021
v -0.0448825 -0.060752 -0.00354987
vn -0.953119 0.143043 -0.266651
v -0.0141464 0.065636 -0.0126154
vn 0.0154865 -0.989307 -0.145023
v -0.0442697 -0.0283691 0.00201892
vn 0 0 0
v -0.0442324 -0.0286664 0.00203914
vn 0 0 0
v -0.0422084 0.0398739 0.00616208
vn 0.991833 0.110695 0.0633559
v -0.0519036 0.0395297 -0.0178573
vn -0.376917 -0.212954 -0.901435
v -0.0489639 -0.0303642 -0.013824
vn 0.985828 0.16181 -0.0442831
v -0.0458822 -0.0436352 -0.0179967
vn 0.979697 0.143819 -0.139676
v -0.0501743 -0.03053 -0.0190477
vn -0.968125 -0.248253 0.0332452
v -0.0510527 0.0588533 -0.00127715
vn -0.868691 0.490214 -0.0711738
v -0.0544162 0.0519982 -0.00167077
vn -0.897601 0.37265 -0.235465
v -0.0183645 0.0672665 -0.0171781
vn 0.00388238 -0.663514 -0.748154
v -0.00248014 0.0646341 -0.01027
vn -0.0426267 -0.996128 -0.0768876
v 0.0134924 -0.0567701 -0.00358559
vn -0.426217 0.775569 -0.465651
v 0.0272169 -0.0653032 -0.00641635
vn 0.390188 -0.895279 -0.21501
v 0.0305957 -0.062532 -0.00962232
vn 0.477953 -0.877016 0.0490383
v -0.00632725 0.0753976 -0.00755676
vn 0.0695741 0.973629 -0.217268
v -0.0165865 0.0753854 -0.00738455
vn -0.0583495 0.97777 -0.201398
v -0.0060547 -0.065212 0.0146383
vn 0.0191557 0.26544 0.963937
v -0.0417647 0.0644092 -0.0138161
vn -0.603862 0.567104 -0.560128
v -0.0345442 0.0658766 -0.0180978
vn 0.0107791 0.44532 -0.895307
v -0.0387061 0.0639716 -0.0178356
vn -0.534225 0.374163 -0.758027
v 0.00444533 -0.0642465 -0.0112669
vn -0.120058 0.467644 -0.875725
v 0.00354871 -0.0696676 -0.0114801
vn 0.0486696 -0.252628 -0.966339
v -0.0153567 0.0740427 -0.0146516
vn -0.065093 0.925776 -0.372428
v -0.0123535 0.0726935 -0.0195343
vn -0.216097 0.762833 -0.609417
v -0.0386057 0.0675952 0.0108631
vn -0.492854 0.828844 0.264789
v -0.0351104 0.0663885 0.0144586
vn -0.20843 0.345697 0.914905
v -0.0323002 0.0713524 0.0101585
vn -0.407425 0.826609 0.38823
v -0.0419222 0.0516079 0.0161093
vn 0.491213 -0.346237 0.799268
v -0.0584295 0.0319819 0.00932865
vn -0.977178 -0.202151 -0.0652613
v -0.0588372 0.0344633 0.0137003
vn -0.927015 -0.231486 0.295055
v -0.0396117 0.0581662 -0.0190876
vn 0.282671 -0.134816 -0.949696
v 0.0386718 -0.0468707 -0.0195403
vn 0.974015 -0.145384 0.17366
v -0.0501667 0.0583965 -0.00209558
vn -0.758359 0.63428 -0.150269
v -0.0533392 0.0529836 -0.000963866
vn 0 0 0
v -0.0532189 0.0339295 -0.0103547
vn -0.0352144 -0.967639 -0.249868
v -0.0496483 -0.0479987 -0.00269392
vn -0.973863 -0.210385 0.0856089
v -0.0438987 -0.0501553 -0.00170385
vn -0.985078 0.126623 -0.11657
v -0.049955 -0.0313079 -0.0160473
vn -0.952521 -0.209199 -0.221221
v -0.057938 0.0320455 0.00466302
vn -0.893234 -0.380543 -0.239416
v -0.0569136 0.0313045 0.00962984
vn 0.281307 -0.933217 0.223543
v -0.0470933 -0.048494 -0.0108322
vn -0.933012 -0.199153 -0.299711
v -0.0495729 -0.0510879 0.00748838
vn -0.921873 -0.203128 -0.329984
v -0.0389207 0.0690524 0.00213687
vn -0.572256 0.819961 0.0136996
v -0.0336152 0.0718011 0.00225624
vn -0.412362 0.909443 0.0535728
v -0.0489183 0.0627653 0.0115905
vn -0.473223 0.867216 0.154908
v 0.021866 -0.0495525 -0.0060459
vn -0.782654 0.595369 -0.181627
v 0.0269972 -0.049209 0.00420412
vn -0.971292 0.0644033 0.229007
v 0.0241759 -0.0414939 0.00216523
vn -0.860163 0.366145 0.355046
v -0.030995 0.070613 -0.0147105
vn -0.297896 0.83282 -0.466549
v -0.0238501 0.0726778 -0.0149867
vn -0.208612 0.830637 -0.516259
v -0.0452533 0.0400894 0.0148931
vn 0.0712051 -0.189796 0.979238
v -0.0167822 -0.0742156 0.00180316
vn -0.263558 -0.964637 -0.00348225
v 0.0458536 -0.0023665 0.00387327
vn 0.988733 -0.0402778 -0.144169
v -0.026067 0.0680182 -0.018898
vn -0.0831997 0.231449 -0.969283
v -0.0318227 0.0720859 -0.0079309
vn -0.422384 0.88292 -0.205047
v -0.0251753 0.0742277 -0.00804562
vn -0.217438 0.941941 -0.255865
v -0.0559391 0.046968 0.013159
vn -0.285898 0.0960187 0.953437
v -0.0521874 -0.0291238 -0.0101727
vn -0.954913 -0.263204 -0.13735
v -0.000924285 -0.0740581 0.0103533
vn 0.274025 -0.867929 0.414258
v 0.00552115 -0.0740435 0.00333551
vn 0.345773 -0.932301 0.106095
v 0.0145971 -0.0694968 0.00789055
vn 0.373416 -0.911938 0.170085
v 0.028466 0.0588061 0.0170138
vn 0.380677 0.362196 0.850823
v 0.0337649 0.0584098 0.0105539
vn 0.755158 0.653281 0.0544072
v 0.0275699 0.0643631 0.0128503
vn 0.702955 0.711109 -0.0133394
v -0.0587467 0.0426639 0.00315681
vn -0.960437 -0.0129345 -0.278198
v -0.0535626 0.0492981 -0.00715243
vn -0.884618 0.196921 -0.422696
v 0.0413683 0.03654 -0.0200204
vn 0.540889 0.310991 -0.781488
v -0.0497671 0.0571652 -0.00774927
vn -0.803926 0.362485 -0.471495
v 0.0162005 -0.0633493 0.0157495
vn -0.0860526 -0.354112 0.931236
v 0.0149385 -0.0692404 0.0121674
vn 0.209844 -0.664759 0.716981
v 0.0169057 -0.0646938 0.00874527
vn 0.534106 -0.645721 0.545687
v 0.017886 -0.0661055 0.0149434
vn 0.592537 -0.665174 0.45436
v -0.0177337 0.0753583 0.0125047
vn -0.0829263 0.9529 0.291727
v -0.0443608 -0.0462545 -0.0125219
vn 0.9561 0.220032 -0.193544
v 0.0306669 -0.0630411 -0.00626473
vn -0.92649 0.188141 0.325914
v 0.0305409 -0.0630814 0.00140747
vn 0.593796 -0.78658 0.169404
v -0.046225 -0.0544564 -0.0142317
vn -0.954401 -0.23574 0.183155
v 0.00371588 0.0686424 0.017307
vn 0.0372042 -0.114932 0.992676
v -0.0431914 0.0563032 -0.0177968
vn -0.652739 0.168088 -0.738701
v 0.0111702 -0.0586183 0.00510681
vn -0.153521 0.985601 0.0708655
v 0.00243078 -0.0596634 0.00360088
vn -0.0800012 0.966824 0.242591
v -0.0440606 0.0398167 0.0143554
vn -0.0703622 -0.870951 -0.486306
v -0.0500629 0.05875 -0.00778857
vn -0.843436 0.332605 -0.421888
v -0.0515961 0.0536132 -0.0123289
vn -0.724219 0.337383 -0.601398
v 0.0142416 -0.0675986 -0.0107433
vn 0.209521 -0.670548 -0.711665
v 0.0135253 0.0637049 -0.014246
vn -0.349455 -0.664926 -0.660117
v 0.0223908 0.0641021 -0.0137199
vn 0.300053 0.32825 -0.895667
v 0.0285117 0.0539281 -0.0154976
vn 0.147493 -0.343854 -0.927367
v -0.00645086 -0.0759554 0.00303056
vn 0.140196 -0.987227 0.07568
v -0.00528644 0.0749969 0.0107311
vn 0.0396757 0.93801 0.344329
v -0.00776382 0.0760221 0.00194123
vn -0.0111565 0.999003 0.0432171
v -0.00874698 -0.0606677 -0.000652541
vn -0.0125803 0.998632 0.0507568
v -0.0548962 -0.0429566 0.0129511
vn -0.907565 -0.26738 -0.323781
v -0.0501049 -0.0570605 0.0120884
vn -0.916993 -0.31076 -0.250106
v -0.0509832 -0.0507464 0.0151852
vn -0.592567 -0.227459 0.77274
v -0.0295035 -0.0562293 0.0165036
vn 0.267279 0.285795 0.920262
v 0.0233955 -0.0335529 0.00107343
vn 0.338563 0.168201 0.925788
v 0.0206303 -0.0306503 -0.00100717
vn -0.765901 0.617075 -0.180595
v -0.0453741 -0.0612409 0.0112433
vn -0.857486 -0.493061 -0.146997
v -0.02891 -0.073326 0.0119886
vn 0 0 0
v -0.0292604 -0.0750997 0.0124095
vn 0 0 0
v -0.0504804 -0.0567641 0.0147523
vn -0.494752 -0.282471 0.821846
v -0.0426957 -0.0276874 -0.00847979
vn 0 0 0
v -0.0441224 -0.0277548 -0.00916737
vn 0 0 0
v -0.0557593 0.0369087 -0.00980948
vn -0.930052 -0.214597 -0.298246
v -0.0553806 0.0375513 -0.0135766
vn -0.527167 0.841849 -0.115692
v -0.00875857 0.0644098 0.0040331
vn -0.0527108 -0.995874 -0.0738617
v -0.0502752 0.0606528 0.0113715
vn -0.746279 0.660941 -0.0788997
v -0.0541692 -0.0315319 0.00744997
vn 0.571371 0.667869 0.476955
v -0.0528863 -0.0330067 0.00146608
vn -0.952842 -0.239442 -0.186439
v -0.0409285 0.0547928 -0.0196908
vn -0.515837 -0.495498 -0.698852
v -0.0395097 0.0566834 -0.0205301
vn 0.859174 -0.320999 -0.398471
v -0.0428408 0.0629561 0.0145208
vn -0.196863 0.497952 0.844564
v 0.00412049 -0.0609443 -0.00632058
vn -0.207716 0.918526 -0.336399
v 0.0144668 -0.056272 0.00108685
vn -0.483166 0.850374 0.208361
v 0.0338412 0.0476151 -0.0199423
vn 0.14253 0.218195 -0.965441
v 0.00561626 -0.0754864 -0.00649946
vn 0.431714 -0.901961 -0.00938966
v 0.0120146 -0.0712661 -0.00608393
vn 0.400618 -0.894827 -0.196949
v -0.046224 0.0566812 0.0162622
vn -0.117228 0.0148144 0.992995
v -0.0509804 0.0589264 0.0142962
vn -0.40755 0.11382 0.906062
v -0.0524649 -0.0271828 -0.00838277
vn -0.874658 0.478076 0.0801038
v -0.0170428 -0.0742354 -0.00535398
vn -0.307123 -0.933386 -0.185653
v -0.0141867 -0.074632 -0.00777691
vn -0.257949 -0.829044 -0.496133
v -0.00865486 -0.0756149 -0.00540983
vn -0.140429 -0.968563 -0.205341
v 0.0190071 -0.0494148 0.00526494
vn -0.557681 0.650793 0.515228
v -0.042654 -0.0637633 0.00995295
vn -0.703504 -0.701624 -0.113163
v -0.00825747 -0.0609461 -0.00387073
vn -0.0866044 0.818112 -0.568501
v -0.0515355 -0.0410969 0.00256911
vn -0.920319 -0.332147 -0.206619
v -0.0414851 -0.0643779 -0.00985268
vn 0 0 0
v -0.0411207 -0.0651467 -0.0111521
vn -0.0546449 -0.542727 0.838129
v 0.0288745 -0.0652262 -0.00612058
vn -0.380544 0.822824 0.422075
v -0.0065041 0.0636528 0.00837381
vn -0.0483948 -0.998397 0.0293485
v 0.00319356 0.0639089 0.011995
vn -0.0852719 -0.956346 0.27952
v -0.00515291 0.0640964 0.0108555
vn -0.0576524 -0.992335 0.109307
v -0.00769138 0.0641119 0.00897686
vn -0.112712 -0.984741 0.132595
v -0.0517381 0.0356968 0.0140849
vn 0.174234 -0.602063 0.779206
v -0.0520698 0.0599611 0.0118921
vn -0.895291 0.436928 0.0868759
v -0.0526592 -0.0432574 0.0160611
vn -0.329626 0.101384 0.938652
v -0.0417923 -0.0464221 -0.00152888
vn 0.581904 0.81309 -0.0164822
v -0.0259972 -0.0669434 -0.0106096
vn -0.0754847 -0.441417 -0.894122
v -0.0463736 -0.0612759 0.0140655
vn 0.859519 -0.47301 0.193619
v 0.0317951 0.040104 -0.0188853
vn -0.736525 -0.365212 0.569343
v -0.00144505 0.0644863 -0.0123836
vn 0.00315597 -0.873283 -0.487203
v -0.041634 0.0559974 -0.020055
vn -0.527785 -0.470662 -0.707051
v -0.0466333 -0.0530214 -0.0144099
vn 0.599229 0.122753 0.791111
v 0.0199552 -0.0407486 0.00241134
vn -0.650894 0.318792 -0.688991
v -0.0539942 0.0363165 -0.0122377
vn -0.255957 0.71831 -0.646929
v 0.015741 -0.0582112 0.00922943
vn -0.194503 0.838648 0.50876
v 0.0199327 0.0586869 -0.00272764
vn -0.279193 -0.953689 -0.111927
v -0.0487001 -0.0547408 -0.00316232
vn -0.970449 -0.238844 0.0344016
v -0.00262957 -0.0603313 0.00459868
vn -0.120422 0.946355 0.29985
v -0.0496731 0.0327138 -0.0180315
vn -0.940429 -0.185897 0.284668
v -0.0186981 0.0747288 0.0146074
vn -0.0500572 0.509311 0.859126
v -0.0402172 -0.0630546 -0.00839831
vn -0.5735 -0.813443 -0.0969959
v 0.0206209 -0.0675102 0.00158682
vn 0.432949 -0.896499 0.0940461
v 0.0172824 0.0715619 -0.00757096
vn 0.438492 0.848509 -0.29624
v 0.0133555 0.0734114 0.00180102
vn 0.424395 0.905174 -0.0234518
v 0.0191963 0.0706579 -0.00172079
vn 0.636381 0.770538 -0.0359255
v -0.0512117 0.0608949 0.0144962
vn -0.275361 0.54522 0.791777
v -0.0569851 0.0316796 0.00543466
vn 0.392869 -0.91501 -0.0917101
v -0.0487332 -0.0502488 -0.0124319
vn 0 0 0
v 0.0316175 0.0333267 -0.0205158
vn -0.978564 -0.12541 0.163353
v 0.0114409 0.0731752 0.0116489
vn 0.189849 0.953755 0.233042
v 0.0315943 -0.0375176 -0.00677855
vn -0.857822 0.503122 -0.104926
v 0.0042449 0.0752004 0.00253306
vn 0.133966 0.990241 0.0384082
v -0.0239713 -0.0561567 0.0140944
vn 0.477131 0.683778 0.552081
v 0.0119445 0.0638019 -0.0118256
vn -0.2601 -0.935549 -0.238947
v -0.053508 -0.0272338 -0.010031
vn 0.689897 0.720756 0.0674773
v -0.0499198 -0.0298157 -0.0182596
vn 0.712786 -0.620753 -0.3265
v -0.0501398 -0.0283096 -0.020563
vn -0.969801 0.189347 0.153735
v -0.0483117 -0.0551021 -0.00651044
vn -0.800379 -0.343811 -0.491108
v 0.0271625 -0.0625678 0.00702797
vn 0.576483 -0.668648 0.469656
v 0.0201789 -0.0587624 0.0165465
vn 0.212131 -0.0916852 0.972931
v 0.0302452 -0.0592856 0.0122575
vn 0.512756 -0.601899 0.612208
v -0.050776 -0.0308045 -0.018619
vn 0.760045 -0.601854 -0.245159
v -0.0492011 0.0395748 -0.0187868
vn -0.620243 0.654619 0.432171
v 0.0313627 0.0504003 0.018628
vn 0.501293 0.170159 0.848382
v 0.0354347 0.0397206 -0.0158645
vn 0.0339773 -0.305377 0.951625
v 0.0171228 0.0722226 0.00962315
vn 0.473368 0.878337 0.0666821
v 0.00233702 -0.0752555 -0.00940284
vn -0.00687555 -0.447796 -0.894109
v 0.0178621 0.0675371 -0.0144207
vn 0.393683 0.627631 -0.671634
v -0.00782349 -0.0758348 -0.00801586
vn 0.0570244 -0.835187 -0.547002
v -0.00613972 -0.0748271 0.0119387
vn 0.00199226 -0.472296 0.881438
v -0.0456813 -0.0471384 -0.0173369
vn 0.989833 0.140734 -0.0205906
v -0.0127802 0.0655799 0.0179907
vn -0.0767446 0.188331 0.979103
v 0.0153165 -0.0554187 -0.00374378
vn -0.594006 0.742627 -0.309293
v -0.0124354 0.0653025 0.00177627
vn 0.150845 -0.984112 -0.0936478
v -0.0151176 0.0646534 0.00251579
vn 0.910562 -0.285595 0.298852
v 0.00344398 0.0630338 0.00207907
vn -0.16854 -0.984274 -0.0529148
v -0.00298481 0.0645459 -0.0110664
vn -0.262126 -0.942605 -0.206848
v -0.00707515 0.06401 0.0105799
vn -0.0750533 -0.978819 0.190474
v -0.0119018 -0.0735975 -0.0106838
vn -0.0509463 -0.562376 -0.82531
v 0.0118767 0.0711207 -0.0122904
vn 0.221703 0.605008 -0.764731
v 0.0385001 0.0427964 -0.0201187
vn 0.791063 0.486265 -0.371167
v 0.0221906 -0.0338406 -0.000284891
vn -0.710854 -0.170284 -0.682415
v 0.0264499 -0.033501 0.00277355
vn -0.1882 -0.911703 -0.36521
f 1//1 2//2 3//3
f 4//4 5//5 6//6
f 7//7 8//8 9//9
f 10//10 11//11 12//12
f 13//13 14//14 15//15
f 16//16 17//17 18//18
f 8//8 19//19 20//20
f 21//21 22//22 23//23
f 21//21 6//6 22//22
f 6//6 5//5 9//9
f 24//24 25//25 26//26
f 27//27 28//28 29//29
f 30//30 31//31 32//32
f 10//10 33//33 11//11
f 34//34 35//35 36//36
f 37//37 38//38 39//39
f 40//40 41//41 38//38
f 36//36 35//35 42//42
f 43//43 44//44 26//26
f 13//13 15//15 45//45
f 13//13 45//45 41//41
f 14//14 43//43 15//15
f 36//36 42//42 46//46
f 47//47 45//45 48//48
f 47//47 39//39 45//45
f 20//20 19//19 49//49
f 50//50 49//49 51//51
f 51//51 49//49 19//19
f 51//51 8//8 52//52
f 18//18 53//53 54//54
f 55//55 50//50 56//56
f 57//57 18//18 58//58
f 59//59 60//60 61//61
f 60//60 26//26 44//44
f 62//62 59//59 61//61
f 12//12 11//11 55//55
f 55//55 11//11 49//49
f 25//25 60//60 59//59
f 63//63 64//64 65//65
f 48//48 26//26 25//25
f 66//66 44//44 60//60
f 21//21 67//67 60//60
f 43//43 26//26 15//15
f 21//21 68//68 69//69
f 21//21 60//60 68//68
f 10//10 61//61 33//33
f 21//21 20//20 67//67
f 70//70 4//4 43//43
f 69//69 71//71 68//68
f 57//57 58//58 72//72
f 73//73 72//72 58//58
f 74//74 72//72 73//73
f 73//73 58//58 54//54
f 75//75 48//48 76//76
f 77//77 48//48 25//25
f 74//74 78//78 72//72
f 79//79 32//32 80//80
f 25//25 59//59 65//65
f 74//74 81//81 78//78
f 57//57 72//72 31//31
f 16//16 82//82 29//29
f 27//27 82//82 79//79
f 22//22 8//8 20//20
f 83//83 84//84 85//85
f 28//28 86//86 37//37
f 82//82 18//18 57//57
f 16//16 18//18 82//82
f 77//77 16//16 76//76
f 16//16 75//75 29//29
f 73//73 54//54 87//87
f 85//85 78//78 88//88
f 85//85 80//80 31//31
f 69//69 44//44 6//6
f 57//57 31//31 30//30
f 27//27 42//42 28//28
f 89//89 90//90 24//24
f 91//91 64//64 63//63
f 68//68 71//71 90//90
f 14//14 90//90 71//71
f 92//92 16//16 93//93
f 94//94 16//16 92//92
f 95//95 96//96 97//97
f 98//98 96//96 95//95
f 99//99 100//100 83//83
f 101//101 83//83 96//96
f 102//102 103//103 83//83
f 102//102 83//83 101//101
f 104//104 101//101 96//96
f 7//7 5//5 4//4
f 105//105 46//46 106//106
f 42//42 84//84 46//46
f 107//107 46//46 108//108
f 107//107 109//109 102//102
f 110//110 111//111 52//52
f 112//112 52//52 8//8
f 113//113 114//114 115//115
f 114//114 70//70 115//115
f 116//116 117//117 91//91
f 118//118 116//116 91//91
f 119//119 87//87 120//120
f 121//121 122//122 123//123
f 121//121 123//123 124//124
f 24//24 121//121 125//125
f 126//126 122//122 121//121
f 127//127 74//74 73//73
f 128//128 84//84 129//129
f 128//128 129//129 130//130
f 109//109 101//101 104//104
f 77//77 76//76 48//48
f 110//110 131//131 8//8
f 116//116 132//132 133//133
f 130//130 129//129 42//42
f 134//134 135//135 21//21
f 135//135 20//20 21//21
f 134//134 136//136 117//117
f 134//134 137//137 136//136
f 21//21 66//66 137//137
f 21//21 69//69 66//66
f 55//55 49//49 50//50
f 97//97 88//88 81//81
f 138//138 22//22 69//69
f 139//139 137//137 140//140
f 139//139 140//140 68//68
f 139//139 68//68 90//90
f 141//141 142//142 137//137
f 142//142 140//140 137//137
f 142//142 68//68 140//140
f 77//77 16//16 17//17
f 126//126 77//77 94//94
f 127//127 123//123 92//92
f 92//92 123//123 122//122
f 126//126 92//92 122//122
f 143//143 105//105 107//107
f 144//144 145//145 111//111
f 63//63 65//65 59//59
f 146//146 147//147 148//148
f 149//149 150//150 151//151
f 110//110 111//111 152//152
f 121//121 117//117 153//153
f 133//133 134//134 11//11
f 154//154 155//155 139//139
f 156//156 157//157 158//158
f 159//159 94//94 158//158
f 158//158 94//94 160//160
f 161//161 160//160 155//155
f 154//154 161//161 155//155
f 158//158 161//161 162//162
f 163//163 159//159 164//164
f 159//159 129//129 164//164
f 126//126 121//121 89//89
f 165//165 129//129 162//162
f 166//166 163//163 164//164
f 167//167 168//168 71//71
f 169//169 166//166 164//164
f 170//170 171//171 172//172
f 173//173 98//98 174//174
f 98//98 95//95 174//174
f 170//170 74//74 171//171
f 170//170 97//97 81//81
f 175//175 176//176 154//154
f 165//165 162//162 40//40
f 34//34 177//177 178//178
f 175//175 154//154 14//14
f 43//43 6//6 44//44
f 179//179 176//176 175//175
f 165//165 40//40 180//180
f 181//181 41//41 161//161
f 179//179 181//181 182//182
f 162//162 161//161 41//41
f 162//162 41//41 40//40
f 179//179 13//13 181//181
f 34//34 183//183 177//177
f 179//179 182//182 161//161
f 153//153 123//123 119//119
f 154//154 184//184 14//14
f 61//61 67//67 33//33
f 177//177 185//185 178//178
f 178//178 165//165 28//28
f 34//34 28//28 180//180
f 127//127 73//73 119//119
f 34//34 178//178 28//28
f 165//165 180//180 28//28
f 171//171 74//74 127//127
f 64//64 53//53 65//65
f 36//36 105//105 143//143
f 186//186 144//144 147//147
f 146//146 186//186 147//147
f 146//146 148//148 186//186
f 148//148 187//187 186//186
f 188//188 189//189 150//150
f 188//188 150//150 138//138
f 148//148 150//150 111//111
f 133//133 190//190 188//188
f 148//148 111//111 191//191
f 148//148 149//149 151//151
f 79//79 30//30 32//32
f 188//188 138//138 142//142
f 188//188 142//142 141//141
f 192//192 193//193 194//194
f 195//195 193//193 192//192
f 196//196 197//197 198//198
f 199//199 200//200 201//201
f 202//202 203//203 204//204
f 205//205 206//206 207//207
f 208//208 209//209 210//210
f 211//211 207//207 212//212
f 213//213 214//214 215//215
f 216//216 217//217 218//218
f 219//219 220//220 221//221
f 11//11 33//33 20//20
f 177//177 143//143 216//216
f 222//222 223//223 168//168
f 126//126 94//94 92//92
f 224//224 225//225 226//226
f 87//87 54//54 64//64
f 114//114 71//71 227//227
f 228//228 200//200 199//199
f 229//229 230//230 231//231
f 199//199 201//201 232//232
f 233//233 234//234 235//235
f 201//201 236//236 237//237
f 238//238 239//239 240//240
f 241//241 242//242 195//195
f 4//4 6//6 43//43
f 199//199 243//243 244//244
f 245//245 228//228 199//199
f 190//190 191//191 189//189
f 246//246 247//247 248//248
f 249//249 250//250 251//251
f 252//252 253//253 215//215
f 238//238 254//254 239//239
f 255//255 256//256 257//257
f 258//258 259//259 260//260
f 261//261 262//262 196//196
f 263//263 264//264 265//265
f 261//261 248//248 262//262
f 266//266 267//267 268//268
f 269//269 270//270 271//271
f 267//267 247//247 246//246
f 22//22 20//20 9//9
f 168//168 14//14 71//71
f 136//136 125//125 117//117
f 272//272 246//246 230//230
f 273//273 274//274 253//253
f 275//275 276//276 277//277
f 278//278 251//251 264//264
f 263//263 279//279 280//280
f 281//281 282//282 283//283
f 284//284 264//264 263//263
f 285//285 286//286 199//199
f 287//287 288//288 289//289
f 193//193 290//290 291//291
f 139//139 89//89 137//137
f 198//198 292//292 293//293
f 294//294 273//273 255//255
f 91//91 120//120 64//64
f 141//141 137//137 66//66
f 295//295 296//296 297//297
f 298//298 299//299 300//300
f 301//301 300//300 302//302
f 303//303 304//304 305//305
f 306//306 307//307 308//308
f 149//149 152//152 150//150
f 309//309 266//266 310//310
f 29//29 311//311 312//312
f 41//41 45//45 39//39
f 83//83 85//85 313//313
f 195//195 242//242 244//244
f 314//314 233//233 235//235
f 202//202 109//109 315//315
f 310//310 267//267 316//316
f 153//153 124//124 123//123
f 317//317 133//133 318//318
f 319//319 316//316 320//320
f 321//321 310//310 316//316
f 303//303 305//305 322//322
f 321//321 323//323 310//310
f 324//324 249//249 325//325
f 326//326 327//327 328//328
f 319//319 320//320 246//246
f 20//20 33//33 23//23
f 329//329 330//330 331//331
f 159//159 158//158 129//129
f 332//332 333//333 334//334
f 181//181 13//13 41//41
f 335//335 336//336 317//317
f 110//110 8//8 150//150
f 337//337 338//338 339//339
f 283//283 340//340 341//341
f 184//184 139//139 90//90
f 248//248 194//194 262//262
f 194//194 193//193 342//342
f 324//324 278//278 343//343
f 214//214 344//344 215//215
f 324//324 325//325 278//278
f 216//216 345//345 217//217
f 346//346 347//347 348//348
f 7//7 9//9 5//5
f 344//344 349//349 215//215
f 294//294 350//350 298//298
f 351//351 352//352 324//324
f 158//158 160//160 161//161
f 326//326 353//353 351//351
f 51//51 19//19 8//8
f 354//354 355//355 165//165
f 31//31 80//80 32//32
f 263//263 256//256 274//274
f 255//255 274//274 256//256
f 294//294 263//263 274//274
f 338//338 356//356 339//339
f 133//133 188//188 134//134
f 268//268 323//323 357//357
f 246//246 248//248 358//358
f 359//359 360//360 225//225
f 317//317 336//336 361//361
f 362//362 302//302 208//208
f 363//363 364//364 249//249
f 365//365 302//302 362//362
f 366//366 367//367 368//368
f 369//369 370//370 371//371
f 372//372 373//373 374//374
f 170//170 81//81 74//74
f 265//265 275//275 277//277
f 344//344 343//343 278//278
f 91//91 117//117 153//153
f 375//375 208//208 300//300
f 218//218 217//217 376//376
f 201//201 346//346 377//377
f 378//378 265//265 277//277
f 379//379 350//350 380//380
f 244//244 381//381 290//290
f 331//331 309//309 316//316
f 214//214 382//382 383//383
f 384//384 230//230 358//358
f 385//385 310//310 370//370
f 386//386 387//387 388//388
f 7//7 22//22 8//8
f 367//367 389//389 390//390
f 246//246 384//384 358//358
f 391//391 392//392 381//381
f 273//273 284//284 253//253
f 102//102 103//103 46//46
f 217//217 393//393 376//376
f 256//256 280//280 279//279
f 394//394 395//395 107//107
f 143//143 216//216 345//345
f 287//287 289//289 233//233
f 374//374 396//396 397//397
f 224//224 398//398 225//225
f 10//10 12//12 118//118
f 371//371 268//268 357//357
f 399//399 400//400 401//401
f 402//402 403//403 254//254
f 404//404 405//405 245//245
f 404//404 285//285 405//405
f 404//404 286//286 285//285
f 245//245 285//285 228//228
f 406//406 407//407 408//408
f 256//256 238//238 240//240
f 230//230 358//358 248//248
f 261//261 409//409 248//248
f 287//287 410//410 411//411
f 70//70 71//71 69//69
f 263//263 265//265 279//279
f 399//399 401//401 412//412
f 294//294 255//255 257//257
f 34//34 36//36 413//413
f 367//367 414//414 415//415
f 416//416 371//371 321//321
f 417//417 418//418 344//344
f 386//386 253//253 419//419
f 420//420 421//421 410//410
f 138//138 69//69 142//142
f 417//417 284//284 422//422
f 252//252 215//215 422//422
f 423//423 418//418 379//379
f 308//308 424//424 425//425
f 407//407 196//196 221//221
f 307//307 426//426 406//406
f 408//408 407//407 373//373
f 241//241 195//195 412//412
f 351//351 324//324 343//343
f 427//427 428//428 429//429
f 430//430 431//431 242//242
f 41//41 39//39 38//38
f 229//229 432//432 230//230
f 433//433 283//283 282//282
f 77//77 25//25 434//434
f 407//407 221//221 220//220
f 230//230 248//248 231//231
f 244//244 290//290 193//193
f 199//199 232//232 243//243
f 129//129 27//27 79//79
f 266//266 195//195 192//192
f 241//241 435//435 400//400
f 436//436 437//437 430//430
f 213//213 215//215 386//386
f 160//160 94//94 155//155
f 229//229 438//438 432//432
f 163//163 170//170 172//172
f 252//252 439//439 419//419
f 440//440 441//441 442//442
f 154//154 139//139 184//184
f 99//99 83//83 103//103
f 443//443 444//444 445//445
f 446//446 367//367 447//447
f 448//448 131//131 7//7
f 449//449 414//414 307//307
f 359//359 450//450 360//360
f 249//249 275//275 250//250
f 308//308 425//425 436//436
f 363//363 249//249 324//324
f 451//451 452//452 453//453
f 413//413 36//36 183//183
f 416//416 329//329 316//316
f 373//373 454//454 374//374
f 253//253 349//349 455//455
f 7//7 70//70 22//22
f 418//418 264//264 284//284
f 394//394 456//456 457//457
f 458//458 350//350 273//273
f 304//304 337//337 459//459
f 460//460 399//399 412//412
f 226//226 461//461 462//462
f 432//432 358//358 463//463
f 330//330 464//464 465//465
f 447//447 464//464 330//330
f 217//217 466//466 403//403
f 467//467 468//468 469//469
f 314//314 446//446 410//410
f 329//329 369//369 330//330
f 166//166 95//95 170//170
f 75//75 47//47 48//48
f 353//353 352//352 351//351
f 47//47 37//37 39//39
f 256//256 279//279 378//378
f 410//410 288//288 411//411
f 470//470 341//341 340//340
f 263//263 280//280 256//256
f 205//205 398//398 206//206
f 386//386 388//388 387//387
f 27//27 29//29 82//82
f 471//471 472//472 454//454
f 389//389 464//464 390//390
f 277//277 276//276 473//473
f 310//310 323//323 268//268
f 474//474 475//475 476//476
f 364//364 212//212 477//477
f 79//79 82//82 57//57
f 478//478 157//157 479//479
f 431//431 435//435 242//242
f 62//62 63//63 59//59
f 321//321 316//316 319//319
f 270//270 351//351 214//214
f 365//365 480//480 302//302
f 208//208 481//481 482//482
f 475//475 483//483 476//476
f 116//116 134//134 117//117
f 73//73 87//87 119//119
f 407//407 220//220 373//373
f 476//476 365//365 363//363
f 374//374 472//472 396//396
f 269//269 351//351 270//270
f 213//213 484//484 485//485
f 486//486 369//369 487//487
f 392//392 488//488 381//381
f 307//307 489//489 426//426
f 204//204 428//428 99//99
f 14//14 184//184 90//90
f 191//191 111//111 150//150
f 326//326 351//351 490//490
f 364//364 362//362 212//212
f 166//166 170//170 163//163
f 261//261 196//196 407//407
f 319//319 246//246 272//272
f 491//491 490//490 269//269
f 266//266 492//492 493//493
f 494//494 261//261 407//407
f 495//495 496//496 393//393
f 387//387 253//253 455//455
f 403//403 239//239 254//254
f 308//308 436//436 241//241
f 248//248 247//247 194//194
f 260//260 497//497 448//448
f 234//234 366//366 368//368
f 70//70 69//69 22//22
f 434//434 53//53 17//17
f 441//441 498//498 499//499
f 229//229 500//500 501//501
f 491//491 502//502 439//439
f 294//294 273//273 263//263
f 475//475 423//423 480//480
f 503//503 504//504 505//505
f 439//439 386//386 213//213
f 245//245 405//405 285//285
f 233//233 289//289 438//438
f 202//202 204//204 104//104
f 127//127 119//119 92//92
f 486//486 416//416 420//420
f 490//490 351//351 269//269
f 89//89 24//24 90//90
f 449//449 399//399 306//306
f 427//427 506//506 428//428
f 431//431 404//404 245//245
f 501//501 234//234 438//438
f 179//179 154//154 176//176
f 197//197 292//292 198//198
f 301//301 302//302 507//507
f 229//229 261//261 500//500
f 446//446 329//329 486//486
f 508//508 473//473 495//495
f 509//509 474//474 326//326
f 36//36 143//143 177//177
f 350//350 510//510 511//511
f 438//438 289//289 432//432
f 457//457 107//107 512//512
f 513//513 514//514 515//515
f 516//516 513//513 515//515
f 432//432 517//517 272//272
f 129//129 158//158 162//162
f 241//241 412//412 400//400
f 369//369 371//371 310//310
f 234//234 518//518 389//389
f 432//432 289//289 517//517
f 197//197 194//194 342//342
f 327//327 519//519 328//328
f 500//500 494//494 501//501
f 217//217 495//495 393//393
f 435//435 245//245 391//391
f 344//344 278//278 520//520
f 299//299 521//521 240//240
f 252//252 491//491 439//439
f 326//326 328//328 353//353
f 365//365 522//522 480//480
f 85//85 31//31 78//78
f 149//149 259//259 523//523
f 400//400 435//435 242//242
f 177//177 216//216 218//218
f 328//328 519//519 353//353
f 244//244 524//524 392//392
f 332//332 340//340 333//333
f 155//155 89//89 139//139
f 294//294 298//298 257//257
f 188//188 190//190 189//189
f 449//449 307//307 306//306
f 496//496 202//202 315//315
f 270//270 214//214 213//213
f 492//492 525//525 493//493
f 314//314 366//366 446//446
f 526//526 458//458 273//273
f 138//138 150//150 8//8
f 527//527 429//429 478//478
f 528//528 369//369 310//310
f 496//496 203//203 202//202
f 249//249 251//251 278//278
f 133//133 361//361 336//336
f 267//267 192//192 194//194
f 121//121 117//117 125//125
f 439//439 271//271 386//386
f 305//305 297//297 322//322
f 460//460 266//266 309//309
f 225//225 360//360 529//529
f 351//351 343//343 344//344
f 206//206 398//398 224//224
f 356//356 530//530 146//146
f 64//64 54//54 53//53
f 42//42 35//35 28//28
f 365//365 362//362 364//364
f 287//287 411//411 288//288
f 480//480 379//379 507//507
f 229//229 501//501 438//438
f 251//251 250//250 275//275
f 149//149 523//523 152//152
f 264//264 251//251 275//275
f 355//355 479//479 156//156
f 266//266 192//192 267//267
f 331//331 449//449 460//460
f 379//379 531//531 350//350
f 338//338 530//530 356//356
f 441//441 334//334 498//498
f 241//241 430//430 242//242
f 486//486 487//487 528//528
f 292//292 291//291 513//513
f 286//286 396//396 346//346
f 345//345 394//394 466//466
f 326//326 474//474 327//327
f 18//18 17//17 53//53
f 478//478 164//164 157//157
f 224//224 226//226 532//532
f 28//28 38//38 29//29
f 430//430 437//437 431//431
f 491//491 490//490 326//326
f 367//367 415//415 414//414
f 62//62 61//61 10//10
f 267//267 194//194 247//247
f 431//431 245//245 435//435
f 371//371 370//370 533//533
f 133//133 336//336 190//190
f 40//40 38//38 180//180
f 87//87 64//64 120//120
f 519//519 324//324 352//352
f 491//491 269//269 502//502
f 307//307 424//424 308//308
f 179//179 14//14 13//13
f 234//234 389//389 367//367
f 373//373 221//221 534//534
f 425//425 406//406 408//408
f 446//446 420//420 410//410
f 446//446 486//486 420//420
f 298//298 300//300 535//535
f 107//107 108//108 100//100
f 441//441 332//332 334//334
f 465//465 464//464 306//306
f 421//421 272//272 288//288
f 442//442 499//499 536//536
f 460//460 465//465 399//399
f 217//217 402//402 495//495
f 264//264 275//275 265//265
f 374//374 454//454 472//472
f 389//389 449//449 464//464
f 366//366 447//447 329//329
f 389//389 489//489 307//307
f 537//537 538//538 539//539
f 501//501 494//494 540//540
f 245//245 199//199 391//391
f 459//459 295//295 305//305
f 474//474 423//423 475//475
f 541//541 272//272 421//421
f 11//11 20//20 49//49
f 339//339 335//335 3//3
f 369//369 385//385 370//370
f 273//273 387//387 455//455
f 446//446 447//447 329//329
f 241//241 436//436 430//430
f 526//526 422//422 542//542
f 543//543 523//523 258//258
f 526//526 294//294 458//458
f 351//351 344//344 214//214
f 447//447 449//449 331//331
f 141//141 66//66 69//69
f 322//322 297//297 544//544
f 47//47 312//312 37//37
f 545//545 355//355 354//354
f 424//424 406//406 425//425
f 48//48 45//45 26//26
f 75//75 312//312 47//47
f 546//546 538//538 347//347
f 128//128 100//100 84//84
f 394//394 512//512 456//456
f 266//266 412//412 195//195
f 541//541 319//319 272//272
f 185//185 545//545 354//354
f 526//526 542//542 422//422
f 212//212 207//207 206//206
f 250//250 477//477 547//547
f 466//466 499//499 403//403
f 288//288 272//272 517//517
f 267//267 246//246 320//320
f 466//466 394//394 499//499
f 476//476 363//363 519//519
f 204//204 169//169 428//428
f 234//234 368//368 367//367
f 406//406 494//494 407//407
f 448//448 70//70 114//114
f 460//460 525//525 492//492
f 350//350 511//511 298//298
f 7//7 4//4 114//114
f 460//460 492//492 266//266
f 132//132 318//318 133//133
f 266//266 493//493 412//412
f 111//111 51//51 52//52
f 509//509 417//417 344//344
f 289//289 288//288 517//517
f 474//474 344//344 423//423
f 426//426 540//540 494//494
f 375//375 300//300 299//299
f 500//500 261//261 494//494
f 24//24 125//125 66//66
f 232//232 548//548 237//237
f 439//439 549//549 502//502
f 388//388 550//550 551//551
f 330//330 331//331 460//460
f 179//179 175//175 14//14
f 143//143 345//345 395//395
f 294//294 350//350 458//458
f 480//480 423//423 379//379
f 252//252 422//422 284//284
f 432//432 272//272 230//230
f 510//510 298//298 511//511
f 422//422 350//350 552//552
f 422//422 552//552 531//531
f 457//457 512//512 107//107
f 402//402 508//508 495//495
f 417//417 422//422 531//531
f 314//314 410//410 287//287
f 362//362 211//211 212//212
f 417//417 531//531 379//379
f 204//204 173//173 174//174
f 412//412 401//401 400//400
f 536//536 457//457 553//553
f 501//501 489//489 518//518
f 420//420 416//416 541//541
f 439//439 213//213 419//419
f 252//252 284//284 417//417
f 344//344 418//418 423//423
f 204//204 99//99 104//104
f 205//205 359//359 398//398
f 509//509 344//344 474//474
f 554//554 453//453 555//555
f 367//367 390//390 447//447
f 70//70 43//43 71//71
f 419//419 556//556 388//388
f 217//217 403//403 402//402
f 229//229 409//409 261//261
f 255//255 273//273 274//274
f 501//501 518//518 234//234
f 363//363 365//365 364//364
f 434//434 65//65 53//53
f 446//446 235//235 367//367
f 321//321 357//357 323//323
f 229//229 248//248 409//409
f 330//330 460//460 309//309
f 503//503 283//283 433//433
f 422//422 273//273 350//350
f 385//385 310//310 557//557
f 447//447 390//390 464//464
f 528//528 316//316 369//369
f 416//416 316//316 528//528
f 222//222 113//113 223//223
f 509//509 252//252 417//417
f 100//100 108//108 46//46
f 528//528 310//310 371//371
f 229//229 231//231 248//248
f 518//518 540//540 426//426
f 509//509 326//326 491//491
f 335//335 443//443 3//3
f 474//474 476//476 519//519
f 270//270 213//213 271//271
f 483//483 365//365 476//476
f 426//426 494//494 406//406
f 425//425 373//373 372//372
f 399//399 308//308 241//241
f 425//425 408//408 373//373
f 36//36 46//46 105//105
f 553//553 457//457 104//104
f 132//132 558//558 318//318
f 372//372 374//374 437//437
f 152//152 559//559 7//7
f 26//26 45//45 15//15
f 523//523 138//138 152//152
f 299//299 240//240 503//503
f 521//521 256//256 240//240
f 114//114 227//227 71//71
f 240//240 504//504 503//503
f 375//375 433//433 209//209
f 544//544 560//560 538//538
f 375//375 209//209 208//208
f 208//208 210//210 207//207
f 257//257 521//521 299//299
f 257//257 256//256 521//521
f 205//205 210//210 282//282
f 249//249 477//477 275//275
f 436//436 425//425 372//372
f 436//436 372//372 437//437
f 148//148 191//191 151//151
f 344//344 520//520 349//349
f 208//208 207//207 211//211
f 529//529 202//202 554//554
f 166//166 174//174 95//95
f 375//375 299//299 433//433
f 451//451 440//440 442//442
f 239//239 561//561 334//334
f 36//36 177//177 183//183
f 209//209 433//433 282//282
f 468//468 562//562 187//187
f 129//129 84//84 42//42
f 252//252 419//419 253//253
f 185//185 354//354 165//165
f 378//378 254//254 238//238
f 281//281 282//282 470//470
f 535//535 300//300 301//301
f 205//205 207//207 210//210
f 239//239 340//340 505//505
f 239//239 505//505 563//563
f 279//279 265//265 378//378
f 34//34 413//413 183//183
f 205//205 281//281 359//359
f 332//332 470//470 340//340
f 334//334 333//333 340//340
f 503//503 505//505 283//283
f 205//205 282//282 564//564
f 134//134 21//21 137//137
f 473//473 461//461 495//495
f 242//242 391//391 244//244
f 273//273 565//565 387//387
f 441//441 470//470 332//332
f 109//109 100//100 428//428
f 110//110 52//52 112//112
f 209//209 210//210 282//282
f 325//325 249//249 278//278
f 566//566 304//304 303//303
f 534//534 566//566 303//303
f 196//196 198//198 221//221
f 531//531 552//552 350//350
f 404//404 396//396 286//286
f 431//431 437//437 404//404
f 362//362 208//208 211//211
f 276//276 224//224 473//473
f 275//275 547//547 276//276
f 276//276 206//206 224//224
f 185//185 165//165 178//178
f 478//478 429//429 355//355
f 147//147 445//445 444//444
f 206//206 547//547 477//477
f 181//181 161//161 182//182
f 266//266 268//268 310//310
f 212//212 206//206 477//477
f 276//276 547//547 206//206
f 195//195 244//244 193//193
f 218//218 567//567 427//427
f 197//197 291//291 292//292
f 191//191 150//150 189//189
f 197//197 342//342 291//291
f 91//91 153//153 120//120
f 269//269 271//271 502//502
f 291//291 568//568 569//569
f 373//373 219//219 221//221
f 440//440 282//282 470//470
f 377//377 548//548 236//236
f 392//392 237//237 488//488
f 513//513 488//488 570//570
f 392//392 524//524 571//571
f 243//243 232//232 524//524
f 193//193 291//291 342//342
f 303//303 322//322 471//471
f 290//290 381//381 568//568
f 529//529 554//554 202//202
f 403//403 499//499 333//333
f 386//386 215//215 253//253
f 300//300 208//208 302//302
f 381//381 488//488 568//568
f 317//317 361//361 133//133
f 509//509 491//491 252//252
f 541//541 416//416 319//319
f 391//391 244//244 392//392
f 278//278 264//264 520//520
f 243//243 524//524 244//244
f 339//339 356//356 335//335
f 130//130 42//42 27//27
f 159//159 172//172 94//94
f 416//416 528//528 329//329
f 292//292 516//516 572//572
f 314//314 287//287 233//233
f 572//572 515//515 514//514
f 171//171 92//92 172//172
f 239//239 573//573 240//240
f 471//471 546//546 472//472
f 417//417 379//379 418//418
f 303//303 471//471 454//454
f 163//163 172//172 159//159
f 554//554 555//555 173//173
f 239//239 563//563 573//573
f 291//291 290//290 568//568
f 504//504 340//340 505//505
f 574//574 348//348 537//537
f 179//179 161//161 154//154
f 359//359 225//225 398//398
f 103//103 106//106 46//46
f 34//34 180//180 35//35
f 116//116 12//12 132//132
f 396//396 546//546 347//347
f 299//299 503//503 433//433
f 346//346 348//348 574//574
f 97//97 85//85 88//88
f 443//443 56//56 444//444
f 340//340 573//573 563//563
f 396//396 347//347 346//346
f 377//377 346//346 574//574
f 286//286 346//346 200//200
f 153//153 119//119 120//120
f 286//286 200//200 228//228
f 440//440 359//359 281//281
f 404//404 397//397 396//396
f 147//147 444//444 50//50
f 545//545 128//128 130//130
f 291//291 488//488 513//513
f 379//379 301//301 507//507
f 566//566 293//293 304//304
f 96//96 313//313 97//97
f 336//336 191//191 190//190
f 513//513 570//570 514//514
f 246//246 230//230 384//384
f 516//516 572//572 488//488
f 473//473 462//462 461//461
f 221//221 566//566 534//534
f 473//473 224//224 532//532
f 402//402 254//254 508//508
f 226//226 462//462 532//532
f 473//473 532//532 462//462
f 107//107 102//102 46//46
f 467//467 377//377 468//468
f 348//348 538//538 537//537
f 109//109 104//104 99//99
f 226//226 529//529 461//461
f 304//304 459//459 305//305
f 403//403 561//561 239//239
f 205//205 564//564 281//281
f 440//440 470//470 441//441
f 270//270 383//383 382//382
f 225//225 529//529 226//226
f 534//534 303//303 454//454
f 329//329 331//331 316//316
f 471//471 322//322 546//546
f 293//293 572//572 514//514
f 337//337 293//293 514//514
f 304//304 293//293 337//337
f 79//79 57//57 30//30
f 232//232 237//237 392//392
f 570//570 338//338 514//514
f 570//570 530//530 338//338
f 307//307 406//406 424//424
f 1//1 3//3 2//2
f 396//396 472//472 546//546
f 544//544 296//296 1//1
f 295//295 3//3 296//296
f 546//546 322//322 544//544
f 546//546 544//544 538//538
f 136//136 66//66 125//125
f 147//147 51//51 111//111
f 348//348 347//347 538//538
f 350//350 535//535 301//301
f 538//538 186//186 539//539
f 62//62 10//10 118//118
f 538//538 560//560 1//1
f 305//305 295//295 297//297
f 403//403 333//333 561//561
f 202//202 553//553 104//104
f 437//437 397//397 404//404
f 554//554 450//450 453//453
f 451//451 450//450 359//359
f 495//495 461//461 496//496
f 292//292 513//513 572//572
f 202//202 453//453 452//452
f 168//168 227//227 14//14
f 345//345 395//395 394//394
f 529//529 203//203 506//506
f 442//442 441//441 499//499
f 31//31 72//72 78//78
f 62//62 118//118 63//63
f 427//427 429//429 545//545
f 452//452 536//536 553//553
f 442//442 536//536 452//452
f 499//499 394//394 536//536
f 376//376 393//393 567//567
f 218//218 376//376 567//567
f 177//177 218//218 185//185
f 232//232 201//201 377//377
f 386//386 419//419 550//550
f 297//297 296//296 544//544
f 221//221 198//198 566//566
f 337//337 339//339 295//295
f 459//459 337//337 295//295
f 333//333 499//499 498//498
f 451//451 359//359 440//440
f 208//208 482//482 481//481
f 240//240 573//573 504//504
f 28//28 37//37 86//86
f 232//232 236//236 467//467
f 60//60 67//67 61//61
f 544//544 1//1 560//560
f 232//232 467//467 548//548
f 337//337 514//514 338//338
f 467//467 469//469 148//148
f 67//67 23//23 33//33
f 237//237 548//548 530//530
f 451//451 452//452 529//529
f 202//202 555//555 453//453
f 496//496 506//506 427//427
f 496//496 427//427 567//567
f 506//506 527//527 429//429
f 558//558 56//56 443//443
f 55//55 56//56 558//558
f 12//12 558//558 132//132
f 12//12 55//55 558//558
f 118//118 12//12 116//116
f 118//118 91//91 63//63
f 339//339 3//3 295//295
f 164//164 129//129 79//79
f 345//345 466//466 217//217
f 497//497 131//131 575//575
f 18//18 54//54 58//58
f 155//155 126//126 89//89
f 427//427 545//545 185//185
f 95//95 97//97 170//170
f 218//218 427//427 185//185
f 148//148 468//468 110//110
f 437//437 374//374 397//397
f 68//68 44//44 66//66
f 81//81 88//88 78//78
f 148//148 469//469 468//468
f 518//518 489//489 389//389
f 538//538 1//1 186//186
f 451//451 450//450 529//529
f 85//85 84//84 80//80
f 188//188 135//135 134//134
f 506//506 315//315 428//428
f 496//496 315//315 506//506
f 298//298 535//535 255//255
f 360//360 554//554 204//204
f 56//56 50//50 444//444
f 529//529 360//360 204//204
f 237//237 530//530 570//570
f 165//165 355//355 129//129
f 576//576 355//355 429//429
f 478//478 479//479 576//576
f 156//156 479//479 157//157
f 467//467 148//148 548//548
f 530//530 548//548 148//148
f 356//356 336//336 335//335
f 356//356 146//146 336//336
f 146//146 191//191 336//336
f 541//541 421//421 410//410
f 146//146 151//151 191//191
f 377//377 574//574 562//562
f 262//262 197//197 196//196
f 429//429 128//128 545//545
f 256//256 378//378 238//238
f 537//537 539//539 187//187
f 574//574 537//537 562//562
f 488//488 237//237 570//570
f 144//144 445//445 147//147
f 186//186 187//187 539//539
f 147//147 50//50 51//51
f 144//144 111//111 145//145
f 186//186 1//1 445//445
f 186//186 445//445 144//144
f 543//543 258//258 113//113
f 260//260 448//448 114//114
f 213//213 485//485 484//484
f 113//113 258//258 260//260
f 523//523 259//259 258//258
f 222//222 523//523 543//543
f 149//149 469//469 259//259
f 460//460 449//449 465//465
f 468//468 187//187 145//145
f 537//537 187//187 562//562
f 353//353 519//519 352//352
f 143//143 456//456 107//107
f 555//555 98//98 173//173
f 555//555 104//104 96//96
f 204//204 174//174 166//166
f 68//68 66//66 60//60
f 429//429 128//128 164//164
f 260//260 259//259 497//497
f 497//497 575//575 448//448
f 469//469 110//110 152//152
f 434//434 25//25 65//65
f 113//113 260//260 114//114
f 536//536 394//394 457//457
f 504//504 573//573 340//340
f 222//222 115//115 559//559
f 83//83 313//313 96//96
f 465//465 306//306 399//399
f 555//555 96//96 98//98
f 202//202 452//452 553//553
f 109//109 102//102 101//101
f 97//97 313//313 85//85
f 416//416 321//321 319//319
f 239//239 334//334 340//340
f 109//109 428//428 100//100
f 298//298 257//257 299//299
f 545//545 129//129 355//355
f 478//478 355//355 156//156
f 478//478 164//164 577//577
f 201//201 200//200 346//346
f 223//223 113//113 167//167
f 222//222 543//543 113//113
f 575//575 131//131 448//448
f 152//152 138//138 559//559
f 378//378 508//508 254//254
f 366//366 329//329 367//367
f 113//113 115//115 167//167
f 167//167 115//115 168//168
f 222//222 168//168 115//115
f 115//115 70//70 559//559
f 7//7 559//559 70//70
f 262//262 194//194 197//197
f 131//131 152//152 7//7
f 222//222 559//559 523//523
f 523//523 559//559 138//138
