# https://github.com/mikedh/trimesh
v 0.62561364 0.01036903 1.47209171
v 0.62787087 0.01234801 1.47209171
v 0.62561364 0.01234801 1.47020737
v 0.62561364 0.01029874 1.47509171
v 0.62778859 0.01234801 1.47509171
v 0.62561364 0.01041076 1.47809171
v 0.62806603 0.01234801 1.47809171
v 0.62561364 0.01234801 1.48040775
v 0.62561364 0.01523723 1.46909171
v 0.62651296 0.01534801 1.46909171
v 0.62561364 0.01534801 1.46902302
v 0.62861364 0.01534801 1.46920160
v 0.62861364 0.01292070 1.47209171
v 0.62861364 0.01302564 1.47509171
v 0.62861364 0.01262321 1.47809171
v 0.62861364 0.01534801 1.48091327
v 0.62561364 0.01534801 1.48071458
v 0.62677769 0.01834801 1.46909171
v 0.62561364 0.01834801 1.46749058
v 0.62861364 0.01834801 1.47001597
v 0.62561364 0.01834801 1.48073772
v 0.62861364 0.01834801 1.48076178
v 0.62561364 0.01978680 1.46909171
v 0.62561364 0.02097276 1.47209171
v 0.62861364 0.02134801 1.47041422
v 0.62680796 0.02134801 1.47209171
v 0.62561364 0.02134801 1.47254945
v 0.62561364 0.02134801 1.48040012
v 0.62861364 0.02134801 1.48067382
v 0.62861364 0.02226216 1.47209171
v 0.62561364 0.02351801 1.47509171
v 0.62861364 0.02347210 1.47509171
v 0.62561364 0.02405667 1.47809171
v 0.62861364 0.02384961 1.47809171
v 0.63161364 0.01345774 1.47209171
v 0.63161364 0.01534801 1.46954071
v 0.63161364 0.01362639 1.47509171
v 0.63161364 0.01422870 1.47809171
v 0.63161364 0.01534801 1.47974580
v 0.63161364 0.01834801 1.46939091
v 0.63161364 0.01834801 1.48055056
v 0.63161364 0.02038393 1.47209171
v 0.62938294 0.02134801 1.47209171
v 0.63161364 0.02134801 1.47366451
v 0.63161364 0.02134801 1.47995354
v 0.63161364 0.02301929 1.47509171
v 0.63161364 0.02344902 1.47809171
v 0.63358247 0.01534801 1.47209171
v 0.63413555 0.01534801 1.47509171
v 0.63320989 0.01534801 1.47809171
v 0.63395411 0.01834801 1.47209171
v 0.63399116 0.01834801 1.47509171
v 0.63439309 0.01834801 1.47809171
v 0.63313178 0.02134801 1.47509171
v 0.63363356 0.02134801 1.47809171
v 0.63300096 0.02734801 1.47509171
v 0.63461364 0.02591375 1.47509171
v 0.63461364 0.02734801 1.47282701
v 0.63278630 0.02734801 1.47809171
v 0.63461364 0.02506384 1.47809171
v 0.63226440 0.02734801 1.48109171
v 0.63461364 0.02522132 1.48109171
v 0.63461364 0.02734801 1.48330308
v 0.63370827 0.03034801 1.47509171
v 0.63461364 0.03034801 1.47417363
v 0.63224437 0.03034801 1.47809171
v 0.63252231 0.03034801 1.48109171
v 0.63461364 0.03034801 1.48348180
v 0.63461364 0.03112783 1.47509171
v 0.63461364 0.03220849 1.47809171
v 0.63461364 0.03290536 1.48109171
v 0.63448225 0.03634801 1.47209171
v 0.63461364 0.03606271 1.47209171
v 0.63461364 0.03634801 1.47179187
v 0.63461364 0.03634801 1.47241586
v 0.63461364 0.03658366 1.47209171
v 0.63574886 0.02734801 1.47209171
v 0.63761364 0.02587675 1.47209171
v 0.63761364 0.02734801 1.47139176
v 0.63761364 0.02574011 1.47509171
v 0.63761364 0.02488764 1.47809171
v 0.63761364 0.02474981 1.48109171
v 0.63761364 0.02734801 1.48319394
v 0.63761364 0.02857515 1.47209171
v 0.63761364 0.03034801 1.47267426
v 0.63761364 0.03034801 1.48342880
v 0.63761364 0.03258178 1.47509171
v 0.63761364 0.03256712 1.47809171
v 0.63500683 0.03334801 1.48109171
v 0.63761364 0.03334801 1.47899262
v 0.63761364 0.03334801 1.48333543
v 0.63500920 0.03634801 1.47209171
v 0.63761364 0.03584396 1.48109171
v 0.64061364 0.02589181 1.47209171
v 0.64061364 0.02734801 1.47127863
v 0.64061364 0.02476859 1.47509171
v 0.64061364 0.02478854 1.47809171
v 0.63956435 0.02734801 1.48109171
v 0.64061364 0.02734801 1.48034369
v 0.64061364 0.02858652 1.47209171
v 0.64061364 0.03034801 1.47265509
v 0.64061364 0.02991819 1.48109171
v 0.64061364 0.03034801 1.48154694
v 0.63907645 0.03334801 1.47509171
v 0.64061364 0.03334801 1.47243473
v 0.63823282 0.03334801 1.47809171
v 0.64061364 0.03334801 1.48320178
v 0.64061364 0.03517092 1.47509171
v 0.64061364 0.03578905 1.47809171
v 0.63985599 0.03634801 1.48109171
v 0.64061364 0.03634801 1.48063286
v 0.64061364 0.03634801 1.48150992
v 0.64061364 0.03677154 1.48109171
v 0.64354502 0.00634801 1.47809171
v 0.64361364 0.00627113 1.47809171
v 0.64361364 0.00634801 1.47801458
v 0.64361364 0.00634801 1.47816951
v 0.64361364 0.00640353 1.47809171
v 0.64213938 0.01834801 1.47209171
v 0.64361364 0.01713453 1.47209171
v 0.64361364 0.01834801 1.47094172
v 0.64119356 0.01834801 1.47509171
v 0.64361364 0.01582872 1.47509171
v 0.64103882 0.01834801 1.47809171
v 0.64361364 0.01581647 1.47809171
v 0.64361364 0.01834801 1.48094185
v 0.64262874 0.02134801 1.47209171
v 0.64361364 0.02134801 1.47091132
v 0.64242619 0.02134801 1.47509171
v 0.64138295 0.02134801 1.47809171
v 0.64361364 0.02134801 1.48069368
v 0.64164772 0.02434801 1.47209171
v 0.64361364 0.02434801 1.47022622
v 0.64102525 0.02434801 1.47509171
v 0.64111266 0.02434801 1.47809171
v 0.64361364 0.02434801 1.48068606
v 0.64361364 0.02734801 1.47164665
v 0.64235852 0.02734801 1.48109171
v 0.64361364 0.02543048 1.48109171
v 0.64361364 0.02734801 1.48253691
v 0.64277799 0.03034801 1.47209171
v 0.64361364 0.03034801 1.47162527
v 0.64361364 0.03034801 1.48293443
v 0.64361364 0.03153260 1.47209171
v 0.64361364 0.03334801 1.47257467
v 0.64361364 0.03334801 1.48343157
v 0.64361364 0.03553794 1.47509171
v 0.64361364 0.03603078 1.47809171
v 0.64361364 0.03634801 1.48095787
v 0.64361364 0.03634801 1.48121966
v 0.64361364 0.03640272 1.48109171
v 0.64379655 0.00634801 1.47809171
v 0.64555266 0.01534801 1.47209171
v 0.64661364 0.01407449 1.47209171
v 0.64661364 0.01534801 1.47082031
v 0.64418250 0.01534801 1.47509171
v 0.64661364 0.01290646 1.47509171
v 0.64427063 0.01534801 1.47809171
v 0.64661364 0.01304948 1.47809171
v 0.64661364 0.01534801 1.48083188
v 0.64661364 0.01834801 1.47090984
v 0.64661364 0.01834801 1.48088921
v 0.64661364 0.01995698 1.47209171
v 0.64466403 0.02134801 1.47209171
v 0.64661364 0.02134801 1.47292775
v 0.64661364 0.02134801 1.48027500
v 0.64566579 0.02434801 1.47209171
v 0.64661364 0.02344335 1.47509171
v 0.64583205 0.02434801 1.47509171
v 0.64661364 0.02434801 1.47764649
v 0.64661364 0.02434801 1.47919346
v 0.64661364 0.02703531 1.47209171
v 0.64661364 0.02734801 1.47199254
v 0.64661364 0.02530033 1.47509171
v 0.64661364 0.02493817 1.48109171
v 0.64661364 0.02734801 1.48300965
v 0.64661364 0.03034801 1.47176971
v 0.64661364 0.03034801 1.48362380
v 0.64661364 0.03082504 1.47209171
v 0.64661364 0.03334801 1.47428830
v 0.64661364 0.03334801 1.48366955
v 0.64661364 0.03390394 1.47509171
v 0.64661364 0.03592774 1.47809171
v 0.64661364 0.03592506 1.48109171
v 0.64373347 0.03634801 1.48109171
v 0.64961364 0.01366166 1.47209171
v 0.64961364 0.01534801 1.47040459
v 0.64961364 0.01328338 1.47509171
v 0.64961364 0.01342524 1.47809171
v 0.64961364 0.01534801 1.48078558
v 0.64961364 0.01834801 1.47104033
v 0.64961364 0.01834801 1.48070587
v 0.64815618 0.02134801 1.47209171
v 0.64961364 0.02134801 1.47049943
v 0.64961364 0.02134801 1.48044012
v 0.64961364 0.02317444 1.47209171
v 0.64961364 0.02321546 1.47509171
v 0.64961364 0.02434801 1.47731516
v 0.64961364 0.02434801 1.47909941
v 0.64675025 0.02734801 1.47209171
v 0.64832874 0.02734801 1.47509171
v 0.64961364 0.02539438 1.47809171
v 0.64864431 0.02734801 1.47809171
v 0.64801358 0.02734801 1.48109171
v 0.64706458 0.03034801 1.47209171
v 0.64850896 0.03034801 1.47509171
v 0.64933994 0.03034801 1.47809171
v 0.64902793 0.03034801 1.48109171
v 0.64732091 0.03334801 1.47509171
v 0.64908777 0.03334801 1.47809171
v 0.64911932 0.03334801 1.48109171
v 0.65261364 0.01375482 1.47209171
v 0.65261364 0.01534801 1.47021254
v 0.65261364 0.01281623 1.47509171
v 0.65261364 0.01297145 1.47809171
v 0.65261364 0.01534801 1.48058110
v 0.65261364 0.01834801 1.47022884
v 0.65261364 0.01834801 1.48027788
v 0.65261364 0.02032229 1.47209171
v 0.65089056 0.02134801 1.47209171
v 0.65261364 0.02134801 1.47351964
v 0.65261364 0.02134801 1.48021392
v 0.65261364 0.02244323 1.47509171
v 0.65261364 0.02366995 1.47809171
v 0.65042752 0.02434801 1.47809171
v 0.65561364 0.01299201 1.47209171
v 0.65561364 0.01534801 1.47040473
v 0.65561364 0.01235750 1.47509171
v 0.65561364 0.01255114 1.47809171
v 0.65561364 0.01534801 1.48103083
v 0.65561364 0.01757106 1.47209171
v 0.65501145 0.01834801 1.47209171
v 0.65561364 0.01834801 1.47293464
v 0.65561364 0.01834801 1.48095003
v 0.65561364 0.01966657 1.47509171
v 0.65384678 0.02134801 1.47509171
v 0.65561364 0.02134577 1.47809171
v 0.65560978 0.02134801 1.47809171
v 0.65831402 0.00634801 1.47809171
v 0.65861364 0.00571811 1.47809171
v 0.65861364 0.00634801 1.47763084
v 0.65861364 0.00634801 1.47868421
v 0.65861364 0.00681272 1.47809171
v 0.65861364 0.01435913 1.47209171
v 0.65861364 0.01534801 1.47101979
v 0.65861364 0.01313813 1.47509171
v 0.65861364 0.01304057 1.47809171
v 0.65861364 0.01534801 1.48089534
v 0.65669397 0.01834801 1.47209171
v 0.65861364 0.01834801 1.47069422
v 0.65861364 0.01834801 1.48085501
v 0.65861364 0.01961030 1.47209171
v 0.65861364 0.02113206 1.47509171
v 0.65561841 0.02134801 1.47809171
v 0.65861364 0.02134801 1.47543425
v 0.65861364 0.02134801 1.48078416
v 0.65847880 0.02134801 1.48409171
v 0.65861364 0.02119223 1.48409171
v 0.65861364 0.02134801 1.48373594
v 0.65861364 0.02134801 1.48425640
v 0.65861364 0.02360845 1.47809171
v 0.65861364 0.02142378 1.48409171
v 0.65927750 0.00634801 1.47809171
v 0.66161364 0.01503311 1.47209171
v 0.66161364 0.01534801 1.47158524
v 0.66161364 0.01478361 1.47509171
v 0.66161364 0.01328417 1.47809171
v 0.66161364 0.01534801 1.47990920
v 0.66161364 0.01610431 1.47209171
v 0.66083676 0.01834801 1.47209171
v 0.66161364 0.01834801 1.47235177
v 0.66161364 0.01834801 1.48098821
v 0.66161364 0.02134801 1.47465245
v 0.66119181 0.02134801 1.47509171
v 0.66161364 0.02134801 1.48067046
v 0.65871711 0.02134801 1.48409171
v 0.66161364 0.02151217 1.47509171
v 0.66161364 0.02351663 1.47809171
f 3 2 1
f 5 4 1
f 5 1 2
f 7 6 4
f 7 4 5
f 7 8 6
f 11 10 9
f 10 12 9
f 9 12 3
f 12 13 3
f 13 2 3
f 2 13 5
f 5 13 14
f 5 14 7
f 7 14 15
f 8 7 15
f 16 8 15
f 17 8 16
f 19 18 10
f 19 10 11
f 12 10 20
f 20 10 18
f 16 21 17
f 22 21 16
f 23 18 19
f 23 24 18
f 24 25 18
f 25 20 18
f 24 26 25
f 27 26 24
f 22 28 21
f 29 28 22
f 30 25 26
f 30 26 27
f 31 30 27
f 32 30 31
f 34 31 33
f 34 32 31
f 33 28 29
f 33 29 34
f 36 35 13
f 36 13 12
f 13 37 14
f 35 37 13
f 14 38 15
f 37 38 14
f 16 15 38
f 16 38 39
f 20 36 12
f 20 40 36
f 39 22 16
f 41 22 39
f 25 43 42
f 40 25 42
f 20 25 40
f 43 44 42
f 41 29 22
f 45 29 41
f 30 43 25
f 46 44 43
f 30 46 43
f 32 46 30
f 47 32 34
f 47 46 32
f 34 29 45
f 34 45 47
f 36 48 35
f 49 37 35
f 49 35 48
f 50 38 37
f 50 37 49
f 50 39 38
f 40 51 48
f 40 48 36
f 48 52 49
f 48 51 52
f 49 53 50
f 49 52 53
f 53 41 39
f 53 39 50
f 42 51 40
f 51 42 44
f 54 51 44
f 52 51 54
f 52 55 53
f 52 54 55
f 55 45 41
f 55 41 53
f 46 54 44
f 54 46 47
f 54 47 55
f 55 47 45
f 58 57 56
f 60 59 56
f 60 56 57
f 62 61 59
f 62 59 60
f 63 61 62
f 58 56 64
f 58 64 65
f 66 56 59
f 64 56 66
f 67 59 61
f 66 59 67
f 61 63 68
f 61 68 67
f 69 65 64
f 69 64 66
f 69 66 70
f 70 66 67
f 70 67 71
f 71 67 68
f 74 73 72
f 75 72 73
f 76 74 72
f 76 72 75
f 79 78 77
f 57 58 77
f 78 57 77
f 80 57 78
f 57 81 60
f 80 81 57
f 60 82 62
f 81 82 60
f 63 62 82
f 63 82 83
f 84 79 77
f 77 58 84
f 58 85 84
f 58 65 85
f 83 68 63
f 86 68 83
f 87 85 65
f 87 65 69
f 88 69 70
f 88 87 69
f 90 88 89
f 88 71 89
f 88 70 71
f 91 89 71
f 68 91 71
f 86 91 68
f 74 92 73
f 92 75 73
f 93 90 89
f 93 89 91
f 76 92 74
f 92 76 75
f 95 94 78
f 95 78 79
f 78 96 80
f 94 96 78
f 80 97 81
f 96 97 80
f 97 99 98
f 82 97 98
f 81 97 82
f 98 83 82
f 100 95 79
f 100 79 84
f 84 85 100
f 100 85 101
f 99 102 98
f 83 98 102
f 103 83 102
f 86 83 103
f 85 87 104
f 105 85 104
f 101 85 105
f 88 106 87
f 87 106 104
f 90 106 88
f 103 91 86
f 107 91 103
f 108 105 104
f 108 104 106
f 108 106 109
f 111 109 110
f 110 109 93
f 109 106 93
f 106 90 93
f 112 110 93
f 91 112 93
f 107 112 91
f 113 111 110
f 113 110 112
f 116 115 114
f 117 114 115
f 118 116 114
f 118 114 117
f 121 120 119
f 123 122 119
f 123 119 120
f 125 124 122
f 125 122 123
f 126 124 125
f 121 119 127
f 121 127 128
f 129 119 122
f 127 119 129
f 130 122 124
f 129 122 130
f 124 126 131
f 124 131 130
f 128 127 132
f 128 132 133
f 134 127 129
f 132 127 134
f 135 129 130
f 134 129 135
f 130 131 136
f 130 136 135
f 133 132 94
f 95 133 94
f 137 133 95
f 94 132 96
f 96 132 134
f 96 134 97
f 97 134 135
f 139 138 99
f 139 99 97
f 136 139 97
f 135 136 97
f 140 138 139
f 95 100 141
f 142 95 141
f 137 95 142
f 101 141 100
f 138 102 99
f 103 102 138
f 140 103 138
f 143 103 140
f 144 142 141
f 141 101 144
f 101 145 144
f 101 105 145
f 143 107 103
f 146 107 143
f 147 145 105
f 147 105 108
f 148 108 109
f 148 147 108
f 109 111 148
f 148 111 149
f 146 112 107
f 150 112 146
f 151 149 111
f 151 111 113
f 113 112 150
f 113 150 151
f 116 152 115
f 152 117 115
f 118 152 116
f 152 118 117
f 155 154 153
f 157 156 153
f 157 153 154
f 159 158 156
f 159 156 157
f 160 158 159
f 155 153 120
f 121 155 120
f 161 155 121
f 120 153 123
f 123 153 156
f 123 156 125
f 125 156 158
f 126 125 158
f 160 126 158
f 162 126 160
f 128 164 163
f 161 128 163
f 121 128 161
f 164 165 163
f 162 131 126
f 166 131 162
f 133 167 164
f 133 164 128
f 165 164 168
f 164 169 168
f 164 167 169
f 169 170 168
f 166 136 131
f 171 136 166
f 173 172 167
f 133 173 167
f 137 173 133
f 167 172 169
f 169 172 174
f 169 174 170
f 171 175 136
f 136 175 139
f 140 139 175
f 140 175 176
f 142 173 137
f 142 177 173
f 176 143 140
f 178 143 176
f 179 177 142
f 179 142 144
f 144 145 179
f 179 145 180
f 178 146 143
f 181 146 178
f 182 180 145
f 182 145 147
f 183 147 148
f 183 182 147
f 185 184 149
f 184 148 149
f 184 183 148
f 181 184 185
f 150 181 185
f 146 181 150
f 151 185 149
f 185 151 150
f 187 186 154
f 187 154 155
f 154 188 157
f 186 188 154
f 157 189 159
f 188 189 157
f 160 159 189
f 160 189 190
f 161 187 155
f 161 191 187
f 190 162 160
f 192 162 190
f 161 163 193
f 194 161 193
f 191 161 194
f 165 193 163
f 192 166 162
f 195 166 192
f 196 194 193
f 196 193 165
f 168 196 165
f 197 196 168
f 168 170 197
f 197 170 198
f 195 171 166
f 199 171 195
f 173 200 172
f 201 174 172
f 201 172 200
f 198 170 202
f 170 201 202
f 201 203 202
f 170 174 201
f 203 204 175
f 199 203 175
f 171 199 175
f 203 199 202
f 204 176 175
f 177 205 200
f 177 200 173
f 200 206 201
f 200 205 206
f 201 207 203
f 201 206 207
f 203 208 204
f 203 207 208
f 208 178 176
f 208 176 204
f 179 205 177
f 205 179 180
f 209 205 180
f 206 205 209
f 206 210 207
f 206 209 210
f 207 211 208
f 207 210 211
f 211 181 178
f 211 178 208
f 182 209 180
f 209 182 183
f 209 183 210
f 210 183 184
f 210 184 211
f 211 184 181
f 213 212 186
f 213 186 187
f 186 214 188
f 212 214 186
f 188 215 189
f 214 215 188
f 190 189 215
f 190 215 216
f 191 213 187
f 191 217 213
f 216 192 190
f 218 192 216
f 194 220 219
f 217 194 219
f 191 194 217
f 220 221 219
f 218 195 192
f 222 195 218
f 196 220 194
f 223 221 220
f 196 223 220
f 197 223 196
f 225 224 198
f 224 197 198
f 224 223 197
f 222 224 225
f 199 222 225
f 195 222 199
f 202 225 198
f 225 202 199
f 227 226 212
f 227 212 213
f 212 228 214
f 226 228 212
f 214 229 215
f 228 229 214
f 216 215 229
f 216 229 230
f 217 232 231
f 227 217 231
f 213 217 227
f 232 233 231
f 230 218 216
f 234 218 230
f 219 232 217
f 236 235 221
f 221 235 219
f 235 233 219
f 233 232 219
f 238 237 236
f 236 237 235
f 234 237 238
f 222 234 238
f 218 234 222
f 223 236 221
f 236 223 224
f 236 224 238
f 238 224 222
f 241 240 239
f 242 239 240
f 243 241 239
f 243 239 242
f 245 244 226
f 245 226 227
f 226 246 228
f 244 246 226
f 228 247 229
f 246 247 228
f 230 229 247
f 230 247 248
f 227 231 249
f 250 227 249
f 245 227 250
f 233 249 231
f 248 234 230
f 251 234 248
f 252 250 249
f 252 249 233
f 235 252 233
f 253 252 235
f 255 253 254
f 253 237 254
f 253 235 237
f 256 254 237
f 234 256 237
f 251 256 234
f 259 258 257
f 260 257 258
f 261 255 254
f 261 254 256
f 262 259 257
f 262 257 260
f 241 263 240
f 263 242 240
f 243 263 241
f 263 243 242
f 265 264 244
f 265 244 245
f 244 266 246
f 264 266 244
f 246 267 247
f 266 267 246
f 248 247 267
f 248 267 268
f 250 270 269
f 265 250 269
f 245 250 265
f 270 271 269
f 268 251 248
f 272 251 268
f 252 270 250
f 252 253 270
f 253 273 270
f 273 271 270
f 253 274 273
f 255 274 253
f 272 256 251
f 275 256 272
f 259 276 258
f 276 260 258
f 277 273 274
f 277 274 255
f 261 277 255
f 278 277 261
f 261 256 275
f 261 275 278
f 262 276 259
f 276 262 260

