# https://github.com/mikedh/trimesh
v -0.92566383 -0.57772022 0.11504272
v -0.81380099 -0.47964674 0.11504272
v -0.92566383 -0.47964674 0.02165991
v -0.92566383 -0.58120334 0.26371509
v -0.81787878 -0.47964674 0.26371509
v -0.92566383 -0.57565188 0.41238743
v -0.80412942 -0.47964674 0.41238743
v -0.92566383 -0.47964674 0.52716452
v -0.92566383 -0.33646467 -0.03362965
v -0.88109547 -0.33097437 -0.03362965
v -0.92566383 -0.33097437 -0.03703348
v -0.77699149 -0.33097437 -0.02818383
v -0.77699149 -0.45126596 0.11504272
v -0.77699149 -0.44606537 0.26371509
v -0.77699149 -0.46600860 0.41238743
v -0.77699149 -0.33097437 0.55221695
v -0.92566383 -0.33097437 0.54237014
v -0.86797613 -0.18230201 -0.03362965
v -0.92566383 -0.18230201 -0.11297729
v -0.77699149 -0.18230201 0.01217450
v -0.92566383 -0.18230201 0.54351729
v -0.77699149 -0.18230201 0.54470944
v -0.92566383 -0.11099932 -0.03362965
v -0.92566383 -0.05222645 0.11504272
v -0.77699149 -0.03362965 0.03191083
v -0.86647618 -0.03362965 0.11504272
v -0.92566383 -0.03362965 0.13772719
v -0.92566383 -0.03362965 0.52678651
v -0.77699149 -0.03362965 0.54035014
v -0.77699149 0.01167321 0.11504272
v -0.92566383 0.07391003 0.26371509
v -0.77699149 0.07163473 0.26371509
v -0.92566383 0.10060453 0.41238743
v -0.77699149 0.09034327 0.41238743
v -0.62831908 -0.42465156 0.11504272
v -0.62831908 -0.33097437 -0.01137812
v -0.62831908 -0.41629386 0.26371509
v -0.62831908 -0.38644463 0.41238743
v -0.62831908 -0.33097437 0.49435988
v -0.62831908 -0.18230201 -0.01880206
v -0.62831908 -0.18230201 0.53424203
v -0.62831908 -0.08140723 0.11504272
v -0.73886681 -0.03362965 0.11504272
v -0.62831908 -0.03362965 0.19298683
v -0.62831908 -0.03362965 0.50465500
v -0.62831908 0.04919449 0.26371509
v -0.62831908 0.07049110 0.41238743
v -0.53074884 -0.33097437 0.11504272
v -0.50333953 -0.33097437 0.26371509
v -0.54921293 -0.33097437 0.41238743
v -0.51233131 -0.18230201 0.11504272
v -0.51049525 -0.18230201 0.26371509
v -0.49057648 -0.18230201 0.41238743
v -0.55308396 -0.03362965 0.26371509
v -0.52821702 -0.03362965 0.41238743
v -0.55956709 0.26371509 0.26371509
v -0.47964674 0.19263668 0.26371509
v -0.47964674 0.26371509 0.15148239
v -0.57020479 0.26371509 0.41238743
v -0.47964674 0.15051746 0.41238743
v -0.59606892 0.26371509 0.56105977
v -0.47964674 0.15832166 0.56105977
v -0.47964674 0.26371509 0.67064995
v -0.52451438 0.41238743 0.26371509
v -0.47964674 0.41238743 0.21821733
v -0.59706169 0.41238743 0.41238743
v -0.58328772 0.41238743 0.56105977
v -0.47964674 0.41238743 0.67950660
v -0.47964674 0.45103335 0.26371509
v -0.47964674 0.50458795 0.41238743
v -0.47964674 0.53912282 0.56105977
v -0.48615786 0.70973217 0.11504272
v -0.47964674 0.69559306 0.11504272
v -0.47964674 0.70973217 0.10018336
v -0.47964674 0.70973217 0.13110696
v -0.47964674 0.72141016 0.11504272
v -0.42338783 0.26371509 0.11504272
v -0.33097437 0.19080298 0.11504272
v -0.33097437 0.26371509 0.08035529
v -0.33097437 0.18403147 0.26371509
v -0.33097437 0.14178549 0.41238743
v -0.33097437 0.13495485 0.56105977
v -0.33097437 0.26371509 0.66524088
v -0.33097437 0.32452893 0.11504272
v -0.33097437 0.41238743 0.14391255
v -0.33097437 0.41238743 0.67688012
v -0.33097437 0.52308720 0.26371509
v -0.33097437 0.52236074 0.41238743
v -0.46016133 0.56105977 0.56105977
v -0.33097437 0.56105977 0.45703426
v -0.33097437 0.56105977 0.67225271
v -0.46004349 0.70973217 0.11504272
v -0.33097437 0.68475235 0.56105977
v -0.18230201 0.19154948 0.11504272
v -0.18230201 0.26371509 0.07474876
v -0.18230201 0.13588525 0.26371509
v -0.18230201 0.13687435 0.41238743
v -0.23430188 0.26371509 0.56105977
v -0.18230201 0.26371509 0.52398998
v -0.18230201 0.32509226 0.11504272
v -0.18230201 0.41238743 0.14296259
v -0.18230201 0.39108652 0.56105977
v -0.18230201 0.41238743 0.58361989
v -0.25848126 0.56105977 0.26371509
v -0.18230201 0.56105977 0.13204196
v -0.30028939 0.56105977 0.41238743
v -0.18230201 0.56105977 0.66562951
v -0.18230201 0.65139866 0.26371509
v -0.18230201 0.68203145 0.41238743
v -0.21984902 0.70973217 0.56105977
v -0.18230201 0.70973217 0.53832030
v -0.18230201 0.70973217 0.58178538
v -0.18230201 0.73072100 0.56105977
v -0.03703036 -0.77699149 0.41238743
v -0.03362965 -0.78080171 0.41238743
v -0.03362965 -0.77699149 0.40856519
v -0.03362965 -0.77699149 0.41624314
v -0.03362965 -0.77424014 0.41238743
v -0.10669019 -0.18230201 0.11504272
v -0.03362965 -0.24243914 0.11504272
v -0.03362965 -0.18230201 0.05805237
v -0.15356268 -0.18230201 0.26371509
v -0.03362965 -0.30715194 0.26371509
v -0.16123106 -0.18230201 0.41238743
v -0.03362965 -0.30775884 0.41238743
v -0.03362965 -0.18230201 0.55363321
v -0.08243878 -0.03362965 0.11504272
v -0.03362965 -0.03362965 0.05654583
v -0.09247667 -0.03362965 0.26371509
v -0.14417680 -0.03362965 0.41238743
v -0.03362965 -0.03362965 0.54133451
v -0.13105552 0.11504272 0.11504272
v -0.03362965 0.11504272 0.02259378
v -0.16190362 0.11504272 0.26371509
v -0.15757151 0.11504272 0.41238743
v -0.03362965 0.11504272 0.54095680
v -0.03362965 0.26371509 0.09298657
v -0.09583031 0.26371509 0.56105977
v -0.03362965 0.16868687 0.56105977
v -0.03362965 0.26371509 0.63268054
v -0.07504229 0.41238743 0.11504272
v -0.03362965 0.41238743 0.09192707
v -0.03362965 0.41238743 0.65238053
v -0.03362965 0.47109237 0.11504272
v -0.03362965 0.56105977 0.13897730
v -0.03362965 0.56105977 0.67701727
v -0.03362965 0.66958714 0.26371509
v -0.03362965 0.69401091 0.41238743
v -0.03362965 0.70973217 0.55442709
v -0.03362965 0.70973217 0.56740099
v -0.03362965 0.71244353 0.56105977
v -0.02456491 -0.77699149 0.41238743
v 0.06246344 -0.33097437 0.11504272
v 0.11504272 -0.39408708 0.11504272
v 0.11504272 -0.33097437 0.05203544
v -0.00543818 -0.33097437 0.26371509
v 0.11504272 -0.45197132 0.26371509
v -0.00107078 -0.33097437 0.41238743
v 0.11504272 -0.44488382 0.41238743
v 0.11504272 -0.33097437 0.54818362
v 0.11504272 -0.18230201 0.05647239
v 0.11504272 -0.18230201 0.55102456
v 0.11504272 -0.10256559 0.11504272
v 0.01842502 -0.03362965 0.11504272
v 0.11504272 -0.03362965 0.15647492
v 0.11504272 -0.03362965 0.52058572
v 0.06806984 0.11504272 0.11504272
v 0.11504272 0.07021008 0.26371509
v 0.07630924 0.11504272 0.26371509
v 0.11504272 0.11504272 0.39032370
v 0.11504272 0.11504272 0.46698743
v 0.11504272 0.24821840 0.11504272
v 0.11504272 0.26371509 0.11012809
v 0.11504272 0.16223706 0.26371509
v 0.11504272 0.14428942 0.56105977
v 0.11504272 0.26371509 0.65610808
v 0.11504272 0.41238743 0.09908538
v 0.11504272 0.41238743 0.68654406
v 0.11504272 0.43602753 0.11504272
v 0.11504272 0.56105977 0.22390001
v 0.11504272 0.56105977 0.68881106
v 0.11504272 0.58861035 0.26371509
v 0.11504272 0.68890452 0.41238743
v 0.11504272 0.68877178 0.56105977
v -0.02769106 0.70973217 0.56105977
v 0.26371509 -0.41454580 0.11504272
v 0.26371509 -0.33097437 0.03143344
v 0.26371509 -0.43329212 0.26371509
v 0.26371509 -0.42626220 0.41238743
v 0.26371509 -0.33097437 0.54588908
v 0.26371509 -0.18230201 0.06293892
v 0.26371509 -0.18230201 0.54193866
v 0.19148709 -0.03362965 0.11504272
v 0.26371509 -0.03362965 0.03613354
v 0.26371509 -0.03362965 0.52876866
v 0.26371509 0.05688321 0.11504272
v 0.26371509 0.05891619 0.26371509
v 0.26371509 0.11504272 0.37390372
v 0.26371509 0.11504272 0.46232638
v 0.12181302 0.26371509 0.11504272
v 0.20003872 0.26371509 0.26371509
v 0.26371509 0.16689782 0.41238743
v 0.21567760 0.26371509 0.41238743
v 0.18442047 0.26371509 0.56105977
v 0.13739002 0.41238743 0.11504272
v 0.20897011 0.41238743 0.26371509
v 0.25015128 0.41238743 0.41238743
v 0.23468906 0.41238743 0.56105977
v 0.15009324 0.56105977 0.26371509
v 0.23765442 0.56105977 0.41238743
v 0.23921774 0.56105977 0.56105977
v 0.41238743 -0.40992892 0.11504272
v 0.41238743 -0.33097437 0.02191605
v 0.41238743 -0.45644304 0.26371509
v 0.41238743 -0.44875100 0.41238743
v 0.41238743 -0.33097437 0.53575546
v 0.41238743 -0.18230201 0.02272394
v 0.41238743 -0.18230201 0.52072835
v 0.41238743 -0.08446191 0.11504272
v 0.32699585 -0.03362965 0.11504272
v 0.41238743 -0.03362965 0.18580741
v 0.41238743 -0.03362965 0.51755875
v 0.41238743 0.02064658 0.26371509
v 0.41238743 0.08143945 0.41238743
v 0.30404922 0.11504272 0.41238743
v 0.56105977 -0.44773167 0.11504272
v 0.56105977 -0.33097437 0.03144060
v 0.56105977 -0.47917661 0.26371509
v 0.56105977 -0.46958047 0.41238743
v 0.56105977 -0.33097437 0.55804276
v 0.56105977 -0.22080600 0.11504272
v 0.53121686 -0.18230201 0.11504272
v 0.56105977 -0.18230201 0.15681620
v 0.56105977 -0.18230201 0.55403876
v 0.56105977 -0.11695769 0.26371509
v 0.47349906 -0.03362965 0.26371509
v 0.56105977 -0.03374095 0.41238743
v 0.56086838 -0.03362965 0.41238743
v 0.69488370 -0.77699149 0.41238743
v 0.70973217 -0.80820769 0.41238743
v 0.70973217 -0.77699149 0.38954815
v 0.70973217 -0.77699149 0.44175026
v 0.70973217 -0.75396180 0.41238743
v 0.70973217 -0.37998065 0.11504272
v 0.70973217 -0.33097437 0.06192119
v 0.70973217 -0.44049039 0.26371509
v 0.70973217 -0.44532540 0.41238743
v 0.70973217 -0.33097437 0.55132854
v 0.61459851 -0.18230201 0.11504272
v 0.70973217 -0.18230201 0.04578697
v 0.70973217 -0.18230201 0.54932952
v 0.70973217 -0.11974639 0.11504272
v 0.70973217 -0.04433186 0.26371509
v 0.56129628 -0.03362965 0.41238743
v 0.70973217 -0.03362965 0.28069070
v 0.70973217 -0.03362965 0.54581875
v 0.70304984 -0.03362965 0.70973217
v 0.70973217 -0.04135006 0.70973217
v 0.70973217 -0.03362965 0.69210106
v 0.70973217 -0.03362965 0.71789402
v 0.70973217 0.07839200 0.41238743
v 0.70973217 -0.02987504 0.70973217
v 0.74263167 -0.77699149 0.41238743
v 0.85840452 -0.34658018 0.11504272
v 0.85840452 -0.33097437 0.08994322
v 0.85840452 -0.35894483 0.26371509
v 0.85840452 -0.43325302 0.41238743
v 0.85840452 -0.33097437 0.50245792
v 0.85840452 -0.29349422 0.11504272
v 0.81990451 -0.18230201 0.11504272
v 0.85840452 -0.18230201 0.12793069
v 0.85840452 -0.18230201 0.55593085
v 0.85840452 -0.03362965 0.24194653
v 0.83749986 -0.03362965 0.26371509
v 0.85840452 -0.03362965 0.54018366
v 0.71485996 -0.03362965 0.70973217
v 0.85840452 -0.02549431 0.26371509
v 0.85840452 0.07384147 0.41238743
f 3 2 1
f 5 4 1
f 5 1 2
f 7 6 4
f 7 4 5
f 7 8 6
f 11 10 9
f 10 12 9
f 9 12 3
f 12 13 3
f 13 2 3
f 2 13 5
f 5 13 14
f 5 14 7
f 7 14 15
f 8 7 15
f 16 8 15
f 17 8 16
f 19 18 10
f 19 10 11
f 12 10 20
f 20 10 18
f 16 21 17
f 22 21 16
f 23 18 19
f 23 24 18
f 24 25 18
f 25 20 18
f 24 26 25
f 27 26 24
f 22 28 21
f 29 28 22
f 30 25 26
f 30 26 27
f 31 30 27
f 32 30 31
f 34 31 33
f 34 32 31
f 33 28 29
f 33 29 34
f 36 35 13
f 36 13 12
f 13 37 14
f 35 37 13
f 14 38 15
f 37 38 14
f 16 15 38
f 16 38 39
f 20 36 12
f 20 40 36
f 39 22 16
f 41 22 39
f 25 43 42
f 40 25 42
f 20 25 40
f 43 44 42
f 41 29 22
f 45 29 41
f 30 43 25
f 46 44 43
f 30 46 43
f 32 46 30
f 47 32 34
f 47 46 32
f 34 29 45
f 34 45 47
f 36 48 35
f 49 37 35
f 49 35 48
f 50 38 37
f 50 37 49
f 50 39 38
f 40 51 48
f 40 48 36
f 48 52 49
f 48 51 52
f 49 53 50
f 49 52 53
f 53 41 39
f 53 39 50
f 42 51 40
f 51 42 44
f 54 51 44
f 52 51 54
f 52 55 53
f 52 54 55
f 55 45 41
f 55 41 53
f 46 54 44
f 54 46 47
f 54 47 55
f 55 47 45
f 58 57 56
f 60 59 56
f 60 56 57
f 62 61 59
f 62 59 60
f 63 61 62
f 58 56 64
f 58 64 65
f 66 56 59
f 64 56 66
f 67 59 61
f 66 59 67
f 61 63 68
f 61 68 67
f 69 65 64
f 69 64 66
f 69 66 70
f 70 66 67
f 70 67 71
f 71 67 68
f 74 73 72
f 75 72 73
f 76 74 72
f 76 72 75
f 79 78 77
f 57 58 77
f 78 57 77
f 80 57 78
f 57 81 60
f 80 81 57
f 60 82 62
f 81 82 60
f 63 62 82
f 63 82 83
f 84 79 77
f 77 58 84
f 58 85 84
f 58 65 85
f 83 68 63
f 86 68 83
f 87 85 65
f 87 65 69
f 88 69 70
f 88 87 69
f 90 88 89
f 88 71 89
f 88 70 71
f 91 89 71
f 68 91 71
f 86 91 68
f 74 92 73
f 92 75 73
f 93 90 89
f 93 89 91
f 76 92 74
f 92 76 75
f 95 94 78
f 95 78 79
f 78 96 80
f 94 96 78
f 80 97 81
f 96 97 80
f 97 99 98
f 82 97 98
f 81 97 82
f 98 83 82
f 100 95 79
f 100 79 84
f 84 85 100
f 100 85 101
f 99 102 98
f 83 98 102
f 103 83 102
f 86 83 103
f 85 87 104
f 105 85 104
f 101 85 105
f 88 106 87
f 87 106 104
f 90 106 88
f 103 91 86
f 107 91 103
f 108 105 104
f 108 104 106
f 108 106 109
f 111 109 110
f 110 109 93
f 109 106 93
f 106 90 93
f 112 110 93
f 91 112 93
f 107 112 91
f 113 111 110
f 113 110 112
f 116 115 114
f 117 114 115
f 118 116 114
f 118 114 117
f 121 120 119
f 123 122 119
f 123 119 120
f 125 124 122
f 125 122 123
f 126 124 125
f 121 119 127
f 121 127 128
f 129 119 122
f 127 119 129
f 130 122 124
f 129 122 130
f 124 126 131
f 124 131 130
f 128 127 132
f 128 132 133
f 134 127 129
f 132 127 134
f 135 129 130
f 134 129 135
f 130 131 136
f 130 136 135
f 133 132 94
f 95 133 94
f 137 133 95
f 94 132 96
f 96 132 134
f 96 134 97
f 97 134 135
f 139 138 99
f 139 99 97
f 136 139 97
f 135 136 97
f 140 138 139
f 95 100 141
f 142 95 141
f 137 95 142
f 101 141 100
f 138 102 99
f 103 102 138
f 140 103 138
f 143 103 140
f 144 142 141
f 141 101 144
f 101 145 144
f 101 105 145
f 143 107 103
f 146 107 143
f 147 145 105
f 147 105 108
f 148 108 109
f 148 147 108
f 109 111 148
f 148 111 149
f 146 112 107
f 150 112 146
f 151 149 111
f 151 111 113
f 113 112 150
f 113 150 151
f 116 152 115
f 152 117 115
f 118 152 116
f 152 118 117
f 155 154 153
f 157 156 153
f 157 153 154
f 159 158 156
f 159 156 157
f 160 158 159
f 155 153 120
f 121 155 120
f 161 155 121
f 120 153 123
f 123 153 156
f 123 156 125
f 125 156 158
f 126 125 158
f 160 126 158
f 162 126 160
f 128 164 163
f 161 128 163
f 121 128 161
f 164 165 163
f 162 131 126
f 166 131 162
f 133 167 164
f 133 164 128
f 165 164 168
f 164 169 168
f 164 167 169
f 169 170 168
f 166 136 131
f 171 136 166
f 173 172 167
f 133 173 167
f 137 173 133
f 167 172 169
f 169 172 174
f 169 174 170
f 171 175 136
f 136 175 139
f 140 139 175
f 140 175 176
f 142 173 137
f 142 177 173
f 176 143 140
f 178 143 176
f 179 177 142
f 179 142 144
f 144 145 179
f 179 145 180
f 178 146 143
f 181 146 178
f 182 180 145
f 182 145 147
f 183 147 148
f 183 182 147
f 185 184 149
f 184 148 149
f 184 183 148
f 181 184 185
f 150 181 185
f 146 181 150
f 151 185 149
f 185 151 150
f 187 186 154
f 187 154 155
f 154 188 157
f 186 188 154
f 157 189 159
f 188 189 157
f 160 159 189
f 160 189 190
f 161 187 155
f 161 191 187
f 190 162 160
f 192 162 190
f 161 163 193
f 194 161 193
f 191 161 194
f 165 193 163
f 192 166 162
f 195 166 192
f 196 194 193
f 196 193 165
f 168 196 165
f 197 196 168
f 168 170 197
f 197 170 198
f 195 171 166
f 199 171 195
f 173 200 172
f 201 174 172
f 201 172 200
f 198 170 202
f 170 201 202
f 201 203 202
f 170 174 201
f 203 204 175
f 199 203 175
f 171 199 175
f 203 199 202
f 204 176 175
f 177 205 200
f 177 200 173
f 200 206 201
f 200 205 206
f 201 207 203
f 201 206 207
f 203 208 204
f 203 207 208
f 208 178 176
f 208 176 204
f 179 205 177
f 205 179 180
f 209 205 180
f 206 205 209
f 206 210 207
f 206 209 210
f 207 211 208
f 207 210 211
f 211 181 178
f 211 178 208
f 182 209 180
f 209 182 183
f 209 183 210
f 210 183 184
f 210 184 211
f 211 184 181
f 213 212 186
f 213 186 187
f 186 214 188
f 212 214 186
f 188 215 189
f 214 215 188
f 190 189 215
f 190 215 216
f 191 213 187
f 191 217 213
f 216 192 190
f 218 192 216
f 194 220 219
f 217 194 219
f 191 194 217
f 220 221 219
f 218 195 192
f 222 195 218
f 196 220 194
f 223 221 220
f 196 223 220
f 197 223 196
f 225 224 198
f 224 197 198
f 224 223 197
f 222 224 225
f 199 222 225
f 195 222 199
f 202 225 198
f 225 202 199
f 227 226 212
f 227 212 213
f 212 228 214
f 226 228 212
f 214 229 215
f 228 229 214
f 216 215 229
f 216 229 230
f 217 232 231
f 227 217 231
f 213 217 227
f 232 233 231
f 230 218 216
f 234 218 230
f 219 232 217
f 236 235 221
f 221 235 219
f 235 233 219
f 233 232 219
f 238 237 236
f 236 237 235
f 234 237 238
f 222 234 238
f 218 234 222
f 223 236 221
f 236 223 224
f 236 224 238
f 238 224 222
f 241 240 239
f 242 239 240
f 243 241 239
f 243 239 242
f 245 244 226
f 245 226 227
f 226 246 228
f 244 246 226
f 228 247 229
f 246 247 228
f 230 229 247
f 230 247 248
f 227 231 249
f 250 227 249
f 245 227 250
f 233 249 231
f 248 234 230
f 251 234 248
f 252 250 249
f 252 249 233
f 235 252 233
f 253 252 235
f 255 253 254
f 253 237 254
f 253 235 237
f 256 254 237
f 234 256 237
f 251 256 234
f 259 258 257
f 260 257 258
f 261 255 254
f 261 254 256
f 262 259 257
f 262 257 260
f 241 263 240
f 263 242 240
f 243 263 241
f 263 243 242
f 265 264 244
f 265 244 245
f 244 266 246
f 264 266 244
f 246 267 247
f 266 267 246
f 248 247 267
f 248 267 268
f 250 270 269
f 265 250 269
f 245 250 265
f 270 271 269
f 268 251 248
f 272 251 268
f 252 270 250
f 252 253 270
f 253 273 270
f 273 271 270
f 253 274 273
f 255 274 253
f 272 256 251
f 275 256 272
f 259 276 258
f 276 260 258
f 277 273 274
f 277 274 255
f 261 277 255
f 278 277 261
f 261 256 275
f 261 275 278
f 262 276 259
f 276 262 260

