# https://github.com/mikedh/trimesh
v -0.00864301 0.07500017 -0.01750001
v -0.00864301 0.07500017 -0.01750001
v -0.00864301 0.00864257 -0.01750001
v -0.00864301 0.00864257 -0.01750001
v -0.00864301 0.00864257 0.01749999
v -0.00864301 0.00864257 0.01749999
v -0.00864301 0.07500017 0.01749999
v -0.00864301 0.07500017 0.01749999
v -0.07500001 0.00864257 -0.01750001
v -0.07500001 0.00864257 -0.01750001
v -0.07500001 0.00864257 0.01749999
v -0.07500001 0.00864257 0.01749999
v -0.07250001 0.00614257 0.01999999
v -0.00614301 0.00614257 0.01999999
v -0.00663001 0.00663027 0.01995199
v -0.00663001 0.00663027 0.01995199
v -0.07298801 0.00663027 0.01995199
v -0.07298801 0.00663027 0.01995199
v -0.00709901 0.00709927 0.01980969
v -0.00709901 0.00709927 0.01980969
v -0.00753101 0.00753147 0.01957869
v -0.00753101 0.00753147 0.01957869
v -0.07388901 0.00753147 0.01957869
v -0.07388901 0.00753147 0.01957869
v -0.07345701 0.00709927 0.01980969
v -0.07345701 0.00709927 0.01980969
v -0.00791001 0.00791027 0.01926779
v -0.00791001 0.00791027 0.01926779
v -0.00822101 0.00822117 0.01888889
v -0.00822101 0.00822117 0.01888889
v -0.07457901 0.00822117 0.01888889
v -0.07457901 0.00822117 0.01888889
v -0.07426801 0.00791027 0.01926779
v -0.07426801 0.00791027 0.01926779
v -0.00834701 0.00834737 0.01867849
v -0.00834701 0.00834737 0.01867849
v -0.07481001 0.00845227 0.01845669
v -0.07481001 0.00845227 0.01845669
v -0.07470501 0.00834737 0.01867849
v -0.07470501 0.00834737 0.01867849
v -0.00853501 0.00853487 0.01822569
v -0.00853501 0.00853487 0.01822569
v -0.07489201 0.00853487 0.01822569
v -0.07489201 0.00853487 0.01822569
v -0.07495201 0.00859447 0.01798769
v -0.07495201 0.00859447 0.01798769
v -0.00845201 0.00845227 0.01845669
v -0.00845201 0.00845227 0.01845669
v -0.00859501 0.00859447 0.01798769
v -0.00859501 0.00859447 0.01798769
v -0.00863101 0.00863047 0.01774499
v -0.00863101 0.00863047 0.01774499
v -0.07498801 0.00863047 0.01774499
v -0.07498801 0.00863047 0.01774499
v -0.07298801 -0.00663033 0.01995199
v -0.07298801 -0.00663033 0.01995199
v -0.07250001 -0.00614263 0.01999999
v -0.07345701 -0.00709933 0.01980969
v -0.07345701 -0.00709933 0.01980969
v -0.07388901 -0.00753153 0.01957869
v -0.07388901 -0.00753153 0.01957869
v -0.07426801 -0.00791043 0.01926779
v -0.07426801 -0.00791043 0.01926779
v -0.07457901 -0.00822133 0.01888889
v -0.07457901 -0.00822133 0.01888889
v -0.07470501 -0.00834743 0.01867849
v -0.07470501 -0.00834743 0.01867849
v -0.07481001 -0.00845233 0.01845669
v -0.07481001 -0.00845233 0.01845669
v -0.07489201 -0.00853503 0.01822569
v -0.07489201 -0.00853503 0.01822569
v -0.07495201 -0.00859463 0.01798769
v -0.07495201 -0.00859463 0.01798769
v -0.07498801 -0.00863063 0.01774499
v -0.07498801 -0.00863063 0.01774499
v -0.07500001 -0.00864263 0.01749999
v -0.07500001 -0.00864263 0.01749999
v -0.00614301 0.07250017 0.01999999
v -0.00663001 0.07298817 0.01995199
v -0.00663001 0.07298817 0.01995199
v -0.00709901 0.07345617 0.01980969
v -0.00709901 0.07345617 0.01980969
v -0.00753101 0.07388917 0.01957869
v -0.00753101 0.07388917 0.01957869
v -0.00791001 0.07426817 0.01926779
v -0.00791001 0.07426817 0.01926779
v -0.00822101 0.07457817 0.01888889
v -0.00822101 0.07457817 0.01888889
v -0.00834701 0.07470517 0.01867849
v -0.00834701 0.07470517 0.01867849
v -0.00845201 0.07480917 0.01845669
v -0.00845201 0.07480917 0.01845669
v -0.00853501 0.07489217 0.01822569
v -0.00853501 0.07489217 0.01822569
v -0.00859501 0.07495217 0.01798769
v -0.00859501 0.07495217 0.01798769
v -0.00863101 0.07498817 0.01774499
v -0.00863101 0.07498817 0.01774499
v 0.00662999 0.07298817 0.01995199
v 0.00662999 0.07298817 0.01995199
v 0.00753199 0.07388917 0.01957869
v 0.00753199 0.07388917 0.01957869
v 0.00822099 0.07457817 0.01888889
v 0.00822099 0.07457817 0.01888889
v 0.00834699 0.07470517 0.01867849
v 0.00834699 0.07470517 0.01867849
v 0.00853499 0.07489217 0.01822569
v 0.00853499 0.07489217 0.01822569
v 0.00845199 0.07480917 0.01845669
v 0.00845199 0.07480917 0.01845669
v 0.00859499 0.07495217 0.01798769
v 0.00859499 0.07495217 0.01798769
v 0.00863099 0.07498817 0.01774499
v 0.00863099 0.07498817 0.01774499
v 0.00864299 0.07500017 0.01749999
v 0.00864299 0.07500017 0.01749999
v 0.00790999 0.07426817 0.01926779
v 0.00790999 0.07426817 0.01926779
v 0.00709899 0.07345617 0.01980969
v 0.00709899 0.07345617 0.01980969
v 0.00614299 0.07250017 0.01999999
v -0.07500001 -0.00864263 -0.01750001
v -0.07500001 -0.00864263 -0.01750001
v -0.00864301 -0.00864263 0.01749999
v -0.00864301 -0.00864263 0.01749999
v -0.00863101 -0.00863063 0.01774499
v -0.00863101 -0.00863063 0.01774499
v -0.00859501 -0.00859463 0.01798769
v -0.00859501 -0.00859463 0.01798769
v -0.00853501 -0.00853503 0.01822569
v -0.00853501 -0.00853503 0.01822569
v -0.00845201 -0.00845233 0.01845669
v -0.00845201 -0.00845233 0.01845669
v -0.00834701 -0.00834743 0.01867849
v -0.00834701 -0.00834743 0.01867849
v -0.00822101 -0.00822133 0.01888889
v -0.00822101 -0.00822133 0.01888889
v -0.00791001 -0.00791043 0.01926779
v -0.00791001 -0.00791043 0.01926779
v -0.00753101 -0.00753153 0.01957869
v -0.00753101 -0.00753153 0.01957869
v -0.00709901 -0.00709933 0.01980969
v -0.00709901 -0.00709933 0.01980969
v -0.00663001 -0.00663033 0.01995199
v -0.00663001 -0.00663033 0.01995199
v -0.00614301 -0.00614263 0.01999999
v -0.00863101 0.00863047 -0.01774505
v -0.00863101 0.00863047 -0.01774505
v -0.07495201 0.00859447 -0.01798774
v -0.07495201 0.00859447 -0.01798774
v -0.07498801 0.00863047 -0.01774505
v -0.07498801 0.00863047 -0.01774505
v -0.00859501 0.00859447 -0.01798774
v -0.00859501 0.00859447 -0.01798774
v -0.00853501 0.00853487 -0.01822572
v -0.00853501 0.00853487 -0.01822572
v -0.07481001 0.00845227 -0.01845672
v -0.07481001 0.00845227 -0.01845672
v -0.07489201 0.00853487 -0.01822572
v -0.07489201 0.00853487 -0.01822572
v -0.00845201 0.00845227 -0.01845672
v -0.00845201 0.00845227 -0.01845672
v -0.00834701 0.00834737 -0.01867850
v -0.00834701 0.00834737 -0.01867850
v -0.07457901 0.00822117 -0.01888894
v -0.07457901 0.00822117 -0.01888894
v -0.07470501 0.00834737 -0.01867850
v -0.07470501 0.00834737 -0.01867850
v -0.00822101 0.00822117 -0.01888894
v -0.00822101 0.00822117 -0.01888894
v -0.00791001 0.00791027 -0.01926777
v -0.00791001 0.00791027 -0.01926777
v -0.07426801 0.00791027 -0.01926777
v -0.07426801 0.00791027 -0.01926777
v -0.07388901 0.00753147 -0.01957868
v -0.07388901 0.00753147 -0.01957868
v -0.00753101 0.00753147 -0.01957868
v -0.00753101 0.00753147 -0.01957868
v -0.00709901 0.00709927 -0.01980970
v -0.00709901 0.00709927 -0.01980970
v -0.07345701 0.00709927 -0.01980970
v -0.07345701 0.00709927 -0.01980970
v -0.07298801 0.00663027 -0.01995197
v -0.07298801 0.00663027 -0.01995197
v -0.00663001 0.00663027 -0.01995197
v -0.00663001 0.00663027 -0.01995197
v -0.00614301 0.00614257 -0.02000001
v -0.07250001 0.00614257 -0.02000001
v -0.07298801 -0.00663033 -0.01995197
v -0.07298801 -0.00663033 -0.01995197
v -0.07345701 -0.00709933 -0.01980970
v -0.07345701 -0.00709933 -0.01980970
v -0.07388901 -0.00753153 -0.01957868
v -0.07388901 -0.00753153 -0.01957868
v -0.07426801 -0.00791043 -0.01926777
v -0.07426801 -0.00791043 -0.01926777
v -0.07470501 -0.00834743 -0.01867850
v -0.07470501 -0.00834743 -0.01867850
v -0.07457901 -0.00822133 -0.01888894
v -0.07457901 -0.00822133 -0.01888894
v -0.07481001 -0.00845233 -0.01845672
v -0.07481001 -0.00845233 -0.01845672
v -0.07489201 -0.00853503 -0.01822572
v -0.07489201 -0.00853503 -0.01822572
v -0.07498801 -0.00863063 -0.01774505
v -0.07498801 -0.00863063 -0.01774505
v -0.07495201 -0.00859463 -0.01798774
v -0.07495201 -0.00859463 -0.01798774
v -0.07250001 -0.00614263 -0.02000001
v -0.00864301 -0.00864263 -0.01750001
v -0.00864301 -0.00864263 -0.01750001
v -0.00859501 -0.07495202 0.01798769
v -0.00859501 -0.07495202 0.01798769
v -0.00864301 -0.07500005 0.01749999
v -0.00864301 -0.07500005 0.01749999
v -0.00863101 -0.07498802 0.01774499
v -0.00863101 -0.07498802 0.01774499
v -0.00853501 -0.07489240 0.01822569
v -0.00853501 -0.07489240 0.01822569
v -0.00845201 -0.07480975 0.01845669
v -0.00845201 -0.07480975 0.01845669
v -0.00834701 -0.07470486 0.01867849
v -0.00834701 -0.07470486 0.01867849
v -0.00822101 -0.07457873 0.01888889
v -0.00822101 -0.07457873 0.01888889
v -0.00791001 -0.07426782 0.01926779
v -0.00791001 -0.07426782 0.01926779
v -0.00753101 -0.07388898 0.01957869
v -0.00753101 -0.07388898 0.01957869
v -0.00709901 -0.07345676 0.01980969
v -0.00709901 -0.07345676 0.01980969
v -0.00663001 -0.07298778 0.01995199
v -0.00663001 -0.07298778 0.01995199
v -0.00614301 -0.07250005 0.01999999
v -0.00663001 -0.00663033 -0.01995197
v -0.00663001 -0.00663033 -0.01995197
v -0.00709901 -0.00709933 -0.01980970
v -0.00709901 -0.00709933 -0.01980970
v -0.00753101 -0.00753153 -0.01957868
v -0.00753101 -0.00753153 -0.01957868
v -0.00791001 -0.00791043 -0.01926777
v -0.00791001 -0.00791043 -0.01926777
v -0.00822101 -0.00822133 -0.01888894
v -0.00822101 -0.00822133 -0.01888894
v -0.00834701 -0.00834743 -0.01867850
v -0.00834701 -0.00834743 -0.01867850
v -0.00853501 -0.00853503 -0.01822572
v -0.00853501 -0.00853503 -0.01822572
v -0.00845201 -0.00845233 -0.01845672
v -0.00845201 -0.00845233 -0.01845672
v -0.00859501 -0.00859463 -0.01798774
v -0.00859501 -0.00859463 -0.01798774
v -0.00863101 -0.00863063 -0.01774505
v -0.00863101 -0.00863063 -0.01774505
v -0.00614301 -0.00614263 -0.02000001
v -0.00864301 -0.07500005 -0.01750001
v -0.00864301 -0.07500005 -0.01750001
v 0.00863099 -0.07498802 0.01774499
v 0.00863099 -0.07498802 0.01774499
v 0.00859499 -0.07495202 0.01798769
v 0.00859499 -0.07495202 0.01798769
v 0.00864299 -0.07500005 0.01749999
v 0.00864299 -0.07500005 0.01749999
v 0.00853499 -0.07489240 0.01822569
v 0.00853499 -0.07489240 0.01822569
v 0.00845199 -0.07480975 0.01845669
v 0.00845199 -0.07480975 0.01845669
v 0.00834699 -0.07470486 0.01867849
v 0.00834699 -0.07470486 0.01867849
v 0.00822099 -0.07457873 0.01888889
v 0.00822099 -0.07457873 0.01888889
v 0.00790999 -0.07426782 0.01926779
v 0.00790999 -0.07426782 0.01926779
v 0.00753199 -0.07388898 0.01957869
v 0.00753199 -0.07388898 0.01957869
v 0.00709899 -0.07345676 0.01980969
v 0.00709899 -0.07345676 0.01980969
v 0.00662999 -0.07298778 0.01995199
v 0.00662999 -0.07298778 0.01995199
v 0.00614299 -0.07250005 0.01999999
v -0.00614301 -0.07250005 -0.02000001
v -0.00663001 -0.07298778 -0.01995197
v -0.00663001 -0.07298778 -0.01995197
v -0.00709901 -0.07345676 -0.01980970
v -0.00709901 -0.07345676 -0.01980970
v -0.00753101 -0.07388898 -0.01957868
v -0.00753101 -0.07388898 -0.01957868
v -0.00791001 -0.07426782 -0.01926777
v -0.00791001 -0.07426782 -0.01926777
v -0.00822101 -0.07457873 -0.01888894
v -0.00822101 -0.07457873 -0.01888894
v -0.00834701 -0.07470486 -0.01867850
v -0.00834701 -0.07470486 -0.01867850
v -0.00845201 -0.07480975 -0.01845672
v -0.00845201 -0.07480975 -0.01845672
v -0.00853501 -0.07489240 -0.01822572
v -0.00853501 -0.07489240 -0.01822572
v -0.00859501 -0.07495202 -0.01798774
v -0.00859501 -0.07495202 -0.01798774
v -0.00863101 -0.07498802 -0.01774505
v -0.00863101 -0.07498802 -0.01774505
v 0.00864299 -0.07500005 -0.01750001
v 0.00864299 -0.07500005 -0.01750001
v 0.00864299 -0.00864263 0.01749999
v 0.00864299 -0.00864263 0.01749999
v 0.00863099 -0.00863063 0.01774499
v 0.00863099 -0.00863063 0.01774499
v 0.00859499 -0.00859463 0.01798769
v 0.00859499 -0.00859463 0.01798769
v 0.00853499 -0.00853503 0.01822569
v 0.00853499 -0.00853503 0.01822569
v 0.00845199 -0.00845233 0.01845669
v 0.00845199 -0.00845233 0.01845669
v 0.00834699 -0.00834743 0.01867849
v 0.00834699 -0.00834743 0.01867849
v 0.00822099 -0.00822133 0.01888889
v 0.00822099 -0.00822133 0.01888889
v 0.00790999 -0.00791043 0.01926779
v 0.00790999 -0.00791043 0.01926779
v 0.00753199 -0.00753153 0.01957869
v 0.00753199 -0.00753153 0.01957869
v 0.00709899 -0.00709933 0.01980969
v 0.00709899 -0.00709933 0.01980969
v 0.00662999 -0.00663033 0.01995199
v 0.00662999 -0.00663033 0.01995199
v 0.00614299 -0.00614263 0.01999999
v -0.00859501 0.07495217 -0.01798774
v -0.00859501 0.07495217 -0.01798774
v -0.00863101 0.07498817 -0.01774505
v -0.00863101 0.07498817 -0.01774505
v -0.00845201 0.07480917 -0.01845672
v -0.00845201 0.07480917 -0.01845672
v -0.00853501 0.07489217 -0.01822572
v -0.00853501 0.07489217 -0.01822572
v -0.00834701 0.07470517 -0.01867850
v -0.00834701 0.07470517 -0.01867850
v -0.00822101 0.07457817 -0.01888894
v -0.00822101 0.07457817 -0.01888894
v -0.00791001 0.07426817 -0.01926777
v -0.00791001 0.07426817 -0.01926777
v -0.00753101 0.07388917 -0.01957868
v -0.00753101 0.07388917 -0.01957868
v -0.00709901 0.07345617 -0.01980970
v -0.00709901 0.07345617 -0.01980970
v -0.00663001 0.07298817 -0.01995197
v -0.00663001 0.07298817 -0.01995197
v -0.00614301 0.07250017 -0.02000001
v 0.00864299 0.07500017 -0.01750001
v 0.00864299 0.07500017 -0.01750001
v 0.00662999 0.00663027 0.01995199
v 0.00662999 0.00663027 0.01995199
v 0.00709899 0.00709927 0.01980969
v 0.00709899 0.00709927 0.01980969
v 0.00753199 0.00753147 0.01957869
v 0.00753199 0.00753147 0.01957869
v 0.00790999 0.00791027 0.01926779
v 0.00790999 0.00791027 0.01926779
v 0.00822099 0.00822117 0.01888889
v 0.00822099 0.00822117 0.01888889
v 0.00834699 0.00834737 0.01867849
v 0.00834699 0.00834737 0.01867849
v 0.00845199 0.00845227 0.01845669
v 0.00845199 0.00845227 0.01845669
v 0.00853499 0.00853487 0.01822569
v 0.00853499 0.00853487 0.01822569
v 0.00859499 0.00859447 0.01798769
v 0.00859499 0.00859447 0.01798769
v 0.00863099 0.00863047 0.01774499
v 0.00863099 0.00863047 0.01774499
v 0.00864299 0.00864257 0.01749999
v 0.00864299 0.00864257 0.01749999
v 0.00614299 0.00614257 0.01999999
v 0.07249999 0.00614257 0.01999999
v 0.07249999 -0.00614263 0.01999999
v 0.07298799 0.00663027 0.01995199
v 0.07298799 0.00663027 0.01995199
v 0.07345699 0.00709927 0.01980969
v 0.07345699 0.00709927 0.01980969
v 0.07388899 0.00753147 0.01957869
v 0.07388899 0.00753147 0.01957869
v 0.07426799 0.00791027 0.01926779
v 0.07426799 0.00791027 0.01926779
v 0.07457899 0.00822117 0.01888889
v 0.07457899 0.00822117 0.01888889
v 0.07470499 0.00834737 0.01867849
v 0.07470499 0.00834737 0.01867849
v 0.07480999 0.00845227 0.01845669
v 0.07480999 0.00845227 0.01845669
v 0.07489199 0.00853487 0.01822569
v 0.07489199 0.00853487 0.01822569
v 0.07495199 0.00859447 0.01798769
v 0.07495199 0.00859447 0.01798769
v 0.07498799 0.00863047 0.01774499
v 0.07498799 0.00863047 0.01774499
v 0.07499999 0.00864257 0.01749999
v 0.07499999 0.00864257 0.01749999
v 0.00864299 0.00864257 -0.01750001
v 0.00864299 0.00864257 -0.01750001
v 0.00863099 0.07498817 -0.01774505
v 0.00863099 0.07498817 -0.01774505
v 0.00859499 0.07495217 -0.01798774
v 0.00859499 0.07495217 -0.01798774
v 0.00853499 0.07489217 -0.01822572
v 0.00853499 0.07489217 -0.01822572
v 0.00845199 0.07480917 -0.01845672
v 0.00845199 0.07480917 -0.01845672
v 0.00834699 0.07470517 -0.01867850
v 0.00834699 0.07470517 -0.01867850
v 0.00822099 0.07457817 -0.01888894
v 0.00822099 0.07457817 -0.01888894
v 0.00790999 0.07426817 -0.01926777
v 0.00790999 0.07426817 -0.01926777
v 0.00753199 0.07388917 -0.01957868
v 0.00753199 0.07388917 -0.01957868
v 0.00709899 0.07345617 -0.01980970
v 0.00709899 0.07345617 -0.01980970
v 0.00662999 0.07298817 -0.01995197
v 0.00662999 0.07298817 -0.01995197
v 0.00614299 0.07250017 -0.02000001
v 0.07498799 -0.00863063 0.01774499
v 0.07498799 -0.00863063 0.01774499
v 0.07495199 -0.00859463 0.01798769
v 0.07495199 -0.00859463 0.01798769
v 0.07499999 -0.00864263 0.01749999
v 0.07499999 -0.00864263 0.01749999
v 0.07480999 -0.00845233 0.01845669
v 0.07480999 -0.00845233 0.01845669
v 0.07489199 -0.00853503 0.01822569
v 0.07489199 -0.00853503 0.01822569
v 0.07470499 -0.00834743 0.01867849
v 0.07470499 -0.00834743 0.01867849
v 0.07457899 -0.00822133 0.01888889
v 0.07457899 -0.00822133 0.01888889
v 0.07426799 -0.00791043 0.01926779
v 0.07426799 -0.00791043 0.01926779
v 0.07388899 -0.00753153 0.01957869
v 0.07388899 -0.00753153 0.01957869
v 0.07345699 -0.00709933 0.01980969
v 0.07345699 -0.00709933 0.01980969
v 0.07298799 -0.00663033 0.01995199
v 0.07298799 -0.00663033 0.01995199
v 0.00864299 -0.00864263 -0.01750001
v 0.00864299 -0.00864263 -0.01750001
v 0.00662999 -0.07298778 -0.01995197
v 0.00662999 -0.07298778 -0.01995197
v 0.00753199 -0.07388898 -0.01957868
v 0.00753199 -0.07388898 -0.01957868
v 0.00822099 -0.07457873 -0.01888894
v 0.00822099 -0.07457873 -0.01888894
v 0.00834699 -0.07470486 -0.01867850
v 0.00834699 -0.07470486 -0.01867850
v 0.00845199 -0.07480975 -0.01845672
v 0.00845199 -0.07480975 -0.01845672
v 0.00853499 -0.07489240 -0.01822572
v 0.00853499 -0.07489240 -0.01822572
v 0.00859499 -0.07495202 -0.01798774
v 0.00859499 -0.07495202 -0.01798774
v 0.00863099 -0.07498802 -0.01774505
v 0.00863099 -0.07498802 -0.01774505
v 0.00790999 -0.07426782 -0.01926777
v 0.00790999 -0.07426782 -0.01926777
v 0.00709899 -0.07345676 -0.01980970
v 0.00709899 -0.07345676 -0.01980970
v 0.00614299 -0.07250005 -0.02000001
v 0.07499999 -0.00864263 -0.01750001
v 0.07499999 -0.00864263 -0.01750001
v 0.00662999 -0.00663033 -0.01995197
v 0.00662999 -0.00663033 -0.01995197
v 0.00709899 -0.00709933 -0.01980970
v 0.00709899 -0.00709933 -0.01980970
v 0.00753199 -0.00753153 -0.01957868
v 0.00753199 -0.00753153 -0.01957868
v 0.00790999 -0.00791043 -0.01926777
v 0.00790999 -0.00791043 -0.01926777
v 0.00822099 -0.00822133 -0.01888894
v 0.00822099 -0.00822133 -0.01888894
v 0.00834699 -0.00834743 -0.01867850
v 0.00834699 -0.00834743 -0.01867850
v 0.00845199 -0.00845233 -0.01845672
v 0.00845199 -0.00845233 -0.01845672
v 0.00853499 -0.00853503 -0.01822572
v 0.00853499 -0.00853503 -0.01822572
v 0.00859499 -0.00859463 -0.01798774
v 0.00859499 -0.00859463 -0.01798774
v 0.00863099 -0.00863063 -0.01774505
v 0.00863099 -0.00863063 -0.01774505
v 0.00614299 -0.00614263 -0.02000001
v 0.07499999 0.00864257 -0.01750001
v 0.07499999 0.00864257 -0.01750001
v 0.07249999 -0.00614263 -0.02000001
v 0.07298799 -0.00663033 -0.01995197
v 0.07298799 -0.00663033 -0.01995197
v 0.07345699 -0.00709933 -0.01980970
v 0.07345699 -0.00709933 -0.01980970
v 0.07388899 -0.00753153 -0.01957868
v 0.07388899 -0.00753153 -0.01957868
v 0.07426799 -0.00791043 -0.01926777
v 0.07426799 -0.00791043 -0.01926777
v 0.07457899 -0.00822133 -0.01888894
v 0.07457899 -0.00822133 -0.01888894
v 0.07470499 -0.00834743 -0.01867850
v 0.07470499 -0.00834743 -0.01867850
v 0.07480999 -0.00845233 -0.01845672
v 0.07480999 -0.00845233 -0.01845672
v 0.07489199 -0.00853503 -0.01822572
v 0.07489199 -0.00853503 -0.01822572
v 0.07495199 -0.00859463 -0.01798774
v 0.07495199 -0.00859463 -0.01798774
v 0.07498799 -0.00863063 -0.01774505
v 0.07498799 -0.00863063 -0.01774505
v 0.00614299 0.00614257 -0.02000001
v 0.07249999 0.00614257 -0.02000001
v 0.00863099 0.00863047 -0.01774505
v 0.00863099 0.00863047 -0.01774505
v 0.00859499 0.00859447 -0.01798774
v 0.00859499 0.00859447 -0.01798774
v 0.00853499 0.00853487 -0.01822572
v 0.00853499 0.00853487 -0.01822572
v 0.00845199 0.00845227 -0.01845672
v 0.00845199 0.00845227 -0.01845672
v 0.00834699 0.00834737 -0.01867850
v 0.00834699 0.00834737 -0.01867850
v 0.00822099 0.00822117 -0.01888894
v 0.00822099 0.00822117 -0.01888894
v 0.00790999 0.00791027 -0.01926777
v 0.00790999 0.00791027 -0.01926777
v 0.00753199 0.00753147 -0.01957868
v 0.00753199 0.00753147 -0.01957868
v 0.00709899 0.00709927 -0.01980970
v 0.00709899 0.00709927 -0.01980970
v 0.00662999 0.00663027 -0.01995197
v 0.00662999 0.00663027 -0.01995197
v 0.07498799 0.00863047 -0.01774505
v 0.07498799 0.00863047 -0.01774505
v 0.07495199 0.00859447 -0.01798774
v 0.07495199 0.00859447 -0.01798774
v 0.07480999 0.00845227 -0.01845672
v 0.07480999 0.00845227 -0.01845672
v 0.07489199 0.00853487 -0.01822572
v 0.07489199 0.00853487 -0.01822572
v 0.07470499 0.00834737 -0.01867850
v 0.07470499 0.00834737 -0.01867850
v 0.07457899 0.00822117 -0.01888894
v 0.07457899 0.00822117 -0.01888894
v 0.07426799 0.00791027 -0.01926777
v 0.07426799 0.00791027 -0.01926777
v 0.07388899 0.00753147 -0.01957868
v 0.07388899 0.00753147 -0.01957868
v 0.07345699 0.00709927 -0.01980970
v 0.07345699 0.00709927 -0.01980970
v 0.07298799 0.00663027 -0.01995197
v 0.07298799 0.00663027 -0.01995197
vn -1.00000000 0.00000000 0.00000000
vn 0.00000000 1.00000000 0.00000000
vn -1.00000000 0.00000000 0.00000000
vn 0.00000000 1.00000000 0.00000000
vn -1.00000000 0.00000000 0.00000000
vn 0.00000000 1.00000000 0.00000000
vn -1.00000000 0.00000000 0.00000000
vn 0.00000000 1.00000000 0.00000000
vn -1.00000000 0.00000000 0.00000000
vn 0.00000000 1.00000000 0.00000000
vn -1.00000000 0.00000000 0.00000000
vn 0.00000000 1.00000000 0.00000000
vn 0.00000000 0.00000000 1.00000000
vn 0.00000000 0.00000000 1.00000000
vn -0.19509000 0.00000000 0.98078500
vn 0.00000000 0.19509000 0.98078500
vn -0.19509000 0.00000000 0.98078500
vn 0.00000000 0.19509000 0.98078500
vn 0.00000000 0.38268300 0.92388000
vn -0.38268300 0.00000000 0.92388000
vn 0.00000000 0.55557000 0.83147000
vn -0.55557000 0.00000000 0.83147000
vn 0.00000000 0.55557000 0.83147000
vn -0.55557000 0.00000000 0.83147000
vn -0.38268300 0.00000000 0.92388000
vn 0.00000000 0.38268300 0.92388000
vn 0.00000000 0.70710700 0.70710700
vn -0.70710700 0.00000000 0.70710700
vn 0.00000000 0.83147000 0.55557000
vn -0.83147000 0.00000000 0.55557000
vn 0.00000000 0.83147000 0.55557000
vn -0.83147000 0.00000000 0.55557000
vn 0.00000000 0.70710700 0.70710700
vn -0.70710700 0.00000000 0.70710700
vn 0.00000000 0.88192100 0.47139700
vn -0.88192100 0.00000000 0.47139700
vn -0.92388000 0.00000000 0.38268300
vn 0.00000000 0.92388000 0.38268300
vn 0.00000000 0.88192100 0.47139700
vn -0.88192100 0.00000000 0.47139700
vn -0.95694000 0.00000000 0.29028500
vn 0.00000000 0.95694000 0.29028500
vn -0.95694000 0.00000000 0.29028500
vn 0.00000000 0.95694000 0.29028500
vn -0.98078500 0.00000000 0.19509000
vn 0.00000000 0.98078500 0.19509000
vn -0.92388000 0.00000000 0.38268300
vn 0.00000000 0.92388000 0.38268300
vn 0.00000000 0.98078500 0.19509000
vn -0.98078500 0.00000000 0.19509000
vn 0.00000000 0.99518500 0.09801710
vn -0.99518500 0.00000000 0.09801710
vn 0.00000000 0.99518500 0.09801710
vn -0.99518500 0.00000000 0.09801710
vn 0.00000000 -0.19509000 0.98078500
vn -0.19509000 0.00000000 0.98078500
vn 0.00000000 0.00000000 1.00000000
vn 0.00000000 -0.38268300 0.92388000
vn -0.38268300 0.00000000 0.92388000
vn -0.55557000 0.00000000 0.83147000
vn 0.00000000 -0.55557000 0.83147000
vn -0.70710700 0.00000000 0.70710700
vn 0.00000000 -0.70710700 0.70710700
vn -0.83147000 0.00000000 0.55557000
vn 0.00000000 -0.83147000 0.55557000
vn 0.00000000 -0.88192100 0.47139700
vn -0.88192100 0.00000000 0.47139700
vn -0.92388000 0.00000000 0.38268300
vn 0.00000000 -0.92388000 0.38268300
vn 0.00000000 -0.95694000 0.29028500
vn -0.95694000 0.00000000 0.29028500
vn 0.00000000 -0.98078500 0.19509000
vn -0.98078500 0.00000000 0.19509000
vn 0.00000000 -0.99518500 0.09801710
vn -0.99518500 0.00000000 0.09801710
vn 0.00000000 -1.00000000 0.00000000
vn -1.00000000 0.00000000 0.00000000
vn 0.00000000 0.00000000 1.00000000
vn 0.00000000 0.19509000 0.98078500
vn -0.19509000 0.00000000 0.98078500
vn 0.00000000 0.38268300 0.92388000
vn -0.38268300 0.00000000 0.92388000
vn -0.55557000 0.00000000 0.83147000
vn 0.00000000 0.55557000 0.83147000
vn -0.70710700 0.00000000 0.70710700
vn 0.00000000 0.70710700 0.70710700
vn -0.83147000 0.00000000 0.55557000
vn 0.00000000 0.83147000 0.55557000
vn -0.88192100 0.00000000 0.47139700
vn 0.00000000 0.88192100 0.47139700
vn -0.92388000 0.00000000 0.38268300
vn 0.00000000 0.92388000 0.38268300
vn -0.95694000 0.00000000 0.29028500
vn 0.00000000 0.95694000 0.29028500
vn -0.98078500 0.00000000 0.19509000
vn 0.00000000 0.98078500 0.19509000
vn -0.99518500 0.00000000 0.09801710
vn 0.00000000 0.99518500 0.09801710
vn 0.00000000 0.19509000 0.98078500
vn 0.19509000 0.00000000 0.98078500
vn 0.55557000 0.00000000 0.83147000
vn 0.00000000 0.55557000 0.83147000
vn 0.00000000 0.83147000 0.55557000
vn 0.83147000 0.00000000 0.55557000
vn 0.88192100 0.00000000 0.47139700
vn 0.00000000 0.88192100 0.47139700
vn 0.00000000 0.95694000 0.29028500
vn 0.95694000 0.00000000 0.29028500
vn 0.00000000 0.92388000 0.38268300
vn 0.92388000 0.00000000 0.38268300
vn 0.98078500 0.00000000 0.19509000
vn 0.00000000 0.98078500 0.19509000
vn 0.00000000 0.99518500 0.09801710
vn 0.99518500 0.00000000 0.09801710
vn 0.00000000 1.00000000 0.00000000
vn 1.00000000 0.00000000 0.00000000
vn 0.00000000 0.70710700 0.70710700
vn 0.70710700 0.00000000 0.70710700
vn 0.38268300 0.00000000 0.92388000
vn 0.00000000 0.38268300 0.92388000
vn 0.00000000 0.00000000 1.00000000
vn -1.00000000 0.00000000 0.00000000
vn 0.00000000 -1.00000000 0.00000000
vn -1.00000000 0.00000000 0.00000000
vn 0.00000000 -1.00000000 0.00000000
vn -0.99518500 0.00000000 0.09801710
vn 0.00000000 -0.99518500 0.09801710
vn 0.00000000 -0.98078500 0.19509000
vn -0.98078500 0.00000000 0.19509000
vn -0.95694000 0.00000000 0.29028500
vn 0.00000000 -0.95694000 0.29028500
vn -0.92388000 0.00000000 0.38268300
vn 0.00000000 -0.92388000 0.38268300
vn 0.00000000 -0.88192100 0.47139700
vn -0.88192100 0.00000000 0.47139700
vn -0.83147000 0.00000000 0.55557000
vn 0.00000000 -0.83147000 0.55557000
vn -0.70710700 0.00000000 0.70710700
vn 0.00000000 -0.70710700 0.70710700
vn -0.55557000 0.00000000 0.83147000
vn 0.00000000 -0.55557000 0.83147000
vn 0.00000000 -0.38268300 0.92388000
vn -0.38268300 0.00000000 0.92388000
vn -0.19509000 0.00000000 0.98078500
vn 0.00000000 -0.19509000 0.98078500
vn 0.00000000 0.00000000 1.00000000
vn -0.99518500 0.00000000 -0.09801710
vn 0.00000000 0.99518500 -0.09801710
vn -0.98078500 0.00000000 -0.19509000
vn 0.00000000 0.98078500 -0.19509000
vn 0.00000000 0.99518500 -0.09801710
vn -0.99518500 0.00000000 -0.09801710
vn -0.98078500 0.00000000 -0.19509000
vn 0.00000000 0.98078500 -0.19509000
vn 0.00000000 0.95694000 -0.29028500
vn -0.95694000 0.00000000 -0.29028500
vn 0.00000000 0.92388000 -0.38268300
vn -0.92388000 0.00000000 -0.38268300
vn 0.00000000 0.95694000 -0.29028500
vn -0.95694000 0.00000000 -0.29028500
vn 0.00000000 0.92388000 -0.38268300
vn -0.92388000 0.00000000 -0.38268300
vn -0.88192100 0.00000000 -0.47139700
vn 0.00000000 0.88192100 -0.47139700
vn 0.00000000 0.83147000 -0.55557000
vn -0.83147000 0.00000000 -0.55557000
vn 0.00000000 0.88192100 -0.47139700
vn -0.88192100 0.00000000 -0.47139700
vn -0.83147000 0.00000000 -0.55557000
vn 0.00000000 0.83147000 -0.55557000
vn -0.70710700 0.00000000 -0.70710700
vn 0.00000000 0.70710700 -0.70710700
vn -0.70710700 0.00000000 -0.70710700
vn 0.00000000 0.70710700 -0.70710700
vn -0.55557000 0.00000000 -0.83147000
vn 0.00000000 0.55557000 -0.83147000
vn -0.55557000 0.00000000 -0.83147000
vn 0.00000000 0.55557000 -0.83147000
vn 0.00000000 0.38268300 -0.92388000
vn -0.38268300 0.00000000 -0.92388000
vn 0.00000000 0.38268300 -0.92388000
vn -0.38268300 0.00000000 -0.92388000
vn 0.00000000 0.19509000 -0.98078500
vn -0.19509000 0.00000000 -0.98078500
vn -0.19509000 0.00000000 -0.98078500
vn 0.00000000 0.19509000 -0.98078500
vn 0.00000000 0.00000000 -1.00000000
vn 0.00000000 0.00000000 -1.00000000
vn 0.00000000 -0.19509000 -0.98078500
vn -0.19509000 0.00000000 -0.98078500
vn -0.38268300 0.00000000 -0.92388000
vn 0.00000000 -0.38268300 -0.92388000
vn -0.55557000 0.00000000 -0.83147000
vn 0.00000000 -0.55557000 -0.83147000
vn -0.70710700 0.00000000 -0.70710700
vn 0.00000000 -0.70710700 -0.70710700
vn -0.88192100 0.00000000 -0.47139700
vn 0.00000000 -0.88192100 -0.47139700
vn -0.83147000 0.00000000 -0.55557000
vn 0.00000000 -0.83147000 -0.55557000
vn 0.00000000 -0.92388000 -0.38268300
vn -0.92388000 0.00000000 -0.38268300
vn 0.00000000 -0.95694000 -0.29028500
vn -0.95694000 0.00000000 -0.29028500
vn -0.99518500 0.00000000 -0.09801710
vn 0.00000000 -0.99518500 -0.09801710
vn -0.98078500 0.00000000 -0.19509000
vn 0.00000000 -0.98078500 -0.19509000
vn 0.00000000 0.00000000 -1.00000000
vn -1.00000000 0.00000000 0.00000000
vn 0.00000000 -1.00000000 0.00000000
vn -0.98078500 0.00000000 0.19509000
vn 0.00000000 -0.98078500 0.19509000
vn 0.00000000 -1.00000000 0.00000000
vn -1.00000000 0.00000000 0.00000000
vn -0.99518500 0.00000000 0.09801710
vn 0.00000000 -0.99518500 0.09801710
vn -0.95694000 0.00000000 0.29028500
vn 0.00000000 -0.95694000 0.29028500
vn -0.92388000 0.00000000 0.38268300
vn 0.00000000 -0.92388000 0.38268300
vn -0.88192100 0.00000000 0.47139700
vn 0.00000000 -0.88192100 0.47139700
vn 0.00000000 -0.83147000 0.55557000
vn -0.83147000 0.00000000 0.55557000
vn -0.70710700 0.00000000 0.70710700
vn 0.00000000 -0.70710700 0.70710700
vn -0.55557000 0.00000000 0.83147000
vn 0.00000000 -0.55557000 0.83147000
vn -0.38268300 0.00000000 0.92388000
vn 0.00000000 -0.38268300 0.92388000
vn -0.19509000 0.00000000 0.98078500
vn 0.00000000 -0.19509000 0.98078500
vn 0.00000000 0.00000000 1.00000000
vn -0.19509000 0.00000000 -0.98078500
vn 0.00000000 -0.19509000 -0.98078500
vn 0.00000000 -0.38268300 -0.92388000
vn -0.38268300 0.00000000 -0.92388000
vn 0.00000000 -0.55557000 -0.83147000
vn -0.55557000 0.00000000 -0.83147000
vn -0.70710700 0.00000000 -0.70710700
vn 0.00000000 -0.70710700 -0.70710700
vn 0.00000000 -0.83147000 -0.55557000
vn -0.83147000 0.00000000 -0.55557000
vn 0.00000000 -0.88192100 -0.47139700
vn -0.88192100 0.00000000 -0.47139700
vn -0.95694000 0.00000000 -0.29028500
vn 0.00000000 -0.95694000 -0.29028500
vn 0.00000000 -0.92388000 -0.38268300
vn -0.92388000 0.00000000 -0.38268300
vn -0.98078500 0.00000000 -0.19509000
vn 0.00000000 -0.98078500 -0.19509000
vn -0.99518500 0.00000000 -0.09801710
vn 0.00000000 -0.99518500 -0.09801710
vn 0.00000000 0.00000000 -1.00000000
vn 0.00000000 -1.00000000 0.00000000
vn -1.00000000 0.00000000 0.00000000
vn 0.00000000 -0.99518500 0.09801710
vn 0.99518500 0.00000000 0.09801710
vn 0.00000000 -0.98078500 0.19509000
vn 0.98078500 0.00000000 0.19509000
vn 0.00000000 -1.00000000 0.00000000
vn 1.00000000 0.00000000 0.00000000
vn 0.95694000 0.00000000 0.29028500
vn 0.00000000 -0.95694000 0.29028500
vn 0.92388000 0.00000000 0.38268300
vn 0.00000000 -0.92388000 0.38268300
vn 0.00000000 -0.88192100 0.47139700
vn 0.88192100 0.00000000 0.47139700
vn 0.00000000 -0.83147000 0.55557000
vn 0.83147000 0.00000000 0.55557000
vn 0.00000000 -0.70710700 0.70710700
vn 0.70710700 0.00000000 0.70710700
vn 0.00000000 -0.55557000 0.83147000
vn 0.55557000 0.00000000 0.83147000
vn 0.38268300 0.00000000 0.92388000
vn 0.00000000 -0.38268300 0.92388000
vn 0.00000000 -0.19509000 0.98078500
vn 0.19509000 0.00000000 0.98078500
vn 0.00000000 0.00000000 1.00000000
vn 0.00000000 0.00000000 -1.00000000
vn -0.19509000 0.00000000 -0.98078500
vn 0.00000000 -0.19509000 -0.98078500
vn -0.38268300 0.00000000 -0.92388000
vn 0.00000000 -0.38268300 -0.92388000
vn 0.00000000 -0.55557000 -0.83147000
vn -0.55557000 0.00000000 -0.83147000
vn -0.70710700 0.00000000 -0.70710700
vn 0.00000000 -0.70710700 -0.70710700
vn -0.83147000 0.00000000 -0.55557000
vn 0.00000000 -0.83147000 -0.55557000
vn 0.00000000 -0.88192100 -0.47139700
vn -0.88192100 0.00000000 -0.47139700
vn -0.92388000 0.00000000 -0.38268300
vn 0.00000000 -0.92388000 -0.38268300
vn 0.00000000 -0.95694000 -0.29028500
vn -0.95694000 0.00000000 -0.29028500
vn 0.00000000 -0.98078500 -0.19509000
vn -0.98078500 0.00000000 -0.19509000
vn 0.00000000 -0.99518500 -0.09801710
vn -0.99518500 0.00000000 -0.09801710
vn 0.00000000 -1.00000000 0.00000000
vn 1.00000000 0.00000000 0.00000000
vn 0.00000000 -1.00000000 0.00000000
vn 1.00000000 0.00000000 0.00000000
vn 0.00000000 -0.99518500 0.09801710
vn 0.99518500 0.00000000 0.09801710
vn 0.00000000 -0.98078500 0.19509000
vn 0.98078500 0.00000000 0.19509000
vn 0.00000000 -0.95694000 0.29028500
vn 0.95694000 0.00000000 0.29028500
vn 0.92388000 0.00000000 0.38268300
vn 0.00000000 -0.92388000 0.38268300
vn 0.88192100 0.00000000 0.47139700
vn 0.00000000 -0.88192100 0.47139700
vn 0.00000000 -0.83147000 0.55557000
vn 0.83147000 0.00000000 0.55557000
vn 0.00000000 -0.70710700 0.70710700
vn 0.70710700 0.00000000 0.70710700
vn 0.00000000 -0.55557000 0.83147000
vn 0.55557000 0.00000000 0.83147000
vn 0.00000000 -0.38268300 0.92388000
vn 0.38268300 0.00000000 0.92388000
vn 0.00000000 -0.19509000 0.98078500
vn 0.19509000 0.00000000 0.98078500
vn 0.00000000 0.00000000 1.00000000
vn 0.00000000 0.98078500 -0.19509000
vn -0.98078500 0.00000000 -0.19509000
vn 0.00000000 0.99518500 -0.09801710
vn -0.99518500 0.00000000 -0.09801710
vn 0.00000000 0.92388000 -0.38268300
vn -0.92388000 0.00000000 -0.38268300
vn 0.00000000 0.95694000 -0.29028500
vn -0.95694000 0.00000000 -0.29028500
vn 0.00000000 0.88192100 -0.47139700
vn -0.88192100 0.00000000 -0.47139700
vn -0.83147000 0.00000000 -0.55557000
vn 0.00000000 0.83147000 -0.55557000
vn -0.70710700 0.00000000 -0.70710700
vn 0.00000000 0.70710700 -0.70710700
vn 0.00000000 0.55557000 -0.83147000
vn -0.55557000 0.00000000 -0.83147000
vn 0.00000000 0.38268300 -0.92388000
vn -0.38268300 0.00000000 -0.92388000
vn 0.00000000 0.19509000 -0.98078500
vn -0.19509000 0.00000000 -0.98078500
vn 0.00000000 0.00000000 -1.00000000
vn 1.00000000 0.00000000 0.00000000
vn 0.00000000 1.00000000 0.00000000
vn 0.00000000 0.19509000 0.98078500
vn 0.19509000 0.00000000 0.98078500
vn 0.00000000 0.38268300 0.92388000
vn 0.38268300 0.00000000 0.92388000
vn 0.00000000 0.55557000 0.83147000
vn 0.55557000 0.00000000 0.83147000
vn 0.00000000 0.70710700 0.70710700
vn 0.70710700 0.00000000 0.70710700
vn 0.00000000 0.83147000 0.55557000
vn 0.83147000 0.00000000 0.55557000
vn 0.88192100 0.00000000 0.47139700
vn 0.00000000 0.88192100 0.47139700
vn 0.92388000 0.00000000 0.38268300
vn 0.00000000 0.92388000 0.38268300
vn 0.00000000 0.95694000 0.29028500
vn 0.95694000 0.00000000 0.29028500
vn 0.00000000 0.98078500 0.19509000
vn 0.98078500 0.00000000 0.19509000
vn 0.00000000 0.99518500 0.09801710
vn 0.99518500 0.00000000 0.09801710
vn 1.00000000 0.00000000 0.00000000
vn 0.00000000 1.00000000 0.00000000
vn 0.00000000 0.00000000 1.00000000
vn 0.00000000 0.00000000 1.00000000
vn 0.00000000 0.00000000 1.00000000
vn 0.00000000 0.19509000 0.98078500
vn 0.19509000 0.00000000 0.98078500
vn 0.00000000 0.38268300 0.92388000
vn 0.38268300 0.00000000 0.92388000
vn 0.00000000 0.55557000 0.83147000
vn 0.55557000 0.00000000 0.83147000
vn 0.00000000 0.70710700 0.70710700
vn 0.70710700 0.00000000 0.70710700
vn 0.00000000 0.83147000 0.55557000
vn 0.83147000 0.00000000 0.55557000
vn 0.00000000 0.88192100 0.47139700
vn 0.88192100 0.00000000 0.47139700
vn 0.92388000 0.00000000 0.38268300
vn 0.00000000 0.92388000 0.38268300
vn 0.95694000 0.00000000 0.29028500
vn 0.00000000 0.95694000 0.29028500
vn 0.98078500 0.00000000 0.19509000
vn 0.00000000 0.98078500 0.19509000
vn 0.00000000 0.99518500 0.09801710
vn 0.99518500 0.00000000 0.09801710
vn 1.00000000 0.00000000 0.00000000
vn 0.00000000 1.00000000 0.00000000
vn 0.00000000 1.00000000 0.00000000
vn 1.00000000 0.00000000 0.00000000
vn 0.99518500 0.00000000 -0.09801710
vn 0.00000000 0.99518500 -0.09801710
vn 0.00000000 0.98078500 -0.19509000
vn 0.98078500 0.00000000 -0.19509000
vn 0.00000000 0.95694000 -0.29028500
vn 0.95694000 0.00000000 -0.29028500
vn 0.00000000 0.92388000 -0.38268300
vn 0.92388000 0.00000000 -0.38268300
vn 0.00000000 0.88192100 -0.47139700
vn 0.88192100 0.00000000 -0.47139700
vn 0.00000000 0.83147000 -0.55557000
vn 0.83147000 0.00000000 -0.55557000
vn 0.70710700 0.00000000 -0.70710700
vn 0.00000000 0.70710700 -0.70710700
vn 0.55557000 0.00000000 -0.83147000
vn 0.00000000 0.55557000 -0.83147000
vn 0.38268300 0.00000000 -0.92388000
vn 0.00000000 0.38268300 -0.92388000
vn 0.19509000 0.00000000 -0.98078500
vn 0.00000000 0.19509000 -0.98078500
vn 0.00000000 0.00000000 -1.00000000
vn 0.00000000 -0.99518500 0.09801710
vn 0.99518500 0.00000000 0.09801710
vn 0.98078500 0.00000000 0.19509000
vn 0.00000000 -0.98078500 0.19509000
vn 1.00000000 0.00000000 0.00000000
vn 0.00000000 -1.00000000 0.00000000
vn 0.92388000 0.00000000 0.38268300
vn 0.00000000 -0.92388000 0.38268300
vn 0.95694000 0.00000000 0.29028500
vn 0.00000000 -0.95694000 0.29028500
vn 0.00000000 -0.88192100 0.47139700
vn 0.88192100 0.00000000 0.47139700
vn 0.00000000 -0.83147000 0.55557000
vn 0.83147000 0.00000000 0.55557000
vn 0.70710700 0.00000000 0.70710700
vn 0.00000000 -0.70710700 0.70710700
vn 0.00000000 -0.55557000 0.83147000
vn 0.55557000 0.00000000 0.83147000
vn 0.00000000 -0.38268300 0.92388000
vn 0.38268300 0.00000000 0.92388000
vn 0.19509000 0.00000000 0.98078500
vn 0.00000000 -0.19509000 0.98078500
vn 0.00000000 -1.00000000 0.00000000
vn 1.00000000 0.00000000 0.00000000
vn 0.19509000 0.00000000 -0.98078500
vn 0.00000000 -0.19509000 -0.98078500
vn 0.00000000 -0.55557000 -0.83147000
vn 0.55557000 0.00000000 -0.83147000
vn 0.83147000 0.00000000 -0.55557000
vn 0.00000000 -0.83147000 -0.55557000
vn 0.88192100 0.00000000 -0.47139700
vn 0.00000000 -0.88192100 -0.47139700
vn 0.92388000 0.00000000 -0.38268300
vn 0.00000000 -0.92388000 -0.38268300
vn 0.95694000 0.00000000 -0.29028500
vn 0.00000000 -0.95694000 -0.29028500
vn 0.00000000 -0.98078500 -0.19509000
vn 0.98078500 0.00000000 -0.19509000
vn 0.00000000 -0.99518500 -0.09801710
vn 0.99518500 0.00000000 -0.09801710
vn 0.00000000 -0.70710700 -0.70710700
vn 0.70710700 0.00000000 -0.70710700
vn 0.00000000 -0.38268300 -0.92388000
vn 0.38268300 0.00000000 -0.92388000
vn 0.00000000 0.00000000 -1.00000000
vn 0.00000000 -1.00000000 0.00000000
vn 1.00000000 0.00000000 0.00000000
vn 0.19509000 0.00000000 -0.98078500
vn 0.00000000 -0.19509000 -0.98078500
vn 0.00000000 -0.38268300 -0.92388000
vn 0.38268300 0.00000000 -0.92388000
vn 0.55557000 0.00000000 -0.83147000
vn 0.00000000 -0.55557000 -0.83147000
vn 0.00000000 -0.70710700 -0.70710700
vn 0.70710700 0.00000000 -0.70710700
vn 0.00000000 -0.83147000 -0.55557000
vn 0.83147000 0.00000000 -0.55557000
vn 0.00000000 -0.88192100 -0.47139700
vn 0.88192100 0.00000000 -0.47139700
vn 0.92388000 0.00000000 -0.38268300
vn 0.00000000 -0.92388000 -0.38268300
vn 0.00000000 -0.95694000 -0.29028500
vn 0.95694000 0.00000000 -0.29028500
vn 0.98078500 0.00000000 -0.19509000
vn 0.00000000 -0.98078500 -0.19509000
vn 0.00000000 -0.99518500 -0.09801710
vn 0.99518500 0.00000000 -0.09801710
vn 0.00000000 0.00000000 -1.00000000
vn 1.00000000 0.00000000 0.00000000
vn 0.00000000 1.00000000 0.00000000
vn 0.00000000 0.00000000 -1.00000000
vn 0.00000000 -0.19509000 -0.98078500
vn 0.19509000 0.00000000 -0.98078500
vn 0.38268300 0.00000000 -0.92388000
vn 0.00000000 -0.38268300 -0.92388000
vn 0.00000000 -0.55557000 -0.83147000
vn 0.55557000 0.00000000 -0.83147000
vn 0.00000000 -0.70710700 -0.70710700
vn 0.70710700 0.00000000 -0.70710700
vn 0.00000000 -0.83147000 -0.55557000
vn 0.83147000 0.00000000 -0.55557000
vn 0.00000000 -0.88192100 -0.47139700
vn 0.88192100 0.00000000 -0.47139700
vn 0.92388000 0.00000000 -0.38268300
vn 0.00000000 -0.92388000 -0.38268300
vn 0.00000000 -0.95694000 -0.29028500
vn 0.95694000 0.00000000 -0.29028500
vn 0.98078500 0.00000000 -0.19509000
vn 0.00000000 -0.98078500 -0.19509000
vn 0.00000000 -0.99518500 -0.09801710
vn 0.99518500 0.00000000 -0.09801710
vn 0.00000000 0.00000000 -1.00000000
vn 0.00000000 0.00000000 -1.00000000
vn 0.00000000 0.99518500 -0.09801710
vn 0.99518500 0.00000000 -0.09801710
vn 0.00000000 0.98078500 -0.19509000
vn 0.98078500 0.00000000 -0.19509000
vn 0.95694000 0.00000000 -0.29028500
vn 0.00000000 0.95694000 -0.29028500
vn 0.00000000 0.92388000 -0.38268300
vn 0.92388000 0.00000000 -0.38268300
vn 0.88192100 0.00000000 -0.47139700
vn 0.00000000 0.88192100 -0.47139700
vn 0.00000000 0.83147000 -0.55557000
vn 0.83147000 0.00000000 -0.55557000
vn 0.70710700 0.00000000 -0.70710700
vn 0.00000000 0.70710700 -0.70710700
vn 0.00000000 0.55557000 -0.83147000
vn 0.55557000 0.00000000 -0.83147000
vn 0.38268300 0.00000000 -0.92388000
vn 0.00000000 0.38268300 -0.92388000
vn 0.19509000 0.00000000 -0.98078500
vn 0.00000000 0.19509000 -0.98078500
vn 0.99518500 0.00000000 -0.09801710
vn 0.00000000 0.99518500 -0.09801710
vn 0.98078500 0.00000000 -0.19509000
vn 0.00000000 0.98078500 -0.19509000
vn 0.92388000 0.00000000 -0.38268300
vn 0.00000000 0.92388000 -0.38268300
vn 0.95694000 0.00000000 -0.29028500
vn 0.00000000 0.95694000 -0.29028500
vn 0.88192100 0.00000000 -0.47139700
vn 0.00000000 0.88192100 -0.47139700
vn 0.00000000 0.83147000 -0.55557000
vn 0.83147000 0.00000000 -0.55557000
vn 0.00000000 0.70710700 -0.70710700
vn 0.70710700 0.00000000 -0.70710700
vn 0.00000000 0.55557000 -0.83147000
vn 0.55557000 0.00000000 -0.83147000
vn 0.00000000 0.38268300 -0.92388000
vn 0.38268300 0.00000000 -0.92388000
vn 0.00000000 0.19509000 -0.98078500
vn 0.19509000 0.00000000 -0.98078500
f 1//1 3//3 5//5
f 5//5 7//7 1//1
f 4//4 10//10 12//12
f 12//12 6//6 4//4
f 13//13 14//14 16//16
f 18//18 16//16 19//19
f 21//21 23//23 26//26
f 23//23 21//21 27//27
f 29//29 31//31 33//33
f 31//31 29//29 35//35
f 35//35 38//38 39//39
f 35//35 39//39 31//31
f 42//42 44//44 38//38
f 42//42 46//46 44//44
f 38//38 48//48 42//42
f 46//46 49//49 51//51
f 51//51 12//12 53//53
f 51//51 53//53 46//46
f 51//51 6//6 12//12
f 42//42 49//49 46//46
f 35//35 48//48 38//38
f 33//33 27//27 29//29
f 27//27 33//33 23//23
f 26//26 19//19 21//21
f 19//19 26//26 18//18
f 16//16 18//18 13//13
f 17//17 56//56 57//57
f 25//25 59//59 56//56
f 24//24 60//60 59//59
f 62//62 60//60 24//24
f 32//32 64//64 62//62
f 40//40 67//67 64//64
f 64//64 32//32 40//40
f 37//37 68//68 67//67
f 43//43 71//71 68//68
f 68//68 37//37 43//43
f 45//45 73//73 71//71
f 54//54 75//75 73//73
f 54//54 77//77 75//75
f 73//73 45//45 54//54
f 54//54 11//11 77//77
f 43//43 45//45 71//71
f 40//40 37//37 67//67
f 62//62 34//34 32//32
f 24//24 34//34 62//62
f 59//59 25//25 24//24
f 56//56 17//17 25//25
f 57//57 13//13 17//17
f 78//78 80//80 15//15
f 80//80 82//82 20//20
f 82//82 83//83 22//22
f 28//28 22//22 83//83
f 85//85 87//87 30//30
f 47//47 36//36 87//87
f 87//87 89//89 47//47
f 89//89 91//91 47//47
f 50//50 41//41 91//91
f 91//91 93//93 50//50
f 93//93 95//95 50//50
f 5//5 52//52 95//95
f 95//95 97//97 5//5
f 97//97 7//7 5//5
f 52//52 50//50 95//95
f 41//41 47//47 91//91
f 36//36 30//30 87//87
f 30//30 28//28 85//85
f 83//83 85//85 28//28
f 22//22 20//20 82//82
f 20//20 15//15 80//80
f 15//15 14//14 78//78
f 99//99 79//79 78//78
f 81//81 79//79 99//99
f 102//102 84//84 81//81
f 86//86 84//84 102//102
f 103//103 88//88 86//86
f 90//90 88//88 103//103
f 106//106 92//92 90//90
f 103//103 106//106 90//90
f 107//107 94//94 92//92
f 107//107 96//96 94//94
f 92//92 109//109 107//107
f 98//98 96//96 112//112
f 113//113 8//8 98//98
f 112//112 113//113 98//98
f 113//113 115//115 8//8
f 107//107 112//112 96//96
f 106//106 109//109 92//92
f 86//86 117//117 103//103
f 102//102 117//117 86//86
f 81//81 120//120 102//102
f 99//99 120//120 81//81
f 78//78 121//121 99//99
f 9//9 122//122 77//77
f 77//77 11//11 9//9
f 125//125 127//127 72//72
f 72//72 74//74 125//125
f 74//74 76//76 125//125
f 128//128 131//131 69//69
f 69//69 70//70 128//128
f 70//70 72//72 128//128
f 133//133 134//134 65//65
f 65//65 66//66 133//133
f 66//66 69//69 133//133
f 137//137 139//139 63//63
f 139//139 141//141 61//61
f 141//141 142//142 58//58
f 55//55 58//58 142//142
f 145//145 146//146 57//57
f 57//57 55//55 145//145
f 142//142 145//145 55//55
f 58//58 61//61 141//141
f 61//61 63//63 139//139
f 63//63 65//65 137//137
f 134//134 137//137 65//65
f 131//131 133//133 69//69
f 127//127 128//128 72//72
f 4//4 148//148 150//150
f 150//150 151//151 4//4
f 151//151 10//10 4//4
f 154//154 155//155 157//157
f 157//157 159//159 154//154
f 159//159 150//150 154//154
f 161//161 164//164 165//165
f 165//165 167//167 161//161
f 167//167 157//157 161//161
f 170//170 172//172 174//174
f 176//176 174//174 172//172
f 178//178 179//179 181//181
f 183//183 181//181 179//179
f 186//186 187//187 188//188
f 188//188 183//183 186//186
f 179//179 186//186 183//183
f 181//181 176//176 178//178
f 172//172 178//178 176//176
f 174//174 165//165 170//170
f 164//164 170//170 165//165
f 155//155 161//161 157//157
f 148//148 154//154 150//150
f 190//190 184//184 188//188
f 191//191 182//182 184//184
f 193//193 175//175 182//182
f 195//195 173//173 175//175
f 166//166 173//173 195//195
f 197//197 168//168 166//166
f 197//197 158//158 168//168
f 166//166 199//199 197//197
f 160//160 158//158 202//202
f 204//204 149//149 160//160
f 202//202 204//204 160//160
f 205//205 152//152 149//149
f 149//149 207//207 205//205
f 122//122 9//9 152//152
f 205//205 122//122 152//152
f 204//204 207//207 149//149
f 197//197 202//202 158//158
f 195//195 199//199 166//166
f 175//175 193//193 195//195
f 182//182 191//191 193//193
f 184//184 190//190 191//191
f 188//188 209//209 190//190
f 123//123 211//211 125//125
f 125//125 76//76 123//123
f 212//212 129//129 126//126
f 126//126 215//215 216//216
f 126//126 216//216 212//212
f 130//130 218//218 220//220
f 130//130 212//212 218//218
f 220//220 132//132 130//130
f 135//135 222//222 225//225
f 135//135 220//220 222//222
f 225//225 136//136 135//135
f 226//226 138//138 136//136
f 138//138 226//226 228//228
f 230//230 143//143 140//140
f 143//143 230//230 232//232
f 144//144 232//232 234//234
f 234//234 146//146 144//144
f 232//232 144//144 143//143
f 140//140 228//228 230//230
f 228//228 140//140 138//138
f 136//136 225//225 226//226
f 135//135 132//132 220//220
f 130//130 129//129 212//212
f 126//126 124//124 215//215
f 236//236 189//189 209//209
f 189//189 236//236 237//237
f 239//239 194//194 192//192
f 242//242 196//196 194//194
f 196//196 242//242 243//243
f 200//200 243//243 245//245
f 245//245 201//201 198//198
f 245//245 198//198 200//200
f 248//248 203//203 201//201
f 248//248 208//208 203//203
f 201//201 249//249 248//248
f 208//208 252//252 254//254
f 254//254 123//123 206//206
f 254//254 206//206 208//208
f 254//254 211//211 123//123
f 248//248 252//252 208//208
f 245//245 249//249 201//201
f 243//243 200//200 196//196
f 194//194 239//239 242//242
f 192//192 237//237 239//239
f 237//237 192//192 189//189
f 209//209 255//255 236//236
f 210//210 257//257 215//215
f 215//215 124//124 210//210
f 217//217 258//258 260//260
f 260//260 213//213 217//217
f 214//214 262//262 258//258
f 265//265 267//267 221//221
f 221//221 219//219 265//265
f 213//213 260//260 265//265
f 223//223 268//268 270//270
f 270//270 224//224 223//223
f 221//221 267//267 268//268
f 270//270 272//272 227//227
f 227//227 272//272 274//274
f 274//274 277//277 231//231
f 231//231 277//277 278//278
f 278//278 280//280 234//234
f 234//234 233//233 278//278
f 278//278 233//233 231//231
f 231//231 229//229 274//274
f 274//274 229//229 227//227
f 227//227 224//224 270//270
f 223//223 221//221 268//268
f 219//219 213//213 265//265
f 217//217 214//214 258//258
f 281//281 282//282 235//235
f 238//238 235//235 282//282
f 284//284 287//287 240//240
f 241//241 240//240 287//287
f 288//288 290//290 244//244
f 250//250 246//246 290//290
f 290//290 293//293 250//250
f 293//293 294//294 250//250
f 251//251 247//247 294//294
f 294//294 297//297 251//251
f 297//297 299//299 251//251
f 210//210 253//253 299//299
f 299//299 301//301 210//210
f 301//301 257//257 210//210
f 253//253 251//251 299//299
f 247//247 250//250 294//294
f 246//246 244//244 290//290
f 244//244 241//241 288//288
f 287//287 288//288 241//241
f 240//240 238//238 284//284
f 282//282 284//284 238//238
f 235//235 255//255 281//281
f 256//256 302//302 262//262
f 262//262 214//214 256//256
f 305//305 307//307 261//261
f 261//261 259//259 305//305
f 259//259 263//263 305//305
f 309//309 311//311 266//266
f 266//266 264//264 309//309
f 264//264 261//261 309//309
f 312//312 314//314 271//271
f 271//271 269//269 312//312
f 269//269 266//266 312//312
f 317//317 319//319 273//273
f 275//275 273//273 319//319
f 321//321 323//323 276//276
f 279//279 276//276 323//323
f 325//325 326//326 280//280
f 280//280 279//279 325//325
f 323//323 325//325 279//279
f 276//276 275//275 321//321
f 319//319 321//321 275//275
f 273//273 271//271 317//317
f 314//314 317//317 271//271
f 311//311 312//312 266//266
f 307//307 309//309 261//261
f 328//328 153//153 147//147
f 147//147 1//1 330//330
f 147//147 330//330 328//328
f 332//332 162//162 156//156
f 156//156 328//328 334//334
f 156//156 334//334 332//332
f 163//163 336//336 337//337
f 163//163 332//332 336//336
f 337//337 169//169 163//163
f 339//339 171//171 169//169
f 171//171 339//339 342//342
f 177//177 342//342 344//344
f 346//346 185//185 180//180
f 347//347 187//187 185//185
f 185//185 346//346 347//347
f 180//180 344//344 346//346
f 344//344 180//180 177//177
f 342//342 177//177 171//171
f 169//169 337//337 339//339
f 163//163 162//162 332//332
f 156//156 153//153 328//328
f 147//147 3//3 1//1
f 349//349 2//2 8//8
f 8//8 115//115 349//349
f 351//351 100//100 121//121
f 100//100 351//351 353//353
f 355//355 101//101 119//119
f 101//101 355//355 357//357
f 359//359 104//104 118//118
f 360//360 105//105 104//104
f 360//360 110//110 105//105
f 104//104 359//359 360//360
f 110//110 362//362 365//365
f 365//365 111//111 108//108
f 365//365 108//108 110//110
f 111//111 367//367 369//369
f 369//369 116//116 114//114
f 369//369 114//114 111//111
f 369//369 370//370 116//116
f 365//365 367//367 111//111
f 360//360 362//362 110//110
f 118//118 357//357 359//359
f 357//357 118//118 101//101
f 119//119 353//353 355//355
f 353//353 119//119 100//100
f 121//121 372//372 351//351
f 78//78 14//14 372//372
f 280//280 326//326 146//146
f 14//14 326//326 372//372
f 373//373 372//372 326//326
f 326//326 14//14 146//146
f 57//57 146//146 14//14
f 326//326 374//374 373//373
f 14//14 13//13 57//57
f 146//146 234//234 280//280
f 372//372 121//121 78//78
f 373//373 375//375 350//350
f 352//352 350//350 375//375
f 377//377 379//379 354//354
f 356//356 354//354 379//379
f 381//381 383//383 358//358
f 363//363 361//361 383//383
f 383//383 385//385 363//363
f 385//385 388//388 363//363
f 366//366 364//364 388//388
f 388//388 390//390 366//366
f 390//390 392//392 366//366
f 371//371 368//368 392//392
f 392//392 393//393 371//371
f 393//393 396//396 371//371
f 368//368 366//366 392//392
f 364//364 363//363 388//388
f 361//361 358//358 383//383
f 358//358 356//356 381//381
f 379//379 381//381 356//356
f 354//354 352//352 377//377
f 375//375 377//377 352//352
f 350//350 372//372 373//373
f 398//398 348//348 116//116
f 116//116 370//370 398//398
f 329//329 400//400 401//401
f 401//401 327//327 329//329
f 2//2 349//349 400//400
f 403//403 405//405 331//331
f 331//331 333//333 403//403
f 327//327 401//401 403//403
f 335//335 407//407 409//409
f 335//335 405//405 407//407
f 409//409 338//338 335//335
f 409//409 412//412 340//340
f 340//340 412//412 414//414
f 341//341 414//414 416//416
f 343//343 416//416 418//418
f 418//418 419//419 347//347
f 347//347 345//345 418//418
f 418//418 345//345 343//343
f 416//416 343//343 341//341
f 414//414 341//341 340//340
f 340//340 338//338 409//409
f 335//335 331//331 405//405
f 333//333 327//327 403//403
f 329//329 2//2 400//400
f 306//306 420//420 423//423
f 306//306 425//425 420//420
f 423//423 308//308 306//306
f 427//427 313//313 310//310
f 310//310 423//423 429//429
f 310//310 429//429 427//427
f 315//315 430//430 432//432
f 315//315 427//427 430//430
f 432//432 316//316 315//315
f 435//435 318//318 316//316
f 318//318 435//435 436//436
f 438//438 322//322 320//320
f 322//322 438//438 441//441
f 324//324 441//441 374//374
f 374//374 326//326 324//324
f 441//441 324//324 322//322
f 320//320 436//436 438//438
f 436//436 320//320 318//318
f 316//316 432//432 435//435
f 315//315 313//313 427//427
f 310//310 308//308 423//423
f 306//306 304//304 425//425
f 303//303 443//443 305//305
f 305//305 263//263 303//303
f 445//445 283//283 281//281
f 285//285 283//283 445//445
f 446//446 286//286 285//285
f 289//289 286//286 446//446
f 449//449 291//291 289//289
f 292//292 291//291 449//449
f 449//449 451//451 292//292
f 453//453 295//295 292//292
f 455//455 296//296 295//295
f 455//455 298//298 296//296
f 295//295 453//453 455//455
f 300//300 298//298 456//456
f 458//458 256//256 300//300
f 456//456 458//458 300//300
f 458//458 302//302 256//256
f 455//455 456//456 298//298
f 451//451 453//453 292//292
f 289//289 460//460 449//449
f 446//446 460//460 289//289
f 285//285 462//462 446//446
f 445//445 462//462 285//285
f 281//281 464//464 445//445
f 440//440 376//376 373//373
f 439//439 378//378 376//376
f 437//437 380//380 378//378
f 434//434 382//382 380//380
f 433//433 384//384 382//382
f 431//431 386//386 384//384
f 384//384 433//433 431//431
f 426//426 387//387 386//386
f 428//428 389//389 387//387
f 387//387 426//426 428//428
f 422//422 391//391 389//389
f 421//421 394//394 391//391
f 391//391 422//422 421//421
f 424//424 395//395 394//394
f 421//421 424//424 394//394
f 428//428 422//422 389//389
f 431//431 426//426 386//386
f 382//382 434//434 433//433
f 380//380 437//437 434//434
f 378//378 439//439 437//437
f 376//376 440//440 439//439
f 373//373 374//374 440//440
f 442//442 465//465 425//425
f 425//425 304//304 442//442
f 467//467 444//444 464//464
f 444//444 467//467 470//470
f 471//471 447//447 463//463
f 474//474 461//461 447//447
f 461//461 474//474 476//476
f 478//478 450//450 448//448
f 478//478 452//452 450//450
f 448//448 476//476 478//478
f 452//452 479//479 482//482
f 482//482 457//457 454//454
f 482//482 454//454 452//452
f 457//457 483//483 486//486
f 486//486 303//303 459//459
f 486//486 459//459 457//457
f 486//486 443//443 303//303
f 482//482 483//483 457//457
f 478//478 479//479 452//452
f 476//476 448//448 461//461
f 447//447 471//471 474//474
f 463//463 470//470 471//471
f 470//470 463//463 444//444
f 464//464 487//487 467//467
f 466//466 488//488 395//395
f 395//395 424//424 466//466
f 490//490 491//491 468//468
f 469//469 468//468 491//491
f 494//494 495//495 472//472
f 495//495 497//497 473//473
f 475//475 473//473 497//497
f 480//480 477//477 499//499
f 499//499 501//501 480//480
f 501//501 504//504 480//480
f 484//484 481//481 504//504
f 504//504 505//505 484//484
f 505//505 508//508 484//484
f 442//442 485//485 508//508
f 508//508 509//509 442//442
f 509//509 465//465 442//442
f 485//485 484//484 508//508
f 481//481 480//480 504//504
f 477//477 475//475 499//499
f 497//497 499//499 475//475
f 473//473 472//472 495//495
f 472//472 469//469 494//494
f 491//491 494//494 469//469
f 468//468 487//487 490//490
f 419//419 511//511 187//187
f 281//281 255//255 487//487
f 511//511 255//255 187//187
f 188//188 187//187 255//255
f 255//255 511//511 487//487
f 490//490 487//487 511//511
f 255//255 209//209 188//188
f 511//511 512//512 490//490
f 487//487 464//464 281//281
f 187//187 347//347 419//419
f 489//489 397//397 371//371
f 371//371 396//396 489//489
f 398//398 514//514 402//402
f 402//402 399//399 398//398
f 399//399 348//348 398//398
f 516//516 517//517 406//406
f 406//406 404//404 516//516
f 404//404 402//402 516//516
f 520//520 521//521 410//410
f 410//410 408//408 520//520
f 408//408 406//406 520//520
f 524//524 525//525 411//411
f 413//413 411//411 525//525
f 528//528 529//529 415//415
f 417//417 415//415 529//529
f 531//531 511//511 419//419
f 419//419 417//417 531//531
f 529//529 531//531 417//417
f 415//415 413//413 528//528
f 525//525 528//528 413//413
f 411//411 410//410 524//524
f 521//521 524//524 410//410
f 517//517 520//520 406//406
f 514//514 516//516 402//402
f 513//513 534//534 536//536
f 513//513 489//489 534//534
f 536//536 515//515 513//513
f 538//538 519//519 518//518
f 518//518 536//536 540//540
f 518//518 540//540 538//538
f 522//522 542//542 543//543
f 522//522 538//538 542//542
f 543//543 523//523 522//522
f 545//545 526//526 523//523
f 526//526 545//545 547//547
f 549//549 530//530 527//527
f 530//530 549//549 551//551
f 512//512 511//511 532//532
f 532//532 551//551 512//512
f 551//551 532//532 530//530
f 527//527 547//547 549//549
f 547//547 527//527 526//526
f 523//523 543//543 545//545
f 522//522 519//519 538//538
f 518//518 515//515 536//536
f 513//513 397//397 489//489
f 552//552 492//492 490//490
f 550//550 493//493 492//492
f 548//548 496//496 493//493
f 498//498 496//496 548//548
f 544//544 500//500 498//498
f 502//502 500//500 544//544
f 544//544 541//541 502//502
f 537//537 503//503 502//502
f 539//539 506//506 503//503
f 503//503 537//537 539//539
f 535//535 507//507 506//506
f 510//510 507//507 535//535
f 533//533 466//466 510//510
f 535//535 533//533 510//510
f 533//533 488//488 466//466
f 539//539 535//535 506//506
f 541//541 537//537 502//502
f 498//498 546//546 544//544
f 548//548 546//546 498//498
f 493//493 550//550 548//548
f 492//492 552//552 550//550
f 490//490 512//512 552//552

